<?xml version="1.0" encoding="UTF-8" standalone="no"?>
<svg
   xmlns:dc="http://purl.org/dc/elements/1.1/"
   xmlns:cc="http://creativecommons.org/ns#"
   xmlns:rdf="http://www.w3.org/1999/02/22-rdf-syntax-ns#"
   xmlns:svg="http://www.w3.org/2000/svg"
   xmlns="http://www.w3.org/2000/svg"
   xmlns:sodipodi="http://sodipodi.sourceforge.net/DTD/sodipodi-0.dtd"
   xmlns:inkscape="http://www.inkscape.org/namespaces/inkscape"
   viewBox="0 0 308.36582 181.08693"
   version="1.1"
   id="svg158"
   sodipodi:docname="logo.svg"
   inkscape:version="0.92.5 (2060ec1f9f, 2020-04-08)"
   width="308.36581"
   height="181.08693">
  <metadata
     id="metadata162">
    <rdf:RDF>
      <cc:Work
         rdf:about="">
        <dc:format>image/svg+xml</dc:format>
        <dc:type
           rdf:resource="http://purl.org/dc/dcmitype/StillImage" />
        <dc:title />
      </cc:Work>
    </rdf:RDF>
  </metadata>
  <sodipodi:namedview
     pagecolor="#ffffff"
     bordercolor="#666666"
     borderopacity="1"
     objecttolerance="10"
     gridtolerance="10"
     guidetolerance="10"
     inkscape:pageopacity="0"
     inkscape:pageshadow="2"
     inkscape:window-width="3708"
     inkscape:window-height="2032"
     id="namedview160"
     showgrid="false"
     inkscape:zoom="6.3317865"
     inkscape:cx="120.56765"
     inkscape:cy="55.668951"
     inkscape:window-x="132"
     inkscape:window-y="54"
     inkscape:window-maximized="1"
     inkscape:current-layer="svg158"
     fit-margin-top="0"
     fit-margin-left="0"
     fit-margin-right="0"
     fit-margin-bottom="0" />
  <defs
     id="defs40">
    <linearGradient
       id="d"
       x1="182"
       x2="187"
       y1="119.36"
       y2="278.88"
       gradientUnits="userSpaceOnUse"
       gradientTransform="matrix(1,0,0,0.84725523,105.17158,-80.778438)">
      <stop
         stop-color="#c17d11"
         offset="0"
         id="stop2" />
      <stop
         stop-color="#8f5902"
         offset="1"
         id="stop4" />
    </linearGradient>
    <linearGradient
       id="c"
       x1="-8"
       x2="213.27"
       y1="132.36"
       y2="301.57001"
       gradientUnits="userSpaceOnUse"
       gradientTransform="matrix(1,0,0,0.84725523,105.17158,-80.778438)">
      <stop
         stop-color="#06712e"
         offset="0"
         id="stop7" />
      <stop
         stop-color="#63a67c"
         offset="1"
         id="stop9" />
    </linearGradient>
    <linearGradient
       id="b"
       x1="-819.95001"
       x2="-378.26999"
       y1="798.37"
       y2="804.70001"
       gradientUnits="userSpaceOnUse">
      <stop
         offset="0"
         id="stop12" />
      <stop
         stop-color="#5d5c5c"
         offset=".16709"
         id="stop14" />
      <stop
         offset=".30664"
         id="stop16" />
      <stop
         stop-color="#7c7c7c"
         offset=".50633"
         id="stop18" />
      <stop
         offset=".64588"
         id="stop20" />
      <stop
         stop-color="#ccc"
         offset=".80294"
         id="stop22" />
      <stop
         offset=".89264"
         id="stop24" />
      <stop
         stop-opacity="0"
         offset="1"
         id="stop26" />
    </linearGradient>
    <linearGradient
       id="a"
       x2="0"
       y1="593.53003"
       y2="792.38"
       gradientUnits="userSpaceOnUse">
      <stop
         stop-color="#c5913e"
         offset="0"
         id="stop29" />
      <stop
         stop-color="#8f5902"
         offset=".15562"
         id="stop31" />
      <stop
         stop-color="#8f5902"
         stop-opacity=".61176"
         offset=".48325"
         id="stop33" />
      <stop
         stop-color="#8f5902"
         offset=".59791"
         id="stop35" />
      <stop
         stop-color="#8f5902"
         stop-opacity="0"
         offset="1"
         id="stop37" />
    </linearGradient>
  </defs>
  <path
     style="opacity:0.36397998;fill:#999999;stroke-width:0.92784721"
     inkscape:connector-curvature="0"
     id="path100"
     d="M 291.8033,0.002411 V 161.85167 l 0.4939,0.0539 -289.3713833,0.61862 11.9999983,18.56274 H 308.3658 L 296.8038,166.1021 V 5.165403 L 291.8038,0 Z"
     sodipodi:nodetypes="cccccccccc" />
  <path
     inkscape:connector-curvature="0"
     style="fill:url(#c);stroke-width:0.92046469"
     id="path42"
     d="M 7.9555835,8.556153 H 284.44558 V 150.16639 H 7.9555835 Z" />
  <path
     inkscape:connector-curvature="0"
     style="fill:url(#d);stroke-width:0.92046469"
     id="path44"
     d="M 1.1715835,0.452157 V 155.49986 H 292.17158 V 0.452157 Z M 11.171583,8.924709 H 282.17158 V 147.02731 H 11.171583 Z" />
  <path
     style="fill:#e9b96e;stroke-width:0.92046469"
     inkscape:connector-curvature="0"
     id="path46"
     d="m 1.1715835,0.452157 v 1.006115 l 9.9999995,8.552195 V 8.924963 h 0.09375 L 1.3903335,0.452411 h -0.21875 z" />
  <path
     style="fill:#8f5902;stroke-width:0.92046469"
     inkscape:connector-curvature="0"
     id="path48"
     d="m 1.2915835,0.452157 9.8749995,8.472552 h 1.4062 L 2.6977835,0.452157 Z" />
  <path
     style="fill:#784b02;stroke-width:0.92046469"
     inkscape:connector-curvature="0"
     id="path50"
     d="m 1.1715835,155.29228 v -1.00611 l 9.9999995,-8.5522 v 1.08551 h 0.09375 l -9.8749995,8.47255 h -0.21875 z" />
  <path
     style="fill:#c17d11;stroke-width:0.92046469"
     inkscape:connector-curvature="0"
     id="path52"
     d="m 1.2915835,155.43632 9.8749995,-8.47255 h 1.4062 l -9.8749995,8.47255 z" />
  <path
     style="fill:#e9b96e;stroke-width:0.92046469"
     inkscape:connector-curvature="0"
     id="path54"
     d="m 292.31158,0.452157 v 1.006115 l -10,8.552195 V 8.924963 h -0.0937 l 9.875,-8.472552 h 0.21875 z" />
  <path
     style="fill:#8f5902;stroke-width:0.92046469"
     inkscape:connector-curvature="0"
     id="path56"
     d="m 292.19158,0.452157 -9.875,8.472552 h -1.4062 l 9.875,-8.472552 z" />
  <path
     style="fill:#784b02;stroke-width:0.92046469"
     inkscape:connector-curvature="0"
     id="path58"
     d="m 292.31158,155.29228 v -1.00611 l -10,-8.5522 v 1.08551 h -0.0937 l 9.875,8.47255 h 0.21875 z" />
  <path
     style="fill:#c17d11;stroke-width:0.92046469"
     inkscape:connector-curvature="0"
     id="path60"
     d="m 292.19158,155.43632 -9.875,-8.47255 h -1.4062 l 9.875,8.47255 z" />
  <path
     style="opacity:0.38314;fill:#2e3436;stroke-width:0.92046469"
     inkscape:connector-curvature="0"
     id="path62"
     d="m 10.050583,7.776678 0.70711,140.195322 4,-0.5991 0.7071,-132.824196 H 282.46479 V 7.770663 H 10.054793 Z" />
  <path
     style="opacity:0.38314;fill:#eeeeec;stroke-width:0.92046469"
     inkscape:connector-curvature="0"
     id="path64"
     d="m 283.51158,7.785151 -4,0.582488 V 8.92365 h 2.6562 v 138.1026 H 11.827783 v 0.95316 H 284.23778 L 283.51903,7.784092 Z" />
  <path
     style="opacity:0.3;fill:#e9b96e;stroke:#e9b96e;stroke-width:0.92046469"
     inkscape:connector-curvature="0"
     id="path66"
     d="m 226.70283,1.405319 c -2.56107,0.01271 -5.14347,0.239163 -7.71875,0.503058 1.70338,0.09616 3.38351,0.23962 5.0625,0.423627 3.51054,0.283831 6.99948,0.150269 10.46875,-0.05295 -2.5823,-0.663808 -5.18115,-0.886788 -7.8125,-0.873732 z m 7.8125,0.873732 0.21875,0.05295 c 6.61914,-0.334064 13.18906,-0.06802 19.75,0.105907 -6.58802,-1.254861 -13.25065,-0.552393 -19.96875,-0.15886 z m 19.96875,0.15886 c 0.76572,0.145847 1.51704,0.326863 2.28125,0.529535 0.78001,-0.171824 1.60101,-0.310884 2.4375,-0.423628 -1.57162,-0.01798 -3.14861,-0.06428 -4.71875,-0.105907 z m 4.71875,0.105907 c 3.43448,0.0393 6.85678,0.0167 10.3125,-0.211814 4.02535,-0.139272 7.87459,0.228149 11.8125,0.158861 -7.32517,-0.0554 -15.52404,-0.836741 -22.125,0.05295 z M 218.98408,1.908377 c -5.53732,-0.312595 -11.15654,-0.186846 -16.65625,0.264767 2.14661,0.100747 4.29446,0.239536 6.46875,0.476581 3.37071,-0.0058 6.77688,-0.391856 10.1875,-0.741348 z m -16.65625,0.264767 c -5.89728,-0.276773 -11.72122,-0.119429 -17.59375,0.15886 3.20829,0.226692 6.41144,0.506608 9.625,0.714872 2.5987,-0.358643 5.28073,-0.653005 7.96875,-0.873732 z m -17.59375,0.15886 c -6.09362,-0.430558 -12.16383,-0.652081 -18.09375,0.185337 -0.71095,0.04572 -1.41592,0.07201 -2.125,0.105907 4.69586,0.448842 9.35583,0.770884 13.84375,0.05295 2.13768,-0.111059 4.25797,-0.243874 6.375,-0.344198 z m -20.21875,0.291244 c -6.6919,-0.639627 -13.49693,-1.549943 -20.15625,-0.105907 -0.22123,0.02626 -0.43484,0.03075 -0.65625,0.05295 6.95539,0.179711 13.84952,0.385865 20.8125,0.05295 z m -20.8125,-0.05295 c -3.58186,-0.09255 -7.16987,-0.185422 -10.8125,-0.185337 -1.39008,-0.111516 -2.78859,-0.123259 -4.1875,-0.132384 5.04665,0.347425 10.04984,0.814187 15,0.317721 z m -15,-0.317721 c -4.71085,-0.324304 -9.44208,-0.535143 -14.25,0.317721 -7.36124,-0.788964 -14.779057,-0.446394 -22.156247,-0.158861 5.0285,0.07345 10.035557,0.114185 14.937497,-0.07943 7.15078,0.837597 14.34893,-0.125885 21.46875,-0.07943 z M 92.296583,2.411434 c -3.94791,-0.05766 -7.90956,-0.12236 -11.90625,-0.132383 0.70234,0.115142 1.40607,0.244738 2.09375,0.397151 3.264,0.0075 6.53461,-0.13701 9.8125,-0.264768 z M 80.390333,2.279051 c -3.78096,-0.619869 -7.76451,-0.737307 -11.8125,-0.608965 1.9999,0.0915 3.94723,0.309155 5.84375,0.661918 1.98823,-0.04104 3.98778,-0.05792 5.96875,-0.05295 z M 16.359083,1.537702 c -2.18034,0.05162 -4.30919,0.342918 -6.4374995,0.661919 3.3138395,-0.0014 6.5414295,0.02697 8.7499995,0.07943 2.05203,-0.02781 4.10642,-0.02276 6.15625,0 -1.20179,-0.107432 -2.41546,-0.253347 -3.625,-0.397151 -1.64178,-0.30902 -3.25601,-0.38179 -4.84375,-0.344198 z M 9.9215835,2.199621 c -2.08039,8.38e-4 -4.02577,-0.01305 -5.96875,0 l 0.6875,0.688394 c 1.76238,-0.167349 3.51937,-0.424313 5.28125,-0.688394 z M 65.734083,1.617133 c -6.57185,-0.02324 -13.45075,0.763656 -19.96875,0.476581 -7.03314,0.494212 -13.97643,0.262742 -20.90625,0.185337 8.48347,0.756395 16.79293,0.651852 25.21875,0.608964 5.93044,-0.28821 12.15756,-1.01064 18.25,-1.217929 -0.85665,-0.03555 -1.72399,-0.04988 -2.59375,-0.05295 z m 223.343747,0.503057 -4.5,0.211814 c -0.95857,0.09477 -1.90194,0.134409 -2.84375,0.158861 2.60152,0.0095 5.09002,-0.06985 7.34375,-0.370675 z" />
  <path
     style="opacity:0.3;fill:#e9b96e;stroke:#e9b96e;stroke-width:0.92046469"
     inkscape:connector-curvature="0"
     id="path68"
     d="m 240.60908,5.932839 c -3.36136,0.0155 -6.745,0.286169 -10.125,0.608965 2.24873,0.116438 4.47133,0.277179 6.6875,0.503057 4.57667,0.34413 9.13353,0.194064 13.65625,-0.05295 -3.36762,-0.808841 -6.78686,-1.074904 -10.21875,-1.059069 z m 10.21875,1.059069 0.25,0.05295 c 8.59665,-0.403496 17.10395,-0.05143 25.625,0.158861 C 268.1559,5.691233 259.54317,6.5159 250.82783,6.991905 Z m 25.875,0.211814 c 0.99805,0.176619 2.00393,0.363286 3,0.608964 1.0327,-0.211559 2.06395,-0.368928 3.09375,-0.503057 -2.03209,-0.02194 -4.06356,-0.05583 -6.09375,-0.105907 z m 6.09375,0.105907 c 0.86103,0.0093 1.73271,0.02448 2.59375,0.02643 l 0.3125,-0.317721 c -0.96662,0.06965 -1.93882,0.16524 -2.90625,0.291244 z m -52.3125,-0.767825 c -7.15587,-0.370531 -14.42474,-0.197606 -21.53125,0.344197 2.78499,0.121818 5.5854,0.29648 8.40625,0.582488 4.34885,-0.0068 8.72469,-0.506455 13.125,-0.926685 z m -21.53125,0.344197 c -7.66084,-0.335098 -15.24663,-0.15054 -22.875,0.185337 4.16904,0.273986 8.35537,0.622046 12.53125,0.873732 3.38564,-0.43454 6.84155,-0.792056 10.34375,-1.059069 z m -22.875,0.185337 c -7.92142,-0.520587 -15.82265,-0.800588 -23.53125,0.211814 -0.91145,0.05448 -1.80966,0.06532 -2.71875,0.105907 6.0944,0.541294 12.11276,0.945986 17.9375,0.07939 2.78821,-0.134714 5.55129,-0.27557 8.3125,-0.397151 z m -26.25,0.317721 c -8.70665,-0.773315 -17.55418,-1.853252 -26.21875,-0.105907 -0.27892,0.03075 -0.56461,0.05321 -0.84375,0.07939 9.0521,0.217524 18.00021,0.431244 27.0625,0.02643 z m -27.0625,-0.02643 c -4.65654,-0.111897 -9.35819,-0.211915 -14.09375,-0.211813 -1.86132,-0.138865 -3.72031,-0.203452 -5.59375,-0.211814 6.63124,0.421009 13.18447,1.033448 19.6875,0.423627 z M 113.07783,6.939002 C 107.0152,6.554094 100.88918,6.34206 94.702833,7.362629 85.212333,6.416652 75.683093,6.831248 66.171583,7.177292 72.627543,7.263912 79.032853,7.302618 85.327833,7.071385 94.567173,8.077874 103.877,6.897918 113.07783,6.939002 Z M 66.171583,7.177245 c -5.15427,-0.06914 -10.34379,-0.171366 -15.5625,-0.185337 0.86323,0.133926 1.7164,0.302182 2.5625,0.476581 4.31982,0.0091 8.66159,-0.1334 13,-0.291244 z m -15.5625,-0.185337 c -5.09347,-0.790243 -10.47371,-0.891779 -15.9375,-0.714872 2.74628,0.102586 5.43265,0.318297 8.03125,0.767825 2.63949,-0.05067 5.27665,-0.05999 7.90625,-0.05295 z M 34.671583,6.277036 C 26.255543,5.962671 17.285253,6.885916 8.7028335,6.833048 l 0.96875,0.900208 h 1.3749995 c 7.67179,-0.346739 15.74188,-1.200976 23.625,-1.45622 z" />
  <path
     style="opacity:0.3;fill:#e9b96e;stroke:#e9b96e;stroke-width:0.92046469"
     inkscape:connector-curvature="0"
     id="path70"
     d="m 54.921583,3.841178 c -3.43308,-0.01313 -6.84999,0.201053 -10.21875,0.873731 4.52272,0.205265 9.07958,0.338945 13.65625,0.05295 2.20994,-0.187176 4.44516,-0.326905 6.6875,-0.423628 -3.38,-0.268232 -6.76364,-0.490171 -10.125,-0.503057 z m 10.125,0.503057 c 4.40031,0.349205 8.8074,0.73552 13.15625,0.741349 2.78608,-0.234732 5.53025,-0.37514 8.28125,-0.476581 -7.08254,-0.445792 -14.30748,-0.572338 -21.4375,-0.264768 z m 21.4375,0.264768 c 3.5347,0.22248 7.05241,0.509361 10.46875,0.873732 C 101.1209,5.273979 105.29155,5.021794 109.45283,4.79434 101.79028,4.513983 94.180193,4.325214 86.484083,4.609003 Z M 109.45283,4.79434 c 2.76122,0.101026 5.52429,0.205781 8.3125,0.31772 5.82185,0.719735 11.8462,0.39649 17.9375,-0.05295 -0.90909,-0.03372 -1.8073,-0.06058 -2.71875,-0.105907 -7.71619,-0.842112 -15.60194,-0.592274 -23.53125,-0.15886 z m 26.25,0.264767 c 9.03384,0.335293 17.97693,0.153912 27,-0.02643 -0.25868,-0.02042 -0.52275,-0.05566 -0.78125,-0.07939 C 153.254,3.500778 144.4124,4.390074 135.70283,5.032677 Z m 27,-0.02643 c 6.53583,0.515766 13.14716,-0.01949 19.8125,-0.370675 -1.8944,0.0059 -3.77422,0.04219 -5.65625,0.158861 -4.76447,-9.3e-5 -9.4716,0.118166 -14.15625,0.211814 z m 19.8125,-0.370675 c 9.18055,-0.02948 18.46909,0.966854 27.6875,0.132384 6.35609,0.194013 12.82388,0.152853 19.34375,0.07939 -9.56583,-0.288465 -19.17373,-0.658216 -28.71875,0.132383 -6.1731,-0.846255 -12.2626,-0.662782 -18.3125,-0.344197 z m 47.03125,0.21181 c 4.28363,0.129181 8.54709,0.245823 12.8125,0.238291 0.87553,-0.149964 1.76241,-0.283144 2.65625,-0.397151 -5.18199,0.01084 -10.35,0.101221 -15.46875,0.15886 z m 15.46875,-0.15886 c 2.60321,-0.0051 5.19961,0.01152 7.8125,0.05295 2.59286,-0.372724 5.29129,-0.549894 8.03125,-0.635441 -5.43158,-0.146152 -10.77701,-0.06371 -15.84375,0.582488 z m 15.84375,-0.582488 c 7.88312,0.212102 15.95321,0.903318 23.625,1.191453 0.99379,0.0042 1.97712,-0.0042 2.96875,0 l 0.8125,-0.767825 C 279.23988,4.710877 269.75769,3.854623 260.85908,4.132464 Z M 44.702833,4.714952 c -8.76828,-0.397956 -17.43331,-1.103304 -26.03125,0.185337 8.57299,-0.174348 17.13228,-0.469718 25.78125,-0.132384 z m -26.03125,0.185295 c -1.97836,0.04024 -3.95731,0.06168 -5.9375,0.07939 1.0298,0.111457 2.06105,0.247831 3.09375,0.423628 0.94426,-0.19353 1.89772,-0.36127 2.84375,-0.503058 z m -5.9375,0.07939 C 10.630683,4.751985 8.5477135,4.665616 6.4528335,4.635437 l 0.21875,0.23829 0.125,0.105907 c 1.98309,0.02084 3.9561295,0.01779 5.9374995,0 z" />
  <g
     style="fill:#e9b96e;stroke:#e9b96e;stroke-width:1.00530005"
     id="g78"
     transform="matrix(0.98952,0,0,-0.84725523,104.85507,236.94227)">
    <path
       style="opacity:0.3"
       inkscape:connector-curvature="0"
       id="path72"
       d="m 121.53125,97 c -2.56107,0.015 -5.14347,0.28228 -7.71875,0.59375 1.70338,0.1135 3.38351,0.28282 5.0625,0.5 3.51054,0.335 6.99948,0.17736 10.46875,-0.0625 -2.5823,-0.78348 -5.18115,-1.04666 -7.8125,-1.03125 z m 7.8125,1.03125 0.21875,0.0625 c 6.61914,-0.39429 13.18906,-0.08028 19.75,0.125 -6.58802,-1.48109 -13.25065,-0.65198 -19.96875,-0.1875 z m 19.96875,0.1875 c 0.76572,0.17214 1.51704,0.38579 2.28125,0.625 0.78001,-0.2028 1.60101,-0.36693 2.4375,-0.5 -1.57162,-0.02122 -3.14861,-0.07587 -4.71875,-0.125 z m 4.71875,0.125 c 3.43448,0.04638 6.85678,0.01971 10.3125,-0.25 4.02535,-0.16438 7.87459,0.26928 11.8125,0.1875 -7.32517,-0.06539 -15.52404,-0.98759 -22.125,0.0625 z m -40.21875,-0.75 c -5.53732,-0.36895 -11.15654,-0.22053 -16.65625,0.3125 2.14661,0.11891 4.29446,0.28272 6.46875,0.5625 3.37071,-0.0069 6.77688,-0.4625 10.1875,-0.875 z m -16.65625,0.3125 c -5.89728,-0.32667 -11.72122,-0.14096 -17.59375,0.1875 3.20829,0.26756 6.41144,0.59794 9.625,0.84375 2.5987,-0.4233 5.28073,-0.77073 7.96875,-1.03125 z m -17.59375,0.1875 c -6.09362,-0.50818 -12.16383,-0.76964 -18.09375,0.21875 -0.71095,0.05396 -1.41592,0.08499 -2.125,0.125 4.69586,0.52976 9.35583,0.90986 13.84375,0.0625 2.13768,-0.13108 4.25797,-0.28784 6.375,-0.40625 z M 59.34375,98.4375 c -6.6919,-0.75494 -13.49693,-1.82937 -20.15625,-0.125 -0.22123,0.031 -0.43484,0.03629 -0.65625,0.0625 6.95539,0.21211 13.84952,0.45543 20.8125,0.0625 z M 38.53125,98.375 C 34.94939,98.26577 31.36138,98.15615 27.71875,98.15625 26.32867,98.02463 24.93016,98.01077 23.53125,98 c 5.04665,0.41006 10.04984,0.96097 15,0.375 z m -15,-0.375 C 18.8204,97.61723 14.08917,97.36838 9.28125,98.375 1.92001,97.4438 -5.49781,97.84813 -12.875,98.1875 -7.8465,98.27419 -2.83944,98.32227 2.0625,98.09375 9.21328,99.08235 16.41143,97.94517 23.53125,98 Z M -12.875,98.1875 c -3.94791,-0.06806 -7.90956,-0.14442 -11.90625,-0.15625 0.70234,0.1359 1.40607,0.28886 2.09375,0.46875 3.264,0.0088 6.53461,-0.16171 9.8125,-0.3125 z m -11.90625,-0.15625 c -3.78096,-0.73162 -7.76451,-0.87023 -11.8125,-0.71875 1.9999,0.10799 3.94723,0.36489 5.84375,0.78125 1.98823,-0.04844 3.98778,-0.06836 5.96875,-0.0625 z m -64.03125,-0.875 c -2.18034,0.06093 -4.30919,0.40474 -6.4375,0.78125 3.31384,-0.0016 6.54143,0.03183 8.75,0.09375 2.05203,-0.03282 4.10642,-0.02686 6.15625,0 -1.20179,-0.1268 -2.41546,-0.29902 -3.625,-0.46875 -1.64178,-0.36473 -3.25601,-0.45062 -4.84375,-0.40625 z M -95.25,97.9375 c -2.08039,9.9e-4 -4.02577,-0.0154 -5.96875,0 l 0.6875,0.8125 c 1.76238,-0.19752 3.51937,-0.50081 5.28125,-0.8125 z M -39.4375,97.25 c -6.57185,-0.02743 -13.45075,0.90133 -19.96875,0.5625 -7.03314,0.58331 -13.97643,0.31011 -20.90625,0.21875 8.48347,0.89276 16.79293,0.76937 25.21875,0.71875 5.93044,-0.34017 12.15756,-1.19284 18.25,-1.4375 -0.85665,-0.04196 -1.72399,-0.05887 -2.59375,-0.0625 z m 223.34375,0.59375 -4.5,0.25 c -0.95857,0.11186 -1.90194,0.15864 -2.84375,0.1875 2.60152,0.01126 5.09002,-0.08244 7.34375,-0.4375 z" />
    <path
       style="opacity:0.3"
       inkscape:connector-curvature="0"
       id="path74"
       d="m 135.4375,102.34375 c -3.36136,0.0183 -6.745,0.33776 -10.125,0.71875 2.24873,0.13743 4.47133,0.32715 6.6875,0.59375 4.57667,0.40617 9.13353,0.22905 13.65625,-0.0625 -3.36762,-0.95466 -6.78686,-1.26869 -10.21875,-1.25 z m 10.21875,1.25 0.25,0.0625 c 8.59665,-0.47624 17.10395,-0.0607 25.625,0.1875 -8.54693,-1.78516 -17.15966,-0.81182 -25.875,-0.25 z m 25.875,0.25 c 0.99805,0.20846 2.00393,0.42878 3,0.71875 1.0327,-0.2497 2.06395,-0.43544 3.09375,-0.59375 -2.03209,-0.0259 -4.06356,-0.0659 -6.09375,-0.125 z m 6.09375,0.125 c 0.86103,0.011 1.73271,0.0289 2.59375,0.0312 l 0.3125,-0.375 c -0.96662,0.0822 -1.93882,0.19503 -2.90625,0.34375 z m -52.3125,-0.90625 c -7.15587,-0.43733 -14.42474,-0.23323 -21.53125,0.40625 2.78499,0.14378 5.5854,0.34993 8.40625,0.6875 4.34885,-0.008 8.72469,-0.59776 13.125,-1.09375 z m -21.53125,0.40625 c -7.66084,-0.39551 -15.24663,-0.17768 -22.875,0.21875 4.16904,0.32338 8.35537,0.73419 12.53125,1.03125 3.38564,-0.51288 6.84155,-0.93485 10.34375,-1.25 z m -22.875,0.21875 c -7.92142,-0.61444 -15.82265,-0.94492 -23.53125,0.25 -0.91145,0.0643 -1.80966,0.0771 -2.71875,0.125 6.0944,0.63888 12.11276,1.11653 17.9375,0.0937 2.78821,-0.159 5.55129,-0.32525 8.3125,-0.46875 z m -26.25,0.375 c -8.70665,-0.91273 -17.55418,-2.18736 -26.21875,-0.125 -0.27892,0.0363 -0.56461,0.0628 -0.84375,0.0937 9.0521,0.25674 18.00021,0.50899 27.0625,0.0312 z m -27.0625,-0.0312 c -4.65654,-0.13207 -9.35819,-0.25012 -14.09375,-0.25 -1.86132,-0.1639 -3.72031,-0.24013 -5.59375,-0.25 6.63124,0.49691 13.18447,1.21976 19.6875,0.5 z m -19.6875,-0.5 c -6.06263,-0.4543 -12.18865,-0.70456 -18.375,0.5 -9.4905,-1.11652 -19.01974,-0.62718 -28.53125,-0.21875 6.45596,0.10224 12.86127,0.14792 19.15625,-0.125 9.23934,1.18794 18.54917,-0.20474 27.75,-0.15625 z M -39,103.8125 c -5.15427,-0.0816 -10.34379,-0.20226 -15.5625,-0.21875 0.86323,0.15807 1.7164,0.35666 2.5625,0.5625 4.31982,0.0108 8.66159,-0.15745 13,-0.34375 z m -15.5625,-0.21875 C -59.65597,102.66104 -65.03621,102.5412 -70.5,102.75 c 2.74628,0.12108 5.43265,0.37568 8.03125,0.90625 2.63949,-0.0598 5.27665,-0.0708 7.90625,-0.0625 z M -70.5,102.75 c -8.41604,-0.37104 -17.38633,0.71865 -25.96875,0.65625 l 0.96875,1.0625 h 1.375 c 7.67179,-0.40925 15.74188,-1.41749 23.625,-1.71875 z" />
    <path
       style="opacity:0.3"
       inkscape:connector-curvature="0"
       id="path76"
       d="m -50.25,99.875 c -3.43308,-0.0155 -6.84999,0.2373 -10.21875,1.03125 4.52272,0.24227 9.07958,0.40005 13.65625,0.0625 2.20994,-0.22092 4.44516,-0.38584 6.6875,-0.5 -3.38,-0.31659 -6.76364,-0.57854 -10.125,-0.59375 z m 10.125,0.59375 c 4.40031,0.41216 8.8074,0.86812 13.15625,0.875 2.78608,-0.27705 5.53025,-0.44277 8.28125,-0.5625 -7.08254,-0.52616 -14.30748,-0.67552 -21.4375,-0.3125 z m 21.4375,0.3125 c 3.5347,0.26259 7.05241,0.60119 10.46875,1.03125 4.16807,-0.24639 8.33872,-0.54404 12.5,-0.8125 -7.66255,-0.3309 -15.27264,-0.5537 -22.96875,-0.21875 z M 4.28125,101 c 2.76122,0.11924 5.52429,0.24288 8.3125,0.375 5.82185,0.84949 11.8462,0.46797 17.9375,-0.0625 -0.90909,-0.0398 -1.8073,-0.0715 -2.71875,-0.125 C 20.09631,100.19357 12.21056,100.48845 4.28125,101 Z m 26.25,0.3125 c 9.03384,0.39574 17.97693,0.18166 27,-0.0312 -0.25868,-0.0241 -0.52275,-0.0657 -0.78125,-0.0937 -8.66758,-1.71437 -17.50918,-0.66475 -26.21875,0.0937 z m 27,-0.0312 c 6.53583,0.60875 13.14716,-0.023 19.8125,-0.4375 -1.8944,0.007 -3.77422,0.0498 -5.65625,0.1875 -4.76447,-1.1e-4 -9.4716,0.13947 -14.15625,0.25 z m 19.8125,-0.4375 c 9.18055,-0.0348 18.46909,1.14116 27.6875,0.15625 6.35609,0.22899 12.82388,0.18041 19.34375,0.0937 -9.56583,-0.34047 -19.17373,-0.77688 -28.71875,0.15625 -6.1731,-0.99882 -12.2626,-0.78227 -18.3125,-0.40625 z m 47.03125,0.25 c 4.28363,0.15247 8.54709,0.29014 12.8125,0.28125 0.87553,-0.177 1.76241,-0.33419 2.65625,-0.46875 -5.18199,0.0128 -10.35,0.11947 -15.46875,0.1875 z m 15.46875,-0.1875 c 2.60321,-0.006 5.19961,0.0136 7.8125,0.0625 2.59286,-0.43992 5.29129,-0.64903 8.03125,-0.75 -5.43158,-0.1725 -10.77701,-0.0752 -15.84375,0.6875 z m 15.84375,-0.6875 c 7.88312,0.25034 15.95321,1.06617 23.625,1.40625 0.99379,0.005 1.97712,-0.005 2.96875,0 l 0.8125,-0.90625 c -9.02545,0.18269 -18.50764,-0.82793 -27.40625,-0.5 z m -216.15625,0.6875 c -8.76828,-0.4697 -17.43331,-1.30221 -26.03125,0.21875 8.57299,-0.20578 17.13228,-0.5544 25.78125,-0.15625 z M -86.5,101.125 c -1.97836,0.0475 -3.95731,0.0728 -5.9375,0.0937 1.0298,0.13155 2.06105,0.29251 3.09375,0.5 0.94426,-0.22842 1.89772,-0.4264 2.84375,-0.59375 z m -5.9375,0.0937 c -2.1034,-0.26869 -4.18637,-0.37063 -6.28125,-0.40625 l 0.21875,0.28125 0.125,0.125 c 1.98309,0.0246 3.95613,0.021 5.9375,0 z" />
  </g>
  <g
     style="fill:#e9b96e;stroke:#e9b96e;stroke-width:1.28190005"
     id="g86"
     transform="matrix(0,0.51560564,-1,0,388.89158,57.502088)">
    <path
       style="opacity:0.3"
       inkscape:connector-curvature="0"
       id="path80"
       d="m 121.53125,97 c -2.56107,0.015 -5.14347,0.28228 -7.71875,0.59375 1.70338,0.1135 3.38351,0.28282 5.0625,0.5 3.51054,0.335 6.99948,0.17736 10.46875,-0.0625 -2.5823,-0.78348 -5.18115,-1.04666 -7.8125,-1.03125 z m 7.8125,1.03125 0.21875,0.0625 c 6.61914,-0.39429 13.18906,-0.08028 19.75,0.125 -6.58802,-1.48109 -13.25065,-0.65198 -19.96875,-0.1875 z m 19.96875,0.1875 c 0.76572,0.17214 1.51704,0.38579 2.28125,0.625 0.78001,-0.2028 1.60101,-0.36693 2.4375,-0.5 -1.57162,-0.02122 -3.14861,-0.07587 -4.71875,-0.125 z m 4.71875,0.125 c 3.43448,0.04638 6.85678,0.01971 10.3125,-0.25 4.02535,-0.16438 7.87459,0.26928 11.8125,0.1875 -7.32517,-0.06539 -15.52404,-0.98759 -22.125,0.0625 z m -40.21875,-0.75 c -5.53732,-0.36895 -11.15654,-0.22053 -16.65625,0.3125 2.14661,0.11891 4.29446,0.28272 6.46875,0.5625 3.37071,-0.0069 6.77688,-0.4625 10.1875,-0.875 z m -16.65625,0.3125 c -5.89728,-0.32667 -11.72122,-0.14096 -17.59375,0.1875 3.20829,0.26756 6.41144,0.59794 9.625,0.84375 2.5987,-0.4233 5.28073,-0.77073 7.96875,-1.03125 z m -17.59375,0.1875 c -6.09362,-0.50818 -12.16383,-0.76964 -18.09375,0.21875 -0.71095,0.05396 -1.41592,0.08499 -2.125,0.125 4.69586,0.52976 9.35583,0.90986 13.84375,0.0625 2.13768,-0.13108 4.25797,-0.28784 6.375,-0.40625 z M 59.34375,98.4375 c -6.6919,-0.75494 -13.49693,-1.82937 -20.15625,-0.125 -0.22123,0.031 -0.43484,0.03629 -0.65625,0.0625 6.95539,0.21211 13.84952,0.45543 20.8125,0.0625 z M 38.53125,98.375 C 34.94939,98.26577 31.36138,98.15615 27.71875,98.15625 26.32867,98.02463 24.93016,98.01077 23.53125,98 c 5.04665,0.41006 10.04984,0.96097 15,0.375 z m -15,-0.375 C 18.8204,97.61723 14.08917,97.36838 9.28125,98.375 1.92001,97.4438 -5.49781,97.84813 -12.875,98.1875 -7.8465,98.27419 -2.83944,98.32227 2.0625,98.09375 9.21328,99.08235 16.41143,97.94517 23.53125,98 Z M -12.875,98.1875 c -3.94791,-0.06806 -7.90956,-0.14442 -11.90625,-0.15625 0.70234,0.1359 1.40607,0.28886 2.09375,0.46875 3.264,0.0088 6.53461,-0.16171 9.8125,-0.3125 z m -11.90625,-0.15625 c -3.78096,-0.73162 -7.76451,-0.87023 -11.8125,-0.71875 1.9999,0.10799 3.94723,0.36489 5.84375,0.78125 1.98823,-0.04844 3.98778,-0.06836 5.96875,-0.0625 z m -64.03125,-0.875 c -2.18034,0.06093 -4.30919,0.40474 -6.4375,0.78125 3.31384,-0.0016 6.54143,0.03183 8.75,0.09375 2.05203,-0.03282 4.10642,-0.02686 6.15625,0 -1.20179,-0.1268 -2.41546,-0.29902 -3.625,-0.46875 -1.64178,-0.36473 -3.25601,-0.45062 -4.84375,-0.40625 z M -95.25,97.9375 c -2.08039,9.9e-4 -4.02577,-0.0154 -5.96875,0 l 0.6875,0.8125 c 1.76238,-0.19752 3.51937,-0.50081 5.28125,-0.8125 z M -39.4375,97.25 c -6.57185,-0.02743 -13.45075,0.90133 -19.96875,0.5625 -7.03314,0.58331 -13.97643,0.31011 -20.90625,0.21875 8.48347,0.89276 16.79293,0.76937 25.21875,0.71875 5.93044,-0.34017 12.15756,-1.19284 18.25,-1.4375 -0.85665,-0.04196 -1.72399,-0.05887 -2.59375,-0.0625 z m 223.34375,0.59375 -4.5,0.25 c -0.95857,0.11186 -1.90194,0.15864 -2.84375,0.1875 2.60152,0.01126 5.09002,-0.08244 7.34375,-0.4375 z" />
    <path
       style="opacity:0.3"
       inkscape:connector-curvature="0"
       id="path82"
       d="m 135.4375,102.34375 c -3.36136,0.0183 -6.745,0.33776 -10.125,0.71875 2.24873,0.13743 4.47133,0.32715 6.6875,0.59375 4.57667,0.40617 9.13353,0.22905 13.65625,-0.0625 -3.36762,-0.95466 -6.78686,-1.26869 -10.21875,-1.25 z m 10.21875,1.25 0.25,0.0625 c 8.59665,-0.47624 17.10395,-0.0607 25.625,0.1875 -8.54693,-1.78516 -17.15966,-0.81182 -25.875,-0.25 z m 25.875,0.25 c 0.99805,0.20846 2.00393,0.42878 3,0.71875 1.0327,-0.2497 2.06395,-0.43544 3.09375,-0.59375 -2.03209,-0.0259 -4.06356,-0.0659 -6.09375,-0.125 z m 6.09375,0.125 c 0.86103,0.011 1.73271,0.0289 2.59375,0.0312 l 0.3125,-0.375 c -0.96662,0.0822 -1.93882,0.19503 -2.90625,0.34375 z m -52.3125,-0.90625 c -7.15587,-0.43733 -14.42474,-0.23323 -21.53125,0.40625 2.78499,0.14378 5.5854,0.34993 8.40625,0.6875 4.34885,-0.008 8.72469,-0.59776 13.125,-1.09375 z m -21.53125,0.40625 c -7.66084,-0.39551 -15.24663,-0.17768 -22.875,0.21875 4.16904,0.32338 8.35537,0.73419 12.53125,1.03125 3.38564,-0.51288 6.84155,-0.93485 10.34375,-1.25 z m -22.875,0.21875 c -7.92142,-0.61444 -15.82265,-0.94492 -23.53125,0.25 -0.91145,0.0643 -1.80966,0.0771 -2.71875,0.125 6.0944,0.63888 12.11276,1.11653 17.9375,0.0937 2.78821,-0.159 5.55129,-0.32525 8.3125,-0.46875 z m -26.25,0.375 c -8.70665,-0.91273 -17.55418,-2.18736 -26.21875,-0.125 -0.27892,0.0363 -0.56461,0.0628 -0.84375,0.0937 9.0521,0.25674 18.00021,0.50899 27.0625,0.0312 z m -27.0625,-0.0312 c -4.65654,-0.13207 -9.35819,-0.25012 -14.09375,-0.25 -1.86132,-0.1639 -3.72031,-0.24013 -5.59375,-0.25 6.63124,0.49691 13.18447,1.21976 19.6875,0.5 z m -19.6875,-0.5 c -6.06263,-0.4543 -12.18865,-0.70456 -18.375,0.5 -9.4905,-1.11652 -19.01974,-0.62718 -28.53125,-0.21875 6.45596,0.10224 12.86127,0.14792 19.15625,-0.125 9.23934,1.18794 18.54917,-0.20474 27.75,-0.15625 z M -39,103.8125 c -5.15427,-0.0816 -10.34379,-0.20226 -15.5625,-0.21875 0.86323,0.15807 1.7164,0.35666 2.5625,0.5625 4.31982,0.0108 8.66159,-0.15745 13,-0.34375 z m -15.5625,-0.21875 C -59.65597,102.66104 -65.03621,102.5412 -70.5,102.75 c 2.74628,0.12108 5.43265,0.37568 8.03125,0.90625 2.63949,-0.0598 5.27665,-0.0708 7.90625,-0.0625 z M -70.5,102.75 c -8.41604,-0.37104 -17.38633,0.71865 -25.96875,0.65625 l 0.96875,1.0625 h 1.375 c 7.67179,-0.40925 15.74188,-1.41749 23.625,-1.71875 z" />
    <path
       style="opacity:0.3"
       inkscape:connector-curvature="0"
       id="path84"
       d="m -50.25,99.875 c -3.43308,-0.0155 -6.84999,0.2373 -10.21875,1.03125 4.52272,0.24227 9.07958,0.40005 13.65625,0.0625 2.20994,-0.22092 4.44516,-0.38584 6.6875,-0.5 -3.38,-0.31659 -6.76364,-0.57854 -10.125,-0.59375 z m 10.125,0.59375 c 4.40031,0.41216 8.8074,0.86812 13.15625,0.875 2.78608,-0.27705 5.53025,-0.44277 8.28125,-0.5625 -7.08254,-0.52616 -14.30748,-0.67552 -21.4375,-0.3125 z m 21.4375,0.3125 c 3.5347,0.26259 7.05241,0.60119 10.46875,1.03125 4.16807,-0.24639 8.33872,-0.54404 12.5,-0.8125 -7.66255,-0.3309 -15.27264,-0.5537 -22.96875,-0.21875 z M 4.28125,101 c 2.76122,0.11924 5.52429,0.24288 8.3125,0.375 5.82185,0.84949 11.8462,0.46797 17.9375,-0.0625 -0.90909,-0.0398 -1.8073,-0.0715 -2.71875,-0.125 C 20.09631,100.19357 12.21056,100.48845 4.28125,101 Z m 26.25,0.3125 c 9.03384,0.39574 17.97693,0.18166 27,-0.0312 -0.25868,-0.0241 -0.52275,-0.0657 -0.78125,-0.0937 -8.66758,-1.71437 -17.50918,-0.66475 -26.21875,0.0937 z m 27,-0.0312 c 6.53583,0.60875 13.14716,-0.023 19.8125,-0.4375 -1.8944,0.007 -3.77422,0.0498 -5.65625,0.1875 -4.76447,-1.1e-4 -9.4716,0.13947 -14.15625,0.25 z m 19.8125,-0.4375 c 9.18055,-0.0348 18.46909,1.14116 27.6875,0.15625 6.35609,0.22899 12.82388,0.18041 19.34375,0.0937 -9.56583,-0.34047 -19.17373,-0.77688 -28.71875,0.15625 -6.1731,-0.99882 -12.2626,-0.78227 -18.3125,-0.40625 z m 47.03125,0.25 c 4.28363,0.15247 8.54709,0.29014 12.8125,0.28125 0.87553,-0.177 1.76241,-0.33419 2.65625,-0.46875 -5.18199,0.0128 -10.35,0.11947 -15.46875,0.1875 z m 15.46875,-0.1875 c 2.60321,-0.006 5.19961,0.0136 7.8125,0.0625 2.59286,-0.43992 5.29129,-0.64903 8.03125,-0.75 -5.43158,-0.1725 -10.77701,-0.0752 -15.84375,0.6875 z m 15.84375,-0.6875 c 7.88312,0.25034 15.95321,1.06617 23.625,1.40625 0.99379,0.005 1.97712,-0.005 2.96875,0 l 0.8125,-0.90625 c -9.02545,0.18269 -18.50764,-0.82793 -27.40625,-0.5 z m -216.15625,0.6875 c -8.76828,-0.4697 -17.43331,-1.30221 -26.03125,0.21875 8.57299,-0.20578 17.13228,-0.5544 25.78125,-0.15625 z M -86.5,101.125 c -1.97836,0.0475 -3.95731,0.0728 -5.9375,0.0937 1.0298,0.13155 2.06105,0.29251 3.09375,0.5 0.94426,-0.22842 1.89772,-0.4264 2.84375,-0.59375 z m -5.9375,0.0937 c -2.1034,-0.26869 -4.18637,-0.37063 -6.28125,-0.40625 l 0.21875,0.28125 0.125,0.125 c 1.98309,0.0246 3.95613,0.021 5.9375,0 z" />
  </g>
  <g
     style="fill:#e9b96e;stroke:#e9b96e;stroke-width:1.28190005"
     id="g94"
     transform="matrix(0,0.51560564,1,0,-96.358417,56.231205)">
    <path
       style="opacity:0.3"
       inkscape:connector-curvature="0"
       id="path88"
       d="m 121.53125,97 c -2.56107,0.015 -5.14347,0.28228 -7.71875,0.59375 1.70338,0.1135 3.38351,0.28282 5.0625,0.5 3.51054,0.335 6.99948,0.17736 10.46875,-0.0625 -2.5823,-0.78348 -5.18115,-1.04666 -7.8125,-1.03125 z m 7.8125,1.03125 0.21875,0.0625 c 6.61914,-0.39429 13.18906,-0.08028 19.75,0.125 -6.58802,-1.48109 -13.25065,-0.65198 -19.96875,-0.1875 z m 19.96875,0.1875 c 0.76572,0.17214 1.51704,0.38579 2.28125,0.625 0.78001,-0.2028 1.60101,-0.36693 2.4375,-0.5 -1.57162,-0.02122 -3.14861,-0.07587 -4.71875,-0.125 z m 4.71875,0.125 c 3.43448,0.04638 6.85678,0.01971 10.3125,-0.25 4.02535,-0.16438 7.87459,0.26928 11.8125,0.1875 -7.32517,-0.06539 -15.52404,-0.98759 -22.125,0.0625 z m -40.21875,-0.75 c -5.53732,-0.36895 -11.15654,-0.22053 -16.65625,0.3125 2.14661,0.11891 4.29446,0.28272 6.46875,0.5625 3.37071,-0.0069 6.77688,-0.4625 10.1875,-0.875 z m -16.65625,0.3125 c -5.89728,-0.32667 -11.72122,-0.14096 -17.59375,0.1875 3.20829,0.26756 6.41144,0.59794 9.625,0.84375 2.5987,-0.4233 5.28073,-0.77073 7.96875,-1.03125 z m -17.59375,0.1875 c -6.09362,-0.50818 -12.16383,-0.76964 -18.09375,0.21875 -0.71095,0.05396 -1.41592,0.08499 -2.125,0.125 4.69586,0.52976 9.35583,0.90986 13.84375,0.0625 2.13768,-0.13108 4.25797,-0.28784 6.375,-0.40625 z M 59.34375,98.4375 c -6.6919,-0.75494 -13.49693,-1.82937 -20.15625,-0.125 -0.22123,0.031 -0.43484,0.03629 -0.65625,0.0625 6.95539,0.21211 13.84952,0.45543 20.8125,0.0625 z M 38.53125,98.375 C 34.94939,98.26577 31.36138,98.15615 27.71875,98.15625 26.32867,98.02463 24.93016,98.01077 23.53125,98 c 5.04665,0.41006 10.04984,0.96097 15,0.375 z m -15,-0.375 C 18.8204,97.61723 14.08917,97.36838 9.28125,98.375 1.92001,97.4438 -5.49781,97.84813 -12.875,98.1875 -7.8465,98.27419 -2.83944,98.32227 2.0625,98.09375 9.21328,99.08235 16.41143,97.94517 23.53125,98 Z M -12.875,98.1875 c -3.94791,-0.06806 -7.90956,-0.14442 -11.90625,-0.15625 0.70234,0.1359 1.40607,0.28886 2.09375,0.46875 3.264,0.0088 6.53461,-0.16171 9.8125,-0.3125 z m -11.90625,-0.15625 c -3.78096,-0.73162 -7.76451,-0.87023 -11.8125,-0.71875 1.9999,0.10799 3.94723,0.36489 5.84375,0.78125 1.98823,-0.04844 3.98778,-0.06836 5.96875,-0.0625 z m -64.03125,-0.875 c -2.18034,0.06093 -4.30919,0.40474 -6.4375,0.78125 3.31384,-0.0016 6.54143,0.03183 8.75,0.09375 2.05203,-0.03282 4.10642,-0.02686 6.15625,0 -1.20179,-0.1268 -2.41546,-0.29902 -3.625,-0.46875 -1.64178,-0.36473 -3.25601,-0.45062 -4.84375,-0.40625 z M -95.25,97.9375 c -2.08039,9.9e-4 -4.02577,-0.0154 -5.96875,0 l 0.6875,0.8125 c 1.76238,-0.19752 3.51937,-0.50081 5.28125,-0.8125 z M -39.4375,97.25 c -6.57185,-0.02743 -13.45075,0.90133 -19.96875,0.5625 -7.03314,0.58331 -13.97643,0.31011 -20.90625,0.21875 8.48347,0.89276 16.79293,0.76937 25.21875,0.71875 5.93044,-0.34017 12.15756,-1.19284 18.25,-1.4375 -0.85665,-0.04196 -1.72399,-0.05887 -2.59375,-0.0625 z m 223.34375,0.59375 -4.5,0.25 c -0.95857,0.11186 -1.90194,0.15864 -2.84375,0.1875 2.60152,0.01126 5.09002,-0.08244 7.34375,-0.4375 z" />
    <path
       style="opacity:0.3"
       inkscape:connector-curvature="0"
       id="path90"
       d="m 135.4375,102.34375 c -3.36136,0.0183 -6.745,0.33776 -10.125,0.71875 2.24873,0.13743 4.47133,0.32715 6.6875,0.59375 4.57667,0.40617 9.13353,0.22905 13.65625,-0.0625 -3.36762,-0.95466 -6.78686,-1.26869 -10.21875,-1.25 z m 10.21875,1.25 0.25,0.0625 c 8.59665,-0.47624 17.10395,-0.0607 25.625,0.1875 -8.54693,-1.78516 -17.15966,-0.81182 -25.875,-0.25 z m 25.875,0.25 c 0.99805,0.20846 2.00393,0.42878 3,0.71875 1.0327,-0.2497 2.06395,-0.43544 3.09375,-0.59375 -2.03209,-0.0259 -4.06356,-0.0659 -6.09375,-0.125 z m 6.09375,0.125 c 0.86103,0.011 1.73271,0.0289 2.59375,0.0312 l 0.3125,-0.375 c -0.96662,0.0822 -1.93882,0.19503 -2.90625,0.34375 z m -52.3125,-0.90625 c -7.15587,-0.43733 -14.42474,-0.23323 -21.53125,0.40625 2.78499,0.14378 5.5854,0.34993 8.40625,0.6875 4.34885,-0.008 8.72469,-0.59776 13.125,-1.09375 z m -21.53125,0.40625 c -7.66084,-0.39551 -15.24663,-0.17768 -22.875,0.21875 4.16904,0.32338 8.35537,0.73419 12.53125,1.03125 3.38564,-0.51288 6.84155,-0.93485 10.34375,-1.25 z m -22.875,0.21875 c -7.92142,-0.61444 -15.82265,-0.94492 -23.53125,0.25 -0.91145,0.0643 -1.80966,0.0771 -2.71875,0.125 6.0944,0.63888 12.11276,1.11653 17.9375,0.0937 2.78821,-0.159 5.55129,-0.32525 8.3125,-0.46875 z m -26.25,0.375 c -8.70665,-0.91273 -17.55418,-2.18736 -26.21875,-0.125 -0.27892,0.0363 -0.56461,0.0628 -0.84375,0.0937 9.0521,0.25674 18.00021,0.50899 27.0625,0.0312 z m -27.0625,-0.0312 c -4.65654,-0.13207 -9.35819,-0.25012 -14.09375,-0.25 -1.86132,-0.1639 -3.72031,-0.24013 -5.59375,-0.25 6.63124,0.49691 13.18447,1.21976 19.6875,0.5 z m -19.6875,-0.5 c -6.06263,-0.4543 -12.18865,-0.70456 -18.375,0.5 -9.4905,-1.11652 -19.01974,-0.62718 -28.53125,-0.21875 6.45596,0.10224 12.86127,0.14792 19.15625,-0.125 9.23934,1.18794 18.54917,-0.20474 27.75,-0.15625 z M -39,103.8125 c -5.15427,-0.0816 -10.34379,-0.20226 -15.5625,-0.21875 0.86323,0.15807 1.7164,0.35666 2.5625,0.5625 4.31982,0.0108 8.66159,-0.15745 13,-0.34375 z m -15.5625,-0.21875 C -59.65597,102.66104 -65.03621,102.5412 -70.5,102.75 c 2.74628,0.12108 5.43265,0.37568 8.03125,0.90625 2.63949,-0.0598 5.27665,-0.0708 7.90625,-0.0625 z M -70.5,102.75 c -8.41604,-0.37104 -17.38633,0.71865 -25.96875,0.65625 l 0.96875,1.0625 h 1.375 c 7.67179,-0.40925 15.74188,-1.41749 23.625,-1.71875 z" />
    <path
       style="opacity:0.3"
       inkscape:connector-curvature="0"
       id="path92"
       d="m -50.25,99.875 c -3.43308,-0.0155 -6.84999,0.2373 -10.21875,1.03125 4.52272,0.24227 9.07958,0.40005 13.65625,0.0625 2.20994,-0.22092 4.44516,-0.38584 6.6875,-0.5 -3.38,-0.31659 -6.76364,-0.57854 -10.125,-0.59375 z m 10.125,0.59375 c 4.40031,0.41216 8.8074,0.86812 13.15625,0.875 2.78608,-0.27705 5.53025,-0.44277 8.28125,-0.5625 -7.08254,-0.52616 -14.30748,-0.67552 -21.4375,-0.3125 z m 21.4375,0.3125 c 3.5347,0.26259 7.05241,0.60119 10.46875,1.03125 4.16807,-0.24639 8.33872,-0.54404 12.5,-0.8125 -7.66255,-0.3309 -15.27264,-0.5537 -22.96875,-0.21875 z M 4.28125,101 c 2.76122,0.11924 5.52429,0.24288 8.3125,0.375 5.82185,0.84949 11.8462,0.46797 17.9375,-0.0625 -0.90909,-0.0398 -1.8073,-0.0715 -2.71875,-0.125 C 20.09631,100.19357 12.21056,100.48845 4.28125,101 Z m 26.25,0.3125 c 9.03384,0.39574 17.97693,0.18166 27,-0.0312 -0.25868,-0.0241 -0.52275,-0.0657 -0.78125,-0.0937 -8.66758,-1.71437 -17.50918,-0.66475 -26.21875,0.0937 z m 27,-0.0312 c 6.53583,0.60875 13.14716,-0.023 19.8125,-0.4375 -1.8944,0.007 -3.77422,0.0498 -5.65625,0.1875 -4.76447,-1.1e-4 -9.4716,0.13947 -14.15625,0.25 z m 19.8125,-0.4375 c 9.18055,-0.0348 18.46909,1.14116 27.6875,0.15625 6.35609,0.22899 12.82388,0.18041 19.34375,0.0937 -9.56583,-0.34047 -19.17373,-0.77688 -28.71875,0.15625 -6.1731,-0.99882 -12.2626,-0.78227 -18.3125,-0.40625 z m 47.03125,0.25 c 4.28363,0.15247 8.54709,0.29014 12.8125,0.28125 0.87553,-0.177 1.76241,-0.33419 2.65625,-0.46875 -5.18199,0.0128 -10.35,0.11947 -15.46875,0.1875 z m 15.46875,-0.1875 c 2.60321,-0.006 5.19961,0.0136 7.8125,0.0625 2.59286,-0.43992 5.29129,-0.64903 8.03125,-0.75 -5.43158,-0.1725 -10.77701,-0.0752 -15.84375,0.6875 z m 15.84375,-0.6875 c 7.88312,0.25034 15.95321,1.06617 23.625,1.40625 0.99379,0.005 1.97712,-0.005 2.96875,0 l 0.8125,-0.90625 c -9.02545,0.18269 -18.50764,-0.82793 -27.40625,-0.5 z m -216.15625,0.6875 c -8.76828,-0.4697 -17.43331,-1.30221 -26.03125,0.21875 8.57299,-0.20578 17.13228,-0.5544 25.78125,-0.15625 z M -86.5,101.125 c -1.97836,0.0475 -3.95731,0.0728 -5.9375,0.0937 1.0298,0.13155 2.06105,0.29251 3.09375,0.5 0.94426,-0.22842 1.89772,-0.4264 2.84375,-0.59375 z m -5.9375,0.0937 c -2.1034,-0.26869 -4.18637,-0.37063 -6.28125,-0.40625 l 0.21875,0.28125 0.125,0.125 c 1.98309,0.0246 3.95613,0.021 5.9375,0 z" />
  </g>
  <path
     style="fill:#925b03;stroke-width:0.92046469"
     inkscape:connector-curvature="0"
     id="path96"
     d="m 1.3815835,155.75827 v 6.30096 H 292.40158 v -6.30096 z" />
  <path
     style="opacity:0.3;fill:#e9b96e;stroke:#e9b96e;stroke-width:0.92046469"
     inkscape:connector-curvature="0"
     id="path98"
     d="m 288.61158,156.69873 c -1.8216,0.0184 -3.6824,0.11204 -5.5504,0.26997 -1.9772,0.10559 -3.895,0.175 -5.8587,0.25197 3.2518,-0.0171 6.4579,-0.0198 9.7131,0 1.3187,-0.0141 3.0357,-0.0291 4.7486,-0.036 v -0.44995 c -0.41271,-0.009 -0.84975,-0.0316 -1.2642,-0.036 -0.60216,-0.007 -1.1812,-0.006 -1.7884,0 z m -11.409,0.52194 c -10.387,0.0546 -20.818,0.20675 -31.36,-0.12599 -11.22,0.22199 -23.181,-0.4995 -34.32,-0.28796 9.2576,0.14028 18.74,0.64917 27.752,0.84591 12.657,0.029 25.189,0.0674 37.927,-0.43196 z m -70.582,-0.43196 c -4.5716,0.006 -9.0702,0.11285 -13.383,0.43196 3.0298,-0.004 6.0554,0.008 9.0964,0.036 2.8682,-0.23966 5.8256,-0.38737 8.8498,-0.44995 -1.5394,-0.022 -3.0398,-0.0198 -4.5636,-0.018 z m -13.383,0.43196 c -6.0704,0.007 -12.135,0.0688 -18.131,0.10799 5.0075,0.0878 10.031,0.16711 15.017,0.16198 1.0279,-0.10234 2.0648,-0.1923 3.1144,-0.26997 z m -18.131,0.10799 c -11.157,-0.19562 -22.324,-0.44598 -33.456,0.09 -7.1972,-0.57349 -14.315,-0.43169 -21.369,-0.21597 10.714,-0.0198 21.588,0.63805 32.346,0.072 7.4054,0.13139 14.883,0.10363 22.479,0.054 z m -54.825,-0.12598 c -2.2119,0.004 -4.4322,0.0288 -6.6296,0.10798 -5.5303,-5e-5 -10.997,0.0449 -16.434997,0.10799 7.608597,0.34394 15.305997,0.0213 23.064997,-0.21597 z m -23.064997,0.21597 c -0.32957,-0.0149 -0.65743,-4.3e-4 -0.98673,-0.018 -10.086,-0.98239 -20.392,-0.38176 -30.527,0.054 10.543,0.22538 20.982,0.0862 31.514,-0.036 z m -31.514,0.036 c -1.091,-0.0233 -2.1747,-0.0404 -3.2686,-0.072 -8.9815,-0.56975 -18.122,-0.4005 -27.351,-0.10799 l 9.6515,0.21597 c 6.8245,0.4904 13.827,0.27101 20.968,-0.036 z m -30.619,-0.17998 c -8.9724,-0.19125 -17.877,-0.31921 -26.8879995,-0.12599 4.1264995,0.15094 8.1916995,0.34669 12.1799995,0.59393 4.8899,-0.14235 9.8266,-0.31323 14.708,-0.46794 z M 8.1955835,157.14869 c -1.899,-0.0695 -3.819,-0.11641 -5.7354,-0.16198 v 0.32396 c 1.9174,-0.069 3.8268,-0.12106 5.7354,-0.16198 z m 20.9059995,1.74585 c -3.3329,0.0354 -6.6142,0.24868 -9.8673,0.46795 5.0506,-8.5e-4 9.9865,0.0181 13.352,0.054 3.2394,-0.0197 6.4463,-0.0166 9.6823,0 -1.9492,-0.0766 -3.8654,-0.16516 -5.8279,-0.26997 -2.4906,-0.21058 -4.9302,-0.27759 -7.3388,-0.25197 z m 13.167,0.52195 c 12.754,0.50118 25.287,0.46092 37.958,0.43194 9.0122,-0.19674 18.494,-0.70562 27.751997,-0.8459 -11.138997,-0.21153 -23.099997,0.50994 -34.319997,0.28797 -10.557,0.33324 -20.988,0.18034 -31.39,0.12599 z m -23.034,-0.054 c -6.8386,8.4e-4 -12.7799995,0.0258 -16.7739995,0.054 v 0.43194 c 5.6885,0.32186 11.2079995,-0.11078 16.7739995,-0.48594 z m 93.708997,-0.39596 c -1.53,4e-5 -3.0781,0.014 -4.6253,0.036 3.0241,0.0626 5.9816,0.21029 8.8497,0.44995 3.0568,-0.0283 6.1434,-0.0398 9.1889,-0.036 -4.3319,-0.32343 -8.8234,-0.45008 -13.413,-0.44995 z m 13.413,0.44995 c 1.0198,0.0762 2.0225,0.15248 3.0219,0.25197 5.1243,0.005 10.24,-0.0712 15.387,-0.16198 -6.1049,-0.0392 -12.226,-0.0824 -18.409,-0.09 z m 18.409,0.09 c 7.467,0.048 14.888,0.0752 22.171,-0.054 10.768,0.56659 21.591,-0.0752 32.315,-0.054 -7.0649,-0.21637 -14.191,-0.35845 -21.4,0.21597 -10.994,-0.52931 -22.067,-0.30218 -33.086,-0.10799 z m 54.486,-0.10798 c 7.7618,0.23769 15.453,0.56264 23.065,0.21597 -5.454,-0.0633 -10.95,-0.12604 -16.497,-0.12599 -2.1875,-0.0788 -4.3661,-0.0856 -6.5679,-0.09 z m 23.065,0.21597 c 10.531,0.1223 20.971,0.26243 31.514,0.036 -10.147,-0.43585 -20.46,-1.0556 -30.558,-0.072 -0.31508,0.0168 -0.64058,0.0218 -0.95589,0.036 z m 31.514,0.036 c 7.1286,0.30618 14.186,0.50757 20.999,0.018 3.2581,-0.076 6.4866,-0.12939 9.7131,-0.19798 -9.2611,-0.29442 -18.493,-0.46371 -27.505,0.10798 -1.0786,0.0312 -2.1311,0.0489 -3.2069,0.072 z m 30.712,-0.17998 7.123,0.23396 v -0.35995 c -2.3688,0.036 -4.7468,0.0755 -7.123,0.12599 z m -39.284,1.06186 c -6.1256,-0.004 -12.15,0.0867 -17.915,0.35996 3.9492,-0.003 7.9078,-0.005 11.872,0.018 3.9335,-0.21013 8.0542,-0.31174 12.211,-0.35997 -2.06,-0.0206 -4.1252,-0.0164 -6.1671,-0.018 z m 6.1671,0.018 c 11.959,0.11957 24.192,0.52149 35.831,0.68392 h 4.4094 v -0.43194 c -13.29,0.0494 -27.176,-0.40356 -40.24,-0.25198 z m -24.082,0.34196 c -7.8613,0.006 -15.67,0.0575 -23.435,0.09 6.4984,0.0729 12.955,0.13023 19.426,0.12598 1.3282,-0.0845 2.6526,-0.1517 4.0086,-0.21598 z m -23.435,0.09 c -14.512,-0.16262 -29.121,-0.37371 -43.601,0.072 -9.3648,-0.47707 -18.574,-0.37757 -27.752,-0.19797 13.927,-0.0166 28.044,0.54242 42.029,0.072 9.6424,0.10938 19.434,0.0955 29.324,0.054 z m -71.353,-0.12599 c -2.8739,0.003 -5.7171,0.0242 -8.5722,0.09 -7.2278,-5e-5 -14.385,0.0732 -21.492,0.12598 9.9151,0.29077 19.953,-0.018 30.064,-0.21597 z m -30.064,0.21597 c -0.39243,-0.0115 -0.81042,-0.0406 -1.2026,-0.054 -13.148997,-0.81884 -26.564997,-0.30822 -39.777997,0.054 13.705,0.18903 27.292,0.10164 40.979997,0 z m -40.979997,0 c -1.3791,-0.019 -2.7184,-0.0285 -4.1011,-0.054 -11.706,-0.47474 -23.678,-0.33432 -35.707,-0.09 l 12.642,0.17998 c 8.8319,0.40574 17.925,0.21736 27.166,-0.036 z m -39.808,-0.14398 c -6.4349,-0.0875 -12.8189995,-0.16056 -19.2409995,-0.17998 v 0.55794 c 0.0965,0.004 0.18113,0.0142 0.27752,0.018 6.3231,-0.11767 12.6509995,-0.26772 18.9639995,-0.39595 z m 25.593,1.11584 c -12.874,-0.008 -26.403,0.53615 -39.1609995,0.34196 -1.9073,0.0463 -3.7744,0.0607 -5.6737,0.09 v 0.46795 c 4.7392,0.002 9.4521995,-0.01 14.2149995,-0.018 11.714,-0.19675 24.044,-0.68763 36.077,-0.82791 -1.8094,-0.0264 -3.6187,-0.053 -5.4579,-0.054 z m 11.902,0.018 c -1.9811,-0.002 -3.9793,0.0141 -5.9821,0.036 3.9355,0.0625 7.7692,0.21002 11.502,0.44995 3.9567,-0.0282 7.8986,-0.0396 11.841,-0.036 -5.6098,-0.3199 -11.417,-0.44471 -17.36,-0.44995 z m 17.36,0.44995 c 1.3571,0.0774 2.7101,0.15014 4.0394,0.25197 6.4745,0.005 12.986,-0.0563 19.487997,-0.14399 -7.782697,-0.0391 -15.647997,-0.10071 -23.526997,-0.10798 z m 23.526997,0.10798 c 9.8801,0.0497 19.661,0.0775 29.294,-0.054 13.969,0.56548 28.086,-0.10841 41.998,-0.09 -9.1667,-0.21564 -18.43,-0.33941 -27.783,0.23398 -14.476,-0.53621 -29.001,-0.28566 -43.509,-0.09 z m 71.291,-0.14398 c 10.087,0.23729 20.081,0.57803 29.972,0.23398 -7.0638,-0.0631 -14.154,-0.12605 -21.338,-0.12599 -2.8708,-0.0796 -5.7441,-0.10417 -8.6339,-0.10799 z m 29.972,0.23398 c 13.693,0.12228 27.273,0.24342 40.98,0.018 -13.168,-0.43571 -26.613,-1.03594 -39.716,-0.054 -0.42767,0.0175 -0.83624,0.0211 -1.2642,0.036 z m 40.98,0.018 c 9.2886,0.30736 18.474,0.52676 27.351,0.036 4.2297,-0.0759 8.3921,-0.12944 12.581,-0.19798 -12.033,-0.29423 -23.998,-0.4815 -35.707,0.09 -1.4226,0.0316 -2.8057,0.0486 -4.2244,0.072 z m 39.932,-0.16199 9.4048,0.23398 v -0.35996 c -3.1291,0.0365 -6.2639,0.0746 -9.4048,0.12598 z" />
  <g
     id="g112"
     transform="matrix(1,0,0,0.84725523,207.67158,-123.77664)">
    <path
       style="opacity:0.30612003"
       inkscape:connector-curvature="0"
       id="path102"
       d="m -134.84,314.78 c 0.26783,0.8991 0.40625,1.8382 0.40625,2.7982 0,5.3634 -4.419,3.7888 -10.656,5.6512 v 1.3442 c 0,1.0957 1.0246,1.9953 2.4688,2.3318 0.0803,1.248 1.2138,2.2495 2.6562,2.2495 h 45.312 c 1.412,0 2.5642,-0.95676 2.6875,-2.1672 0.20457,-0.0323 0.4041,-0.0829 0.59375,-0.13717 1.3208,-0.37801 2.25,-1.2412 2.25,-2.277 v -0.90529 c -0.8933,-0.18401 -1.7661,-0.31993 -2.5938,-0.43893 -1.6552,-0.238 -3.155,-0.3968 -4.4688,-0.60353 -3.2843,-0.51684 -6.5812,-0.3291 -6.5812,-3.987 0,-0.72002 0.59683,-2.4865 1.4562,-3.173 0.18313,-0.1463 0.12054,-0.46105 0.1875,-0.68583 h -33.719 z" />
    <path
       inkscape:connector-curvature="0"
       style="fill:url(#b)"
       id="path104"
       d="m -827.45,775.91 h 373.16 a 13.82,13.82 0 0 1 13.82,13.82 v 1.1517 a 13.82,13.82 0 0 1 -13.82,13.82 h -373.16 a 13.82,13.82 0 0 1 -13.82,-13.82 V 789.73 a 13.82,13.82 0 0 1 13.82,-13.82"
       transform="matrix(0.12651,0,0,0.19524,-42.486,172.29)" />
    <g
       id="g110"
       transform="matrix(0.12651,0,0,0.09762,-41.474,256.35)">
      <path
         style="fill:#e9b96e"
         inkscape:connector-curvature="0"
         id="path106"
         d="m -787.58,580.54 c 2.1172,10.492 3.2206,21.371 3.2206,32.574 0,62.586 -34.902,44.434 -84.205,66.166 v 15.473 c 0,16.116 12.948,29.113 29.063,29.113 h 384.27 c 16.115,0 29.063,-12.998 29.063,-29.113 V 684.37 c -56.49,-17.178 -98.03,-2.96 -98.03,-71.256 0,-11.203 1.1034,-22.082 3.2205,-32.574 h -266.6 z" />
      <path
         inkscape:connector-curvature="0"
         style="fill:url(#a)"
         id="path108"
         d="m -787.58,580.54 c 2.1172,10.492 3.2206,21.371 3.2206,32.574 0,62.586 -34.902,44.434 -84.205,66.166 v 15.473 c 0,16.116 12.948,29.113 29.063,29.113 h 384.27 c 16.115,0 29.063,-12.998 29.063,-29.113 V 684.37 c -56.49,-17.178 -98.03,-2.96 -98.03,-71.256 0,-11.203 1.1034,-22.082 3.2205,-32.574 h -266.6 z" />
    </g>
  </g>
  <path
     style="opacity:0.5;stroke-width:0.92046469"
     inkscape:connector-curvature="0"
     id="path114"
     d="m 33.765333,143.13523 -1.40625,0.0264 h -2.875 l 0.1875,3.28311 0.0625,2.54176 h -0.3125 v 2.59472 h 0.375 v 0.13239 l -3.03125,0.0529 v 3.36255 h 3.125 v 0.34419 h 3.96875 v -0.34419 h 9.71875 v -0.0794 h 0.03125 l -0.03125,-1.19146 v -2.17109 l 9.15625,3.54788 0.03125,-0.0794 0.0625,0.0264 0.75,-1.4827 1,-1.85337 -4.15625,-1.40326 -4.1875,-1.56213 v -0.15886 h -0.40625 l -6.71875,-2.48881 -1.4375,2.67415 -3.8125,0.0264 v -5.77192 h -0.09375 z m 0.21875,8.44608 h 5.125 l -5.125,0.0794 z" />
  <path
     style="fill:#e5e5e5;stroke-width:0.92046469"
     inkscape:connector-curvature="0"
     id="path116"
     d="m 26.428583,149.19205 12.333,-0.13005 4.4757,-0.13005 v 2.86109 h -16.809 v -2.60098 z" />
  <path
     style="fill:#e5e5e5;stroke-width:0.92046469"
     inkscape:connector-curvature="0"
     id="path118"
     d="m 29.624583,149.83596 1.2063,0.13444 0.19629,1.99825 -1.3728,-0.54019 -0.02982,-1.5925 z" />
  <g
     id="g130"
     transform="matrix(0,-0.29109148,0.39784,0,-71.038417,133.3399)">
    <path
       style="fill:#ffffff"
       inkscape:connector-curvature="0"
       id="path120"
       d="m -76.75,246.11 31,-0.5 11.25,-0.5 v 11 h -42.25 z" />
    <path
       style="fill:#e5e5e5"
       inkscape:connector-curvature="0"
       id="path122"
       d="m -44.25,246.61 1.75,2.5 -3.5,3.75 -1.25,-3.5 z" />
    <path
       style="fill:#e5e5e5"
       inkscape:connector-curvature="0"
       id="path124"
       d="m -58.053,247.7 3.0322,0.51686 0.4934,7.6824 -3.4507,-2.0768 -0.07495,-6.1225 z" />
    <path
       style="fill:#e5e5e5"
       inkscape:connector-curvature="0"
       id="path126"
       d="m -37.678,247.32 3.0322,-2.1081 0.2434,10.682 -3.8257,-0.82684 0.55005,-7.7475 z" />
    <path
       style="fill:#e5e5e5"
       inkscape:connector-curvature="0"
       id="path128"
       d="m -66.745,246.3 1.9505,2.3784 -4.6648,6.124 -1.2436,-3.8307 3.9578,-4.6718 z" />
  </g>
  <g
     id="g142"
     transform="matrix(0.36173,0.14031394,-0.16561,0.30647763,104.63845,81.792892)">
    <path
       style="fill:#ffffff"
       inkscape:connector-curvature="0"
       id="path132"
       d="m -76.75,246.11 31,-0.5 11.25,-0.5 v 11 h -42.25 z" />
    <path
       style="fill:#e5e5e5"
       inkscape:connector-curvature="0"
       id="path134"
       d="m -44.318,248.6 1.75,2.5 -3.5,3.75 -1.25,-3.5 z" />
    <path
       style="fill:#e5e5e5"
       inkscape:connector-curvature="0"
       id="path136"
       d="m -58.053,247.7 3.0322,0.51686 0.4934,7.6824 -3.4507,-2.0768 -0.07495,-6.1225 z" />
    <path
       style="fill:#e5e5e5"
       inkscape:connector-curvature="0"
       id="path138"
       d="m -37.678,247.32 3.0322,-2.1081 0.2434,10.682 -3.8257,-0.82684 0.55005,-7.7475 z" />
    <path
       style="fill:#e5e5e5"
       inkscape:connector-curvature="0"
       id="path140"
       d="m -61.484,245.85 2.2768,2.2291 -7.4928,7.4188 -1.0504,-3.9191 6.2665,-5.7288 z" />
  </g>
  <g
     id="g154"
     transform="matrix(0.39784,0,0,0.33707202,54.311583,69.007814)">
    <path
       style="fill:#ffffff"
       inkscape:connector-curvature="0"
       id="path144"
       d="m -76.75,246.11 31,-0.5 11.25,-0.5 v 11 h -42.25 z" />
    <path
       style="fill:#e5e5e5"
       inkscape:connector-curvature="0"
       id="path146"
       d="m -44.25,246.61 1.75,2.5 -3.5,3.75 -1.25,-3.5 z" />
    <path
       style="fill:#e5e5e5"
       inkscape:connector-curvature="0"
       id="path148"
       d="m -58.053,247.7 3.0322,0.51686 0.4934,7.6824 -3.4507,-2.0768 -0.07495,-6.1225 z" />
    <path
       style="fill:#e5e5e5"
       inkscape:connector-curvature="0"
       id="path150"
       d="m -37.678,247.32 3.0322,-2.1081 0.2434,10.682 -3.8257,-0.82684 0.55005,-7.7475 z" />
    <path
       style="fill:#e5e5e5"
       inkscape:connector-curvature="0"
       id="path152"
       d="m -66.745,246.3 1.9505,2.3784 -4.6648,6.124 -1.2436,-3.8307 3.9578,-4.6718 z" />
  </g>
  <text
     xml:space="preserve"
     style="font-style:normal;font-variant:normal;font-weight:normal;font-stretch:normal;font-size:29.33333397px;line-height:138.99999857%;font-family:sans-serif;-inkscape-font-specification:sans-serif;text-align:center;letter-spacing:1px;word-spacing:2px;writing-mode:lr-tb;text-anchor:middle;fill:#000000;fill-opacity:1;stroke:none;stroke-width:1px;stroke-linecap:butt;stroke-linejoin:miter;stroke-opacity:1"
     x="147.05162"
     y="65.63768"
     id="text1054"><tspan
       sodipodi:role="line"
       id="tspan1052"
       x="147.55162"
       y="65.63768"
       style="font-style:normal;font-variant:normal;font-weight:normal;font-stretch:normal;font-size:29.33333397px;line-height:138.99999857%;font-family:'Sheila Crayon';-inkscape-font-specification:'Sheila Crayon';letter-spacing:1px;word-spacing:2px;fill:#ffa89f;fill-opacity:1">Communicating</tspan><tspan
       sodipodi:role="line"
       x="147.55162"
       y="106.69747"
       id="tspan1056"
       style="font-style:normal;font-variant:normal;font-weight:normal;font-stretch:normal;font-size:29.33333397px;line-height:138.99999857%;font-family:'Sheila Crayon';-inkscape-font-specification:'Sheila Crayon';letter-spacing:1px;word-spacing:2px;fill:#e8e6fb;fill-opacity:1">Computer Science</tspan></text>
</svg>
