<?xml version="1.0" standalone="no"?>
<!DOCTYPE svg PUBLIC "-//W3C//DTD SVG 1.1//EN" "http://www.w3.org/Graphics/SVG/1.1/DTD/svg11.dtd" >
<svg xmlns="http://www.w3.org/2000/svg">
<metadata></metadata>
<defs>
<font id="epigraficabold" horiz-adv-x="1191" >
<font-face units-per-em="2048" ascent="1638" descent="-410" />
<missing-glyph horiz-adv-x="552" />
<glyph unicode="L&#xb7;" horiz-adv-x="958" d="M135 0q27 248 27 686q0 387 -27 688l184 -6l199 6q-20 -219 -20 -463v-475l4 -252q2 -10 2 -18q221 0 440 24q-6 -49 -6 -96q0 -2 6 -94q-293 10 -530 10zM364 700q0 100 86 150q41 24 90 24q84 0 142 -75q33 -45 33 -97q0 -82 -76 -141l-43 -24l-47 -11h-9 q-106 0 -155 90q-20 39 -21 84z" />
<glyph unicode="l&#xb7;" horiz-adv-x="1153" d="M127 0q18 446 18 739q0 84 -10 504l-8 266q133 -14 170 -14q39 0 168 14q-18 -383 -19 -770q0 -240 7 -473l12 -266q-129 14 -168 14q-37 0 -170 -14zM700 700q0 100 86 150q41 24 90 24q84 0 142 -75q33 -45 33 -97q0 -82 -76 -141l-43 -24l-47 -11h-9q-106 0 -155 90 q-20 39 -21 84z" />
<glyph unicode="&#x2e;&#x2e;&#x2e;" horiz-adv-x="1683" d="M137 127q0 90 80 131q33 18 72 18q74 0 123 -67l20 -41l6 -39q0 -70 -63 -119q-41 -33 -86 -33q-94 0 -135 82q-16 31 -17 68zM696 133q0 90 80 131q33 19 72 19q74 0 123 -70l20 -39l6 -39q0 -74 -67 -123q-39 -27 -82 -28q-94 0 -135 79q-16 33 -17 70zM1247 133 q0 90 80 131q33 19 72 19q74 0 123 -70l20 -39l6 -39q0 -74 -67 -123l-41 -20l-41 -8q-94 0 -135 79q-16 33 -17 70z" />
<glyph unicode="&#xfb00;" horiz-adv-x="1210" d="M12 858q2 20 2 60q0 41 -2 63q59 -10 144 -10q0 184 108 350q123 188 299 188q66 -4 121 -20q-33 -113 -66 -270h-10q-80 70 -149 69q-115 0 -115 -90q0 -57 80 -190l20 -37l146 -10h12v4q6 -2 12 -2q8 0 15 2v6q2 -4 4 -6h-4v-4q10 -2 92 8q14 2 24 2q0 184 109 350 q123 188 299 188q66 -4 121 -20q-33 -113 -66 -270h-10q-80 70 -149 69q-115 0 -115 -90q0 -57 80 -190l20 -37q106 0 185 10h4q-2 4 -4 6v-6v-35q0 -74 2 -90q0 -6 2 -6v6h-2l-103 4l-74 -2h-2v-455q2 -164 25 -403q-143 10 -168 10l-172 -10q18 152 18 403v455l-71 8 l-43 8v-4h2v-6q-2 0 -2 6l-103 -6l-73 -6h-2v-455q2 -164 24 -403q-143 10 -168 10l-172 -10q18 152 19 403v455q-45 4 -72 4q-23 0 -72 -4z" />
<glyph unicode="fi" horiz-adv-x="1280" d="M12 858q2 20 2 60q0 41 -2 63q59 -10 144 -10q0 184 108 350q123 188 299 188q66 -4 121 -20q-33 -113 -66 -270h-10q-80 70 -149 69q-115 0 -115 -90q0 -57 80 -190l20 -37q109 0 189 10q-2 4 -4 6v-41q0 -96 4 -96v6q-70 4 -105 4l-73 -2h-2v-455q2 -164 24 -403 q-143 10 -168 10l-172 -10q18 152 19 403v455q-45 4 -72 4q-23 0 -72 -4zM815 983q115 -12 172 -12q59 0 174 12q-12 -90 -18 -178l-2 -332v-2q0 -293 18 -471q-172 6 -174 6t-168 -6q14 110 14 188v613q-4 68 -16 182zM823 1331q0 88 80 139q41 25 84 25q92 0 141 -82 q23 -39 23 -82q0 -90 -82 -139q-39 -23 -82 -23q-92 0 -141 80q-23 39 -23 82z" />
<glyph unicode="fl" horiz-adv-x="1294" d="M12 858q2 20 2 60q0 41 -2 63q59 -10 144 -10q0 184 108 350q123 188 299 188q66 -4 121 -20q-33 -113 -66 -270h-10q-80 70 -149 69q-115 0 -115 -90q0 -57 80 -190l20 -37q109 0 189 10q-2 4 -4 6v-41q0 -96 4 -96v6q-70 4 -105 4l-73 -2h-2v-455q2 -164 24 -403 q-143 10 -168 10l-172 -10q18 152 19 403v455q-45 4 -72 4q-23 0 -72 -4zM821 0q19 446 19 739q0 84 -11 504l-8 266q133 -14 170 -14q39 0 168 14q-18 -383 -18 -770q0 -240 6 -473l12 -266q-129 14 -168 14q-37 0 -170 -14z" />
<glyph unicode="&#xfb03;" horiz-adv-x="1869" d="M12 858q2 20 2 60q0 41 -2 63q59 -10 144 -10q0 184 108 350q123 188 299 188q66 -4 121 -20q-33 -113 -66 -270h-10q-80 70 -149 69q-115 0 -115 -90q0 -57 80 -190l20 -37l146 -10h12v4q6 -2 12 -2q8 0 15 2v6q2 -4 4 -6h-4v-4q10 -2 92 8q14 2 24 2q0 184 109 350 q123 188 299 188q66 -4 121 -20q-33 -113 -66 -270h-10q-80 70 -149 69q-115 0 -115 -90q0 -57 80 -190l20 -37q106 0 185 10h4q-2 4 -4 6v-6v-35q0 -74 2 -90q0 -6 2 -6v6h-2l-103 4l-74 -2h-2v-455q2 -164 25 -403q-143 10 -168 10l-172 -10q18 152 18 403v455l-71 8 l-43 8v-4h2v-6q-2 0 -2 6l-103 -6l-73 -6h-2v-455q2 -164 24 -403q-143 10 -168 10l-172 -10q18 152 19 403v455q-45 4 -72 4q-23 0 -72 -4zM1405 983q115 -12 172 -12q59 0 174 12q-12 -90 -18 -178l-2 -332v-2q0 -293 18 -471q-172 6 -174 6t-168 -6q14 110 14 188v613 q-4 68 -16 182zM1413 1331q0 88 80 139q41 25 84 25q92 0 141 -82q23 -39 23 -82q0 -90 -82 -139q-39 -23 -82 -23q-92 0 -141 80q-23 39 -23 82z" />
<glyph unicode="&#xfb04;" horiz-adv-x="1882" d="M12 858q2 20 2 60q0 41 -2 63q59 -10 144 -10q0 184 108 350q123 188 299 188q66 -4 121 -20q-33 -113 -66 -270h-10q-80 70 -149 69q-115 0 -115 -90q0 -57 80 -190l20 -37l146 -10h12v4q6 -2 12 -2q8 0 15 2v6q2 -4 4 -6h-4v-4q10 -2 92 8q14 2 24 2q0 184 109 350 q123 188 299 188q66 -4 121 -20q-33 -113 -66 -270h-10q-80 70 -149 69q-115 0 -115 -90q0 -57 80 -190l20 -37q106 0 185 10h4q-2 4 -4 6v-6v-35q0 -74 2 -90q0 -6 2 -6v6h-2l-103 4l-74 -2h-2v-455q2 -164 25 -403q-143 10 -168 10l-172 -10q18 152 18 403v455l-71 8 l-43 8v-4h2v-6q-2 0 -2 6l-103 -6l-73 -6h-2v-455q2 -164 24 -403q-143 10 -168 10l-172 -10q18 152 19 403v455q-45 4 -72 4q-23 0 -72 -4zM1409 0q18 446 18 739q0 84 -10 504l-8 266q133 -14 170 -14q39 0 168 14q-18 -383 -18 -770q0 -240 6 -473l12 -266 q-129 14 -168 14q-37 0 -170 -14z" />
<glyph unicode=" "  horiz-adv-x="552" />
<glyph unicode="&#x09;" horiz-adv-x="552" />
<glyph unicode="&#xa0;" horiz-adv-x="552" />
<glyph unicode="!" horiz-adv-x="655" d="M152 152q0 96 84 147q43 27 92 27q96 0 149 -84l19 -45q6 -20 6 -43q0 -96 -84 -150q-41 -27 -90 -27q-100 0 -152 86q-25 41 -24 89zM166 1206q0 121 84 172q35 20 80 21q123 0 153 -107l9 -43q0 -94 -41 -323l-43 -244q-25 -137 -35 -246h-88q-8 76 -76 453 q-35 188 -43 317z" />
<glyph unicode="&#x22;" horiz-adv-x="665" d="M78 864v549h188v-549h-188zM399 864v549h189v-549h-189z" />
<glyph unicode="#" horiz-adv-x="1546" d="M45 399l72 197h280l84 235h-293l70 199h295l143 408h217l-143 -408h240l143 408h219l-145 -408h276l-71 -199h-277l-84 -235h287l-70 -197h-287l-145 -407h-217l143 407h-239l-144 -407h-219l146 407h-281zM610 594h248l84 237h-248z" />
<glyph unicode="$" horiz-adv-x="1103" d="M63 117q49 127 91 258h34q53 -182 199 -238q47 -18 100 -20v422q-317 86 -391 254q-25 59 -24 127q0 219 198 327q96 51 217 64q0 90 -12 178q23 -6 72 -10q47 4 67 10q-10 -74 -10 -174q252 -33 371 -101q-53 -115 -90 -233h-45q-47 182 -238 223v-387q279 -72 369 -201 l30 -55l19 -67l6 -68q0 -225 -195 -346q-100 -63 -229 -80q-2 -31 -2 -92q4 -74 10 -109q-45 4 -65 4q-25 0 -66 -4q8 66 8 201q-231 0 -424 117zM307 1012q0 -90 119 -142q31 -14 61 -20v354q-109 -8 -157 -102q-23 -43 -23 -90zM596 115q152 31 184 145q6 24 6 53 q0 145 -190 199v-397z" />
<glyph unicode="%" horiz-adv-x="1654" d="M41 987q0 201 145 297q88 57 205 57q190 0 287 -143q59 -88 59 -207q0 -221 -164 -311l-65 -27q-59 -18 -127 -18q-193 0 -287 149q-53 88 -53 203zM272 -186l953 1683h127l-951 -1683h-129zM276 987q1 -80 13 -160q4 -82 57 -112q18 -10 39 -10q57 0 84 51q2 6 4 10 q27 70 27 221q0 94 -11 158q-12 104 -79 123l-21 2q-61 0 -88 -60q-25 -86 -25 -223zM903 328q0 223 164 311q80 43 186 43q211 0 299 -154q47 -80 47 -188q0 -233 -167 -322l-66 -26q-55 -14 -119 -15q-193 0 -289 148q-55 86 -55 203zM1139 328q0 -74 10 -162 q6 -82 63 -113q16 -8 37 -8q55 0 88 74q12 27 15 49q8 72 8 160q0 90 -8 157q-25 115 -101 125q-63 0 -84 -57q-29 -72 -28 -225z" />
<glyph unicode="&#x26;" horiz-adv-x="1435" d="M74 317q0 242 256 383q39 23 84 41q-104 123 -129 273q-4 29 -4 53q0 184 178 266q90 41 200 41q195 0 283 -108q49 -59 49 -144q0 -188 -227 -307l-35 -16q145 -190 318 -363q121 156 200 402q33 -63 131 -154q-131 -215 -256 -340q154 -182 277 -305v-37 q-106 10 -193 10q-90 0 -188 -10l-115 133q-211 -162 -436 -162q-197 0 -309 123q-84 90 -84 221zM342 420q0 -125 107 -209q70 -53 153 -55q102 0 227 73q-225 260 -342 424q-145 -100 -145 -233zM539 1135q0 -102 123 -254q145 98 145 239q0 106 -84 140q-25 8 -53 8 q-27 0 -52 -8q-63 -12 -77 -99z" />
<glyph unicode="'" horiz-adv-x="552" d="M106 780l119 471q16 94 84 133q25 14 53 15q84 0 121 -70q14 -27 15 -59q-4 -53 -33 -94l-299 -420z" />
<glyph unicode="(" horiz-adv-x="661" d="M135 539q0 463 344 811q25 25 51 49l66 -64q-207 -276 -223 -628q0 10 -2 -25l-2 -123q0 -145 4 -149q12 -340 221 -643l-68 -64q-391 362 -391 836z" />
<glyph unicode=")" horiz-adv-x="661" d="M106 -233q230 299 230 774q0 481 -223 794l65 64q350 -322 383 -740l4 -96q0 -408 -246 -704l-88 -97q-29 -31 -61 -59z" />
<glyph unicode="*" horiz-adv-x="1007" d="M135 936q219 70 285 94q-127 55 -285 98q51 76 94 168l230 -190l-17 86l-34 207q33 -2 94 -2q66 0 98 2l-55 -299l231 196q41 -84 92 -168q-133 -41 -280 -98q76 -31 280 -94q-43 -72 -92 -168l-229 190q39 -246 51 -305q-66 4 -98 4q-29 0 -94 -4q39 221 53 305 l-230 -190q-51 100 -94 168z" />
<glyph unicode="+" horiz-adv-x="1677" d="M250 502v196h489v500h199v-500h489v-196h-489v-502h-199v502h-489z" />
<glyph unicode="," horiz-adv-x="552" d="M37 -352l125 530q27 125 108 162q25 10 52 10q88 0 131 -78l16 -43l2 -28q0 -47 -37 -107l-342 -469z" />
<glyph unicode="-" horiz-adv-x="659" d="M88 365l10 129l-10 129h483q-8 -92 -10 -131q2 -39 10 -127h-483z" />
<glyph unicode="." horiz-adv-x="552" d="M100 152q0 100 86 149q41 25 90 25q84 0 142 -76l22 -43l11 -47v-6q0 -82 -76 -142l-43 -24l-47 -11h-9q-106 0 -155 91q-20 39 -21 84z" />
<glyph unicode="/" horiz-adv-x="565" d="M-49 -186l549 1695h118l-548 -1695h-119z" />
<glyph unicode="0" horiz-adv-x="1103" d="M51 643q0 698 506 698q371 0 459 -360q31 -131 31 -328q0 -565 -340 -661l-93 -17l-71 -4q-389 0 -469 396q-23 117 -23 276zM383 659q0 -197 12 -331q18 -180 86 -226q31 -20 72 -20q135 0 152 244q2 -18 6 106q4 123 4 244q0 291 -10 305q-10 225 -134 244l-20 2 q-139 0 -156 -228q2 45 -6 -116q-6 -77 -6 -224z" />
<glyph unicode="1" horiz-adv-x="1103" d="M82 1112q348 139 614 274l39 -18q-4 -233 -8 -700v16v-385v18q2 -104 14 -317q-53 4 -176 8q-61 0 -176 -8q16 217 19 829v80q0 61 -9 193q-104 -45 -233 -119z" />
<glyph unicode="2" horiz-adv-x="1103" d="M49 111q295 229 422 393q176 225 176 459q0 227 -139 247q-12 2 -27 2q-150 0 -209 -213l-20 -90h-23q-70 111 -163 187q190 248 485 247q242 0 362 -141q80 -92 80 -231q0 -227 -241 -441q-37 -35 -248 -196q-31 -25 -55 -45l182 -2h4l178 2h4l225 8q-25 -78 -24 -158 q0 -49 24 -139q-416 10 -481 10l-495 -10z" />
<glyph unicode="3" horiz-adv-x="1103" d="M45 86q104 176 158 283h24q8 -293 205 -293q156 0 205 168q16 55 16 118q0 190 -145 246l-62 17q-23 2 -45 2q-39 0 -59 -2v120q18 -2 55 -2q166 0 226 129q25 51 24 117q0 170 -104 221q-35 18 -80 19q-143 0 -182 -178l-11 -86v-15l-18 -14q-49 63 -189 197 q146 206 476 206q215 0 329 -116q80 -82 80 -203q0 -190 -243 -291q-14 -6 -31 -12v-15q223 -29 299 -180q31 -61 31 -137q0 -248 -240 -356l-90 -33q-96 -27 -203 -27q-242 0 -426 117z" />
<glyph unicode="4" horiz-adv-x="1103" d="M63 311l3 123v2l-3 121v2q213 305 517 780q72 -8 159 -8q86 0 154 8q-16 -254 -16 -553v-241q52 2 167 18q-8 -82 -10 -123q0 -23 10 -129q-86 12 -172 13v-66q0 -152 21 -258l-160 10q-29 0 -166 -10q16 145 17 324l-125 2h-2q-164 0 -394 -15zM209 545h373v563z" />
<glyph unicode="5" horiz-adv-x="1103" d="M68 47q84 160 122 303h31q14 -174 78 -227q45 -35 119 -35q158 0 207 174q14 55 14 119q0 184 -92 252q-41 31 -94 31q-102 0 -183 -91l-96 52q18 90 19 270q0 238 -33 399l14 15q188 -14 397 -15q195 0 365 15q-6 -72 -6 -140q0 -80 8 -143q-240 18 -399 18 q-63 0 -207 -4q-14 -113 -19 -301q131 63 275 64q205 0 319 -135q80 -94 80 -228q0 -299 -270 -413q-131 -57 -303 -58q-193 0 -328 68q-10 4 -18 10z" />
<glyph unicode="6" horiz-adv-x="1103" d="M59 535q0 354 185 581q184 227 495 227q109 0 250 -47q-23 -117 -26 -192l-13 -2q-96 115 -209 115q-221 0 -301 -275q-31 -111 -30 -242q92 105 274 105q205 0 307 -152l33 -59l25 -72l8 -82v-8q0 -254 -185 -381l-69 -37q-96 -43 -215 -43q-319 0 -453 242 q-76 133 -76 322zM414 379q0 -303 151 -303q158 0 158 301q0 285 -156 285q-150 -20 -153 -283z" />
<glyph unicode="7" horiz-adv-x="1103" d="M141 27q232 284 351 479l317 510l-324 12q-2 0 -340 -12q10 78 11 145q0 25 -11 148q221 -6 447 -6q252 0 502 6l26 -56q-395 -586 -659 -1253q-49 2 -142 2q-111 0 -163 -2z" />
<glyph unicode="8" horiz-adv-x="1103" d="M51 367q0 197 160 303q61 39 137 57v14q-141 29 -207 148q-35 61 -35 129q0 209 236 289q102 33 223 32q231 0 348 -116q78 -78 78 -195q0 -205 -217 -280q-10 -4 -18 -7v-14q188 -45 260 -190l22 -64l11 -72v-8q0 -238 -215 -352q-131 -72 -302 -72q-223 0 -364 129 q-117 106 -117 269zM379 379q0 -297 168 -297q160 0 174 258q2 20 2 43q0 248 -121 285l-41 6q-133 0 -172 -191q-10 -51 -10 -104zM391 1008q0 -139 76 -201q37 -29 86 -29q145 0 158 203v29q0 205 -131 221q-10 2 -23 2q-147 0 -164 -184q-2 -20 -2 -41z" />
<glyph unicode="9" horiz-adv-x="1103" d="M45 887q0 254 195 379q121 78 290 77q346 0 461 -296q49 -123 49 -287q0 -342 -184 -565q-186 -225 -496 -226q-100 0 -249 45q25 102 26 193l15 4q84 -111 208 -117q219 0 297 273q33 113 33 243q-88 -104 -274 -104q-209 0 -310 158q-61 94 -61 223zM379 932 q-1 -283 151 -283q154 10 156 281q0 305 -154 305q-150 0 -153 -266v-37z" />
<glyph unicode=":" horiz-adv-x="659" d="M156 152q0 94 84 147q43 27 90 27q94 0 147 -82q29 -43 29 -92q0 -96 -86 -148q-43 -27 -90 -27q-100 0 -152 86q-23 41 -22 89zM156 788q0 96 84 150q43 27 90 27q94 0 147 -84q29 -45 29 -95q0 -94 -86 -145q-43 -27 -90 -27q-100 0 -152 86q-23 41 -22 88z" />
<glyph unicode=";" horiz-adv-x="659" d="M76 -352l123 530q33 145 129 168q16 4 32 4q84 0 127 -76l17 -43q2 -14 2 -28q0 -53 -35 -109l-340 -469zM160 788q4 100 88 152q41 25 86 25q96 0 149 -84l23 -45q6 -23 6 -48q0 -92 -82 -145l-47 -22l-47 -7q-104 0 -154 88q-23 39 -22 86z" />
<glyph unicode="&#x3c;" horiz-adv-x="1677" d="M258 502v194l1157 478v-216l-878 -358l878 -358v-215z" />
<glyph unicode="=" horiz-adv-x="1677" d="M250 289v196h1177v-196h-1177zM250 715v192h1177v-192h-1177z" />
<glyph unicode="&#x3e;" horiz-adv-x="1677" d="M258 27v215l881 358l-881 358v216l1159 -478v-194z" />
<glyph unicode="?" horiz-adv-x="880" d="M137 1315q131 84 297 84q186 0 291 -123q70 -82 70 -199q0 -119 -127 -231l-127 -109l-39 -47q-31 -43 -31 -90q0 -74 78 -84q10 -2 20 -2q25 0 93 14l-23 -102q-57 -20 -139 -20q-133 0 -226 104q-66 74 -65 168q0 98 108 205q104 102 105 102q72 80 72 162 q0 76 -66 113q-27 14 -55 14q-104 0 -176 -98q-12 -16 -21 -33l-26 4q0 98 -13 168zM258 152q0 84 78 141q47 33 100 33q84 0 142 -76l22 -43l10 -47v-6q0 -84 -75 -142l-43 -24l-48 -11h-8q-102 0 -153 86q-25 39 -25 89z" />
<glyph unicode="@" horiz-adv-x="2013" d="M88 514q0 369 262 637q242 244 592 295q74 10 150 10q319 0 555 -174q270 -215 278 -537q0 -236 -147 -423q-178 -209 -420 -216h-37q-90 0 -127 46q-33 39 -47 114q-115 -160 -289 -160q-231 0 -299 189q-25 63 -24 145q0 203 131 371q143 180 344 180q135 0 235 -127 l49 99h179l-148 -588l-6 -37q0 -57 72 -70q10 -2 22 -2q156 0 258 199q74 141 74 278q0 264 -225 422q-164 115 -381 127q-356 0 -600 -196q-61 -51 -111 -111l-55 -78l-45 -88l-33 -98l-21 -109q-4 -45 -4 -92q0 -348 267 -532q199 -135 481 -135q262 0 514 135 q41 25 80 49l76 -113q-293 -225 -670 -225q-373 0 -633 201q-291 240 -297 614zM745 434q0 -98 68 -153q37 -31 82 -31q139 0 215 145q20 39 31 80l53 213q-10 111 -100 150q-33 14 -70 14q-160 0 -238 -201l-26 -92l-15 -100v-25z" />
<glyph unicode="A" horiz-adv-x="1222" d="M-43 0l205 475q102 240 356 924q51 -6 102.5 -6t102.5 6q313 -881 530 -1399l-196 6l-201 -6l-43 135l-80 248q-96 6 -291 6l-143 -6q-59 -184 -133 -383q-63 6 -133 6l-72 -6h-4zM358 547q106 -4 164 -4q51 0 162 4q-55 182 -160 430q-90 -211 -166 -430z" />
<glyph unicode="B" horiz-adv-x="1202" d="M135 0q25 241 25 307l2 377v2q0 438 -27 688q156 -4 236 -4l243 4h2q492 0 492 -327q0 -188 -178 -267l-78 -26q-25 -4 -51 -9v-18q195 -10 286 -147l31 -58q20 -51 23 -112q0 -264 -240 -365l-88 -27q-78 -18 -166 -18q-139 0 -276 6q-156 0 -236 -6zM485 797 q197 0 258 127q23 47 23 106q0 150 -119 199l-57 14q-16 2 -35 2q-31 0 -57 -6q-12 -109 -13 -225v-217zM489 408q0 -131 7 -273l67 -6q139 0 197 131q24 53 24 116v5q0 160 -110 235l-51 25l-60 14q-14 2 -31 2q-31 0 -43 -2v-247z" />
<glyph unicode="C" horiz-adv-x="1327" d="M63 684q0 362 263 559q207 156 514 156q203 0 475 -107q-47 -141 -68 -245h-28q-70 178 -279 208l-74 7q-258 0 -377 -240l-34 -86l-25 -102l-10 -113v-14q0 -268 131 -435q118 -151 310 -151h3q248 0 375 139q12 12 23 27l32 -15q-27 -88 -47 -204q-168 -94 -428 -95 q-385 0 -592 234q-164 184 -164 477z" />
<glyph unicode="D" horiz-adv-x="1521" d="M131 -2q23 244 23 328l2 358v2q0 436 -25 688q94 -6 188 -6q63 0 99 2l235 4q176 0 267 -6q401 -39 505 -389l23 -107q10 -68 10 -141q0 -522 -416 -668l-116 -32l-146 -23l-180 -10h-22l-279 4q-53 0 -168 -4zM489 891q0 -246 5 -741q67 -15 120 -15q352 0 447 324 q31 102 31 233q0 375 -211 488q-109 57 -277 57q-39 0 -108 -4z" />
<glyph unicode="E" horiz-adv-x="1036" d="M135 0q25 217 25 328l2 356v2q0 387 -27 688q131 -4 393 -8l424 8q-8 -57 -8 -88t8 -92q-225 16 -338 16l-110 -2h-2q-6 -203 -6 -403q147 4 442 16q-8 -61 -8 -92q0 -49 6 -94q-262 18 -440 18v-217q0 -154 8 -270q221 0 440 24q-6 -49 -6 -96q0 -2 6 -94 q-293 10 -530 10z" />
<glyph unicode="F" horiz-adv-x="1011" d="M135 0q27 248 27 686q0 387 -27 688q131 -4 393 -8l424 8q-8 -55 -10 -88q4 -61 10 -92q-229 16 -336 16l-110 -2h-2q-8 -154 -8 -403q141 4 440 16q-6 -47 -6 -92q0 -49 6 -94q-262 18 -438 18v-305q4 -250 18 -348q-127 4 -190.5 4t-190.5 -4z" />
<glyph unicode="G" horiz-adv-x="1497" d="M63 680q0 377 275 575q211 152 522 152q283 0 510 -131q-49 -119 -74 -248h-24q-117 205 -332 236l-61 4q-223 0 -353 -199l-43 -78l-30 -90l-19 -90q0 -16 -10 -119q0 -115 10 -139q31 -238 197 -356q104 -74 241 -74q90 0 181 24q0 254 -21 488q61 -6 185 -10 q123 4 182 12q-16 -285 -17 -322q0 -137 9 -245q-308 -93 -576 -93q-379 0 -584 226q-168 184 -168 477z" />
<glyph unicode="H" horiz-adv-x="1546" d="M135 0l21 395v25l2 258v2q0 279 -11 481l-12 213l195 -14q35 0 182 14q-16 -145 -16 -323v-220l266 -6q145 0 287 6v220q0 178 -17 323l193 -14l188 14q-27 -295 -27 -694q0 -385 27 -680q-154 10 -188 10l-193 -10q16 113 17 297v358q-188 8 -287 9q-180 -4 -266 -9 v-358q0 -166 16 -297q-131 8 -193 8q-61 0 -184 -8z" />
<glyph unicode="I" horiz-adv-x="659" d="M139 0q25 264 25 594q0 494 -25 780q154 -14 187 -14l194 14q-24 -268 -24 -657v-31q0 -412 24 -686q-139 8 -205 8q-119 -4 -176 -8z" />
<glyph unicode="J" horiz-adv-x="659" d="M-55 -211q25 -2 73 -2q125 8 146 168q4 29 8 88q2 92 2 281q0 346 -24 1050l165 -8l211 8q-22 -414 -22 -687v-23l8 -349q0 -109 -2 -159q0 -236 -176 -375q-135 -106 -320 -107q-25 4 -51 7z" />
<glyph unicode="K" horiz-adv-x="1261" d="M133 0q27 328 27 680q0 238 -13 481l-14 213l189 -14h2q25 0 182 14q-14 -186 -14 -317v-297l348 401q109 127 166 213q45 -4 127 -8l151 8l-541 -557l177 -260q193 -293 397 -557q-70 4 -205 8q-74 0 -233 -8q-119 236 -385 596v-311q0 -145 18 -285q-135 8 -199 8 q-115 -4 -180 -8z" />
<glyph unicode="L" horiz-adv-x="958" d="M135 0q27 248 27 686q0 387 -27 688l184 -6l199 6q-20 -219 -20 -463v-475l4 -252q2 -10 2 -18q221 0 440 24q-6 -49 -6 -96q0 -2 6 -94q-293 10 -530 10z" />
<glyph unicode="M" horiz-adv-x="1794" d="M47 0q68 381 109 686l92 688q90 -8 137 -8l143 8q150 -406 369 -907l252 551q82 174 137 356l139 -8q47 0 138 8l67 -676q59 -512 88 -698q-154 10 -182 10l-186 -10q-4 238 -29 430l-45 479q-195 -426 -395 -909q-23 2 -68 2q-49 0 -76 -2q-96 238 -389 893l-59 -555 q-10 -109 -23 -338l-119 10q-18 0 -100 -10z" />
<glyph unicode="N" horiz-adv-x="1488" d="M127 0q23 268 23 655q0 293 -11 506l-6 213q39 -4 129 -8q86 4 135 8q397 -500 770 -895v379q0 274 -14 516q74 -8 107 -8q51 0 112 10q-18 -129 -22 -289q-6 -272 -7 -815q4 -156 15 -272q-96 10 -121 10q-18 0 -121 -10q-393 479 -790 911v-555q2 -119 10 -356l-100 10 z" />
<glyph unicode="O" horiz-adv-x="1665" d="M59 686q14 418 326 600q193 113 467 113q393 0 594 -230q156 -174 156 -452q0 -428 -308 -619l-88 -47q-168 -74 -391 -74q-449 0 -641 283q-115 170 -115 426zM424 686q0 -262 117 -428q108 -152 288 -152q256 0 359 283q51 139 51 307q0 270 -125 432 q-104 139 -278 140q-262 0 -365 -283l-29 -104q-18 -94 -18 -195z" />
<glyph unicode="P" horiz-adv-x="1181" d="M135 0q25 279 25 680q0 342 -25 692q123 -8 182 -8l267 10l71 2h2q471 0 471 -370q0 -221 -167 -340l-66 -39l-78 -29l-76 -14q-84 -10 -245 -11v-276q2 -125 20 -297q-164 10 -190 10q-31 0 -191 -10zM492 717q254 0 290 190q9 35 9 80q0 168 -115 225q-43 20 -98 21 q-25 0 -82 -4q-4 -131 -4 -207v-305z" />
<glyph unicode="Q" horiz-adv-x="1665" d="M59 674q0 381 277 577q209 147 516 148q393 0 594 -230q156 -174 156 -452q0 -369 -230 -567l-69 -52l-84 -47l-99 -35l183 -122q141 -84 317 -162v-27q-129 -49 -283 -139q-203 170 -551 416q-389 0 -583 241q-144 177 -144 451zM424 686q0 -262 117 -428 q108 -152 288 -152q256 0 359 283q51 139 51 307q0 270 -125 432q-104 139 -278 140q-258 0 -361 -279l-31 -102l-16 -119q-4 -41 -4 -82z" />
<glyph unicode="R" horiz-adv-x="1232" d="M129 0q29 344 29 588q0 416 -29 786q68 -6 141 -6l351 14q334 0 446 -129l35 -49l24 -61l13 -80q2 -16 2 -35q0 -176 -135 -276q-78 -57 -179 -66q188 -324 443 -686l-158 8q-111 0 -258 -8q-109 233 -379 645v-264q0 -211 17 -381q-147 10 -179 10zM473 745 q330 1 330 271q0 160 -125 215l-60 16q-14 4 -30 4q-35 2 -109 2q-6 -115 -6 -227v-281z" />
<glyph unicode="S" horiz-adv-x="1093" d="M82 39q16 78 63 332h31q53 -174 146 -226q61 -34 154 -34h5q117 0 197 79q51 53 51 121q0 119 -149 203l-273 133q-197 109 -217 281q-4 25 -4 51q0 236 219 350q133 70 303 70q186 0 361 -84q-47 -115 -82 -264h-23q-55 156 -194 198l-64 15h-24q-150 0 -203 -97 q-20 -35 -23 -77q0 -100 148 -183l276 -135q168 -92 215 -213q23 -55 23 -123q0 -262 -246 -387q-147 -76 -338 -76q-195 0 -352 66z" />
<glyph unicode="T" horiz-adv-x="1103" d="M12 1182l6 104l-6 88q420 -14 539 -14t539 14q-6 -47 -7 -90q0 -51 7 -102q-181 24 -363 24q-8 -109 -8 -243q0 -610 22 -963q-123 8 -188 8q-70 0 -193 -8q25 399 25 702q0 172 -8 504q-123 0 -365 -24z" />
<glyph unicode="U" horiz-adv-x="1472" d="M121 1374l190 -8l189 8q-27 -297 -27 -753q0 -303 115 -402q70 -57 180 -57q172 0 279 121q59 68 73 159q16 141 17 365q0 315 -25 567l84 -8h2q61 0 143 8q-20 -260 -20 -467l4 -198q0 -104 -4 -156q0 -520 -485 -569l-107 -7q-442 0 -551 291q-25 70 -31 154 q-10 137 -16 627q-2 192 -10 325z" />
<glyph unicode="V" horiz-adv-x="1206" d="M-29 1374l207 -8q6 0 187 8q35 -135 75 -241l262 -697l252 701q49 135 68 237q39 -4 108 -8l134 8q-84 -166 -154 -332l-274 -700q-68 -160 -115 -342q-92 10 -111 10l-114 -10q-33 107 -119 340z" />
<glyph unicode="W" horiz-adv-x="1955" d="M-12 1374q127 -8 196 -8l193 8q88 -395 241 -934l316 934q37 -4 115 -8l135 8q90 -338 289 -936q141 453 247 936l121 -8q39 0 113 8l-139 -426l-312 -948q-78 8 -121 8q-39 0 -120 -8q-35 119 -170 537l-129 383q-160 -408 -312 -920l-121 10q-27 0 -129 -10 q-159 608 -413 1374z" />
<glyph unicode="X" horiz-adv-x="1153" d="M-2 0l252 356l194 287l-421 731q139 -8 206.5 -8t210.5 8q20 -53 88 -190l129 -242q184 295 248 432l125 -8l125 8q-168 -225 -246 -340l-168 -250l441 -784q-152 8 -228 8q-131 -4 -192 -8q-41 100 -68 160l-168 321q-125 -195 -274 -481l-137 10q-20 0 -117 -10z" />
<glyph unicode="Y" horiz-adv-x="1101" d="M-45 1374q53 -4 180 -8q78 0 242 8q141 -311 274 -557q137 223 287 557q37 -4 111 -8l125 8q-223 -328 -441 -753q0 -201 6 -410l9 -211l-136 8h-2q-102 0 -233 -8l18 340v10q0 174 -2 244l-194 364l-191 334q-27 43 -53 82z" />
<glyph unicode="Z" horiz-adv-x="1224" d="M37 0v80l694 1118h-297q-160 0 -289 -16l11 75q0 61 -11 117q174 -4 510 -8q178 0 547 8v-43l-713 -1157h347q221 0 391 27q-8 -59 -8 -138l2 -63q-381 8 -568 8q-207 0 -616 -8z" />
<glyph unicode="[" horiz-adv-x="669" d="M154 -242q18 406 18 807q0 406 -18 811q127 -10 227 -10l231 8q-8 -30 -8 -71q4 -33 8 -46q-152 4 -227 5q-6 -461 -6 -463q0 -567 14 -926l88 -2h2q43 0 129 4q-2 -6 -8 -45q0 -39 8 -70q-80 4 -231 9q-78 -2 -227 -11z" />
<glyph unicode="\" horiz-adv-x="565" d="M-47 1509h119l551 -1695h-123z" />
<glyph unicode="]" horiz-adv-x="669" d="M113 -125q152 -4 223 -4q12 434 12 655q0 80 -16 736h-90q-86 0 -129 -2l6 45q0 47 -6 69q84 -4 227 -8q80 2 229 10q-6 -186 -14 -540q0 16 -2 -52l-2 -254q0 -246 4 -235q8 -354 14 -537q-150 8 -229 11q-100 0 -227 -11q6 25 6 52q0 31 -6 65z" />
<glyph unicode="^" horiz-adv-x="645" d="M-4 1114l223 365h180l228 -365h-101l-215 180l-219 -180h-96z" />
<glyph unicode="_" horiz-adv-x="1007" d="M0 -272h1008v-203h-1008v203z" />
<glyph unicode="`" horiz-adv-x="552" d="M98 1317q0 -53 33 -98l301 -418l57 22l-116 471q-37 150 -146 150q-78 0 -114 -68q-14 -29 -15 -59z" />
<glyph unicode="a" horiz-adv-x="1040" d="M70 250q0 172 141 235q35 14 195 56q129 31 188 82q10 16 10 26q0 145 -117 191q-37 14 -84 14q-129 0 -196 -102h-8l-31 112q154 143 369 144q260 0 333 -195l19 -72l6 -73l-4 -351q0 -94 4 -141q14 -63 74 -63q27 0 67 18l8 -72q-82 -66 -213 -75q-139 0 -202 98l-8 12 q-99 -117 -271 -117q-164 0 -239 123q-41 63 -41 150zM354 293q0 -100 66 -137q25 -12 53 -13q109 0 125 131q2 18 2 39v205q-246 -45 -246 -225z" />
<glyph unicode="b" horiz-adv-x="1216" d="M117 2q14 372 14 952q0 340 -14 555q111 -12 168 -12t168 12q-10 -225 -13 -442v-215q119 156 305 156q236 0 338 -230q55 -123 56 -276q0 -270 -154 -416l-55 -43q-100 -66 -236 -66q-213 0 -344 177q-47 -37 -149 -152h-84zM430 500q0 -373 197 -373q190 0 190 362 q0 338 -147 371q-17 4 -35 4q-205 0 -205 -364z" />
<glyph unicode="c" horiz-adv-x="972" d="M53 479q0 266 195 416q145 113 352 113q160 0 320 -66q-25 -88 -54 -260h-37q-31 156 -145 192q-28 11 -61 11q-145 0 -203 -176l-21 -86l-4 -68q0 -221 101 -342q72 -84 182 -84q129 0 213 64q2 4 6 6l14 -13l-43 -155q-115 -53 -270 -54q-272 0 -426 170 q-119 133 -119 332z" />
<glyph unicode="d" horiz-adv-x="1216" d="M80 496q0 289 160 424q102 88 256 88q170 0 278 -148v227l-10 422q125 -14 166 -14q74 0 168 14q-12 -246 -13 -366q0 -586 7 -883l6 -260q-133 10 -168 10l-162 -10q8 55 8 125q-125 -139 -284 -148h-21q-311 0 -377 342q-14 82 -14 177zM397 467q0 -336 189 -336 q168 0 192 287q4 38 4 86q0 362 -196 362q-117 0 -162 -135q-27 -98 -27 -264z" />
<glyph unicode="e" horiz-adv-x="1075" d="M63 496q0 258 181 403q135 109 327 109q317 0 410 -254q31 -88 31 -201q0 -43 -2 -64h-613q0 -188 127 -288q80 -62 191 -62q117 0 235 99l27 -11q-39 -119 -49 -168q-141 -82 -332 -82q-295 0 -438 197q-94 131 -95 322zM395 647l2 -39v-2h312q2 16 2 49q0 256 -152 263 q-129 0 -158 -191q-6 -39 -6 -80z" />
<glyph unicode="f" horiz-adv-x="626" d="M12 858q2 20 2 60q0 41 -2 63q59 -10 144 -10q0 184 108 350q123 188 299 188q66 -4 121 -20q-33 -113 -66 -270h-10q-79 69 -147 69h-2q-115 0 -115 -90q0 -57 80 -190l20 -37q109 0 189 10q-2 4 -4 6v-41q0 -96 4 -96v6q-70 4 -105 4l-73 -2h-2v-455q2 -164 24 -403 q-143 10 -168 10l-172 -10q18 152 19 403v455q-45 4 -72 4q-23 0 -72 -4z" />
<glyph unicode="g" horiz-adv-x="1032" d="M35 -258q0 145 131 217q39 20 88 31v10q-92 18 -129 102q-12 31 -12 64q0 111 123 174q39 23 79 31v30q-139 14 -209 131q-39 66 -38 142q0 193 182 282q102 51 227 52q27 0 88 -4l223 -25q51 -6 107 -6q47 0 160 10v-121l-197 6q82 -51 82 -163q0 -252 -291 -318 l-110 -16q-39 -4 -80 -4q-90 0 -107 -52l-4 -20q0 -66 125 -80l270 -16q246 -31 293 -199l13 -74v-26q0 -256 -250 -377l-92 -37q-115 -37 -244 -37q-233 0 -352 111q-76 72 -76 182zM250 -211q0 -141 141 -199q55 -24 122 -24h5q150 0 230 94q49 57 49 135q0 90 -72 131 q-8 6 -18 11q-86 37 -285 43q-43 0 -68 2q-104 -62 -104 -193zM365 686q12 -227 127 -237q143 0 145 245q0 225 -133 226q-129 0 -139 -207v-27z" />
<glyph unicode="h" d="M119 0q16 250 16 758q0 504 -16 751q51 -4 149 -8q106 0 189 8q-10 -125 -11 -307v-342q116 148 306 148q174 0 262 -129l28 -58l17 -67q4 -25 4 -49l2 -107v-2l-4 -229v-2q0 -203 16 -365q-111 8 -164 8t-172 -8q16 164 17 492q0 70 -6 137q-16 184 -144 184 q-96 0 -135 -94q-29 -80 -29 -230q0 -162 13 -489l-168 10q-31 0 -170 -10z" />
<glyph unicode="i" horiz-adv-x="583" d="M119 983q115 -12 172 -12q59 0 174 12q-12 -90 -19 -178l-2 -332v-2q0 -293 19 -471q-172 6 -174 6t-168 -6q14 110 14 188v613q-4 68 -16 182zM127 1331q0 88 80 139q41 25 84 25q92 0 141 -82q23 -39 23 -82q0 -90 -82 -139q-39 -23 -82 -23q-92 0 -141 80 q-23 39 -23 82z" />
<glyph unicode="j" horiz-adv-x="583" d="M-92 -451q213 0 227 295v35q4 332 4 498q0 403 -16 606q53 -6 166 -10q113 4 164 10q-2 -86 -2 -260l10 -768v-2q-18 -408 -389 -473l-111 -12h-35zM121 1331q0 88 80 139q41 25 84 25q92 0 141 -82q23 -39 23 -82q0 -90 -82 -139q-39 -23 -82 -23q-92 0 -142 80 q-23 39 -22 82z" />
<glyph unicode="k" horiz-adv-x="1114" d="M119 0q18 303 18 811q0 438 -18 698q25 -2 153 -8q100 0 181 8q-16 -252 -17 -620v-316q182 147 369 410q51 -4 147 -4l95 4l8 -14q-86 -78 -127 -119l-226 -223l238 -400l141 -227l-184 10q-29 0 -178 -10q-90 166 -283 485q0 -324 8 -485q-160 6 -161 6z" />
<glyph unicode="l" horiz-adv-x="600" d="M127 0q18 446 18 739q0 84 -10 504l-8 266q133 -14 170 -14q39 0 168 14q-18 -383 -19 -770q0 -240 7 -473l12 -266q-129 14 -168 14q-37 0 -170 -14z" />
<glyph unicode="m" horiz-adv-x="1794" d="M119 0q16 215 16 485q0 231 -16 498q78 -6 153 -6l160 6v-141q123 145 287 164q18 2 37 2q209 0 278 -183q90 162 287 181q20 2 41 2q174 0 256 -140l27 -61q16 -49 18 -102q0 -141 -2 -216q0 -260 14 -489q-111 8 -170 8l-168 -8q14 172 15 440v129q-12 238 -144 248 q-106 0 -143 -129l-2 -8q-14 -82 -14 -209q0 -195 14 -471q-139 10 -164 10l-166 -10q14 207 15 440l-3 127v2q0 211 -100 242l-41 6q-106 0 -143 -129l-2 -8q-14 -82 -15 -209q0 -195 15 -471l-170 10q-31 0 -170 -10z" />
<glyph unicode="n" d="M119 0q16 221 16 500q0 225 -16 483q94 -8 147 -8q92 0 166 8v-145q98 121 244 155q39 10 76 11q180 0 264 -142q43 -70 47 -162q0 -143 -2 -215q0 -258 14 -485q-111 8 -162 8q-53 0 -172 -8q14 287 15 492q0 92 -6 137q0 127 -80 170q-27 14 -62 14q-88 0 -127 -76 l-8 -18q-31 -70 -31 -232q0 -201 15 -487l-168 10q-31 0 -170 -10z" />
<glyph unicode="o" horiz-adv-x="1140" d="M45 492q0 297 219 434q132 82 320 82q272 0 411 -189q98 -133 99 -321q0 -305 -215 -441q-127 -80 -310 -80q-287 0 -428 195q-96 129 -96 320zM379 492q0 -125 20 -236q14 -127 105 -166q31 -14 67 -14q135 0 172 178q0 -14 7 41q10 102 10 201q0 168 -17 233 q-35 178 -174 178q-102 0 -143 -86q-47 -98 -47 -329z" />
<glyph unicode="p" horiz-adv-x="1216" d="M121 -567q14 219 14 372q0 459 -6 914l-8 264q88 -10 168 -10q76 0 164 10q-10 -72 -11 -127q125 152 297 152q242 0 346 -246l31 -92q23 -92 23 -195q0 -268 -152 -405q-104 -92 -262 -93q-180 0 -281 148v-229q2 -152 11 -463q-111 12 -166 12q-57 0 -168 -12z M438 483.5q0 -366.5 197 -366.5q74 0 108 47q76 88 78 295v39q0 352 -186 352q-197 0 -197 -366.5z" />
<glyph unicode="q" horiz-adv-x="1216" d="M76 477q0 266 133 414q104 117 268 117q182 0 295 -152q0 72 -10 127q55 -6 164 -10q72 0 168 10q-16 -389 -17 -1167q8 -238 17 -365q-72 16 -166 17q-96 0 -168 -17l12 463v211q-119 -148 -283 -148q-270 0 -370 248q-43 111 -43 252zM393 483q0 -344 158 -362 q10 -2 20 -2q141 0 191 188q8 37 12 78q0 -4 2 57q-2 137 -2 138q0 141 -78 221l-34 28l-44 17q-16 4 -36 4q-186 -14 -189 -367z" />
<glyph unicode="r" horiz-adv-x="768" d="M119 0q16 215 16 481q0 233 -16 502q51 -4 149 -8q51 0 170 8q-24 -85 -24 -228v-12h12q72 236 246 263q14 2 28 2q16 0 45 -4q-18 -141 -18 -330q-76 43 -127 43q-160 0 -160 -240q4 -340 19 -477l-170 10q-31 0 -170 -10z" />
<glyph unicode="s" horiz-adv-x="860" d="M63 39l50 252h28q68 -203 238 -207q106 0 156 61q20 27 20 62q0 78 -111 127l-190 76q-170 100 -178 264q0 197 178 287q96 47 217 47q117 0 289 -66q-53 -152 -76 -225h-20q-53 180 -215 180q-100 0 -136 -68l-10 -38v-9q0 -72 113 -116l200 -74q141 -63 175 -174 l10 -64v-18q0 -213 -185 -307l-73 -31q-70 -20 -150 -21q-193 0 -330 62z" />
<glyph unicode="t" horiz-adv-x="681" d="M14 858l2 64v2l-2 63v2q45 -6 138 -6q0 156 -13 231q129 39 301 134h43q-14 -88 -18 -181v-184q115 0 174 6q-4 -41 -4 -61q0 -25 4 -70q-59 2 -178 2l-4 -526q2 -135 22 -176q31 -61 103 -62q49 0 110 10l-8 -92q-115 -41 -252 -41q-291 0 -291 271l11 614v2 q-93 0 -138 -2z" />
<glyph unicode="u" d="M111 983q129 -14 163 -14q41 0 170 14q-8 -152 -12 -313q0 -4 -2 -107q0 -76 2 -151q0 -215 115 -242q16 -4 37 -4q121 0 149 172q2 4 2 8q6 74 6 143q0 244 -12 494q125 -14 176 -14q37 0 162 14q-16 -223 -16 -502q0 -266 16 -479q-102 4 -155.5 4t-155.5 -4v137 q-113 -133 -271 -157l-53 -5q-182 0 -266 142q-39 70 -43 160q0 145 2 217q0 258 -14 487z" />
<glyph unicode="v" horiz-adv-x="983" d="M0 983l195 -10q35 0 182 10q45 -168 55 -205l139 -448q127 330 205 653q72 -8 103 -10l108 10q-184 -444 -371 -983q-109 10 -129 10l-127 -10q-172 537 -360 983z" />
<glyph unicode="w" horiz-adv-x="1536" d="M10 983l180 -10l177 10q66 -309 163 -633q68 211 119 395l66 238l141 -10l143 10q31 -139 105 -418l61 -215l97 350q33 119 65 283q86 -10 109 -10q18 0 110 10q-68 -170 -135 -360l-213 -623q-82 8 -125 8l-125 -8l-119 424l-59 199q-98 -297 -192 -623q-90 8 -132 8 q-43 0 -129 -8z" />
<glyph unicode="x" horiz-adv-x="950" d="M-8 0q193 244 336 453l-162 282l-156 248q164 -10 197 -10q29 0 192 10l140 -285q74 111 170 285q70 -8 106 -10l123 10q-127 -152 -322 -416l175 -305q76 -131 161 -262l-192 10l-193 -10l-161 322l-179 -322q-35 4 -104 8q-41 0 -131 -8z" />
<glyph unicode="y" horiz-adv-x="962" d="M0 983q131 -8 199 -8q61 0 172 8q70 -279 190 -606l107 305q41 121 88 301q31 -4 96 -8l135 8q-377 -821 -627 -1534q-55 8 -116 8q-66 0 -117 -8q94 145 162 291l108 235l-284 734q-76 190 -113 274z" />
<glyph unicode="z" horiz-adv-x="978" d="M29 0v111l501 725l-151 2h-2q-92 0 -281 -25q4 53 4 84q0 29 -4 86q264 -8 402 -10q186 0 428 10v-117q-221 -274 -512 -721l137 -4h2q41 0 391 17q-4 -35 -4 -107l4 -51q-389 10 -452 10q-203 0 -463 -10z" />
<glyph unicode="{" horiz-adv-x="1007" d="M154 418v205q180 0 231 92q29 53 29 153v248v111q29 205 293 221q27 2 57 2h102v-205h-69q-78 0 -117 -47q-25 -27 -27 -88v-59v-236q0 -156 -63 -217q-43 -43 -141 -76q162 -37 194 -180q10 -47 10 -113v-237q0 -137 66 -172q37 -20 100 -21h47v-207q-102 0 -155 2 q-272 23 -297 226v106v246q0 246 -211 246h-49z" />
<glyph unicode="|" horiz-adv-x="1007" d="M401 -344v745h205v-745h-205zM401 659v750h205v-750h-205z" />
<glyph unicode="}" horiz-adv-x="1007" d="M137 -201q152 0 193 54q25 31 24 84v57v235q0 168 84 234q45 35 123 59q-147 43 -186 140q-20 53 -21 153v236q0 135 -53 172q-23 16 -55 20q-20 2 -109 2v205h49q287 0 367 -102q39 -49 39 -121q2 -37 2 -111v-248q0 -195 115 -231q49 -14 145 -14v-205q-168 0 -219 -72 l-23 -43q-18 -49 -18 -131v-246q0 -215 -98 -282q-47 -33 -121 -41q-41 -6 -238 -11v207z" />
<glyph unicode="~" horiz-adv-x="2015" d="M393 938q0 244 137 365q88 80 224 79q129 0 258 -110q106 -90 123 -101q57 -39 114 -38q147 0 160 208q2 20 2 43h199q0 -311 -187 -407l-63 -25l-78 -14h-31q-129 0 -262 115l-106 88q-61 45 -117 45q-172 0 -172 -248h-201z" />
<glyph unicode="&#xa3;" horiz-adv-x="1103" d="M72 0q10 113 10 131q0 29 -10 137q145 10 186 72q12 20 18 45q10 45 11 78q0 59 -4 166l-54 4h-2l-143 -10q4 27 8 67q-4 45 -8 66q63 -12 188 -13q-14 55 -18 140q0 295 227 405q109 53 256 53q182 0 346 -90q-35 -90 -63 -225h-49q-41 199 -199 203q-137 0 -192 -127 q-20 -49 -21 -111q0 -31 19 -246h106q115 0 199 11q-6 -35 -6 -68t6 -65q-76 6 -154 6h-151q-16 -170 -134 -271l-79 -59l-41 -27q238 0 477 7l268 10q-18 -88 -18 -144q0 -39 18 -145q-340 12 -491 12q-170 0 -506 -12z" />
<glyph unicode="&#xa5;" horiz-adv-x="1126" d="M12 1309q154 -10 193 -11l188 11q123 -283 248 -529q145 272 258 529q31 -4 96 -4q41 0 115 4q-248 -399 -346 -592l303 12v-125q-293 10 -350 10v-125q207 0 350 7v-123q-129 8 -350 8q0 -84 14 -381l-160 8l-180 -8q14 127 19 381q-197 0 -353 -8v123q94 -6 181 -7h172 v125q-61 0 -353 -10v125q70 -12 138 -12h143l-125 233q-63 127 -201 359z" />
<glyph unicode="&#xa7;" horiz-adv-x="1095" d="M90 569q0 117 100 232q33 39 68 61q-88 94 -88 201q0 174 178 272q117 63 252 64q211 0 330 -80q-55 -115 -88 -207h-19q-20 115 -137 166l-61 20q-27 4 -52 5q-106 0 -161 -68l-19 -35q-8 -20 -8 -43q0 -96 143 -162l269 -108q190 -90 211 -238l2 -39q0 -174 -138 -278 l-16 -13q59 -49 86 -163q6 -31 6 -56q0 -209 -207 -309l-84 -33q-88 -27 -182 -26q-209 0 -348 69q31 141 47 256h27q29 -141 172 -198q61 -25 131 -25q127 0 184 78q27 37 27 86q0 109 -148 180l-268 113q-186 90 -207 237q-2 20 -2 41zM291 705q0 -117 196 -211l248 -109 q18 -8 33 -18q37 37 37 94q0 102 -207 196l-238 105q-16 8 -28 16q-35 -28 -41 -73z" />
<glyph unicode="&#xa8;" horiz-adv-x="696" d="M8 1296q0 84 76 125q31 17 68 17q84 0 122 -78l15 -43l2 -21q0 -84 -72 -125l-39 -14q-12 -2 -24 -2q-86 0 -129 72q-18 33 -19 69zM393 1296q0 86 76 125q31 17 66 17q86 0 122 -74q16 -33 17 -68q0 -84 -72 -125q-29 -16 -63 -16q-82 0 -125 72q-20 33 -21 69z" />
<glyph unicode="&#xa9;" horiz-adv-x="1677" d="M106 721q0 281 199 493q197 209 469 236q31 2 64 2q283 0 495 -201q207 -197 234 -471l2 -63q0 -281 -199 -494q-197 -207 -471 -229l-57 -2q-283 0 -496 196q-213 195 -237 474q-2 29 -3 59zM229 723q0 -244 177 -426q176 -182 430 -186q248 0 430 180q180 178 182 428 q0 258 -182 438l-66 55l-76 50l-86 36l-94 25l-98 10h-8q-248 0 -428 -182q-181 -180 -181 -428zM444 711q0 211 131 344q102 102 250 106q186 0 293 -119l37 -49l27 -59l10 -53h-184q-6 86 -88 127q-35 18 -74 18q-156 0 -191 -195q-8 -43 -8 -94q0 -182 80 -266 q43 -45 104 -45q150 0 183 160h188q-16 -176 -172 -258q-86 -45 -188 -45q-209 0 -322 168q-76 111 -76 260z" />
<glyph unicode="&#xab;" horiz-adv-x="927" d="M59 492l342 475l78 -84l-194 -387l196 -404l-80 -78zM426 492l342 475l80 -84l-195 -387l195 -404l-80 -78z" />
<glyph unicode="&#xad;" horiz-adv-x="659" d="M88 365l10 129l-10 129h483q-8 -92 -10 -131q2 -39 10 -127h-483z" />
<glyph unicode="&#xae;" horiz-adv-x="1677" d="M106 721q0 281 199 493q197 209 469 236q31 2 64 2q287 0 499 -201l64 -67q170 -203 170 -463q0 -287 -203 -498q-197 -209 -479 -229q-25 -2 -51 -2q-283 0 -498 201q-209 195 -231 471q-2 29 -3 57zM229 721q0 -244 179 -426q176 -180 428 -184q246 0 428 178t186 430 q0 254 -182 436l-66 55l-78 52l-86 36l-94 25q-53 10 -106 10q-248 0 -428 -182l-58 -66q-123 -165 -123 -364zM532 330v811h320q264 0 330 -144l14 -53l2 -22q0 -127 -108 -201q-31 -20 -68 -31l180 -360h-217l-158 329h-94v-329h-201zM733 778h96q152 16 164 119 q0 78 -65 104l-31 9q-35 8 -78 8h-86v-240z" />
<glyph unicode="&#xb0;" horiz-adv-x="681" d="M121 1325q0 119 98 184q55 37 123 37q119 0 184 -98l25 -49l12 -58v-16q0 -119 -100 -184q-55 -37 -121 -37q-117 0 -182 96q-39 55 -39 125zM225 1325q0 -78 68 -106q23 -10 49 -11q76 0 107 70q10 22 10 47q0 76 -70 107q-23 10 -47 10q-78 0 -106 -70q-10 -23 -11 -47 z" />
<glyph unicode="&#xb1;" horiz-adv-x="1679" d="M250 0v195h1180v-195h-1180zM250 686v195h489v321h199v-321h492v-195h-492v-324h-199v324h-489z" />
<glyph unicode="&#xb2;" horiz-adv-x="729" d="M33 592q221 152 303 264q88 117 88 240q0 156 -105 155q-100 0 -143 -133l-12 -47h-12q-45 55 -107 111q127 147 317 147q178 0 254 -100l25 -43q14 -35 14 -78q0 -150 -180 -289l-178 -125h123q90 0 266 8q-12 -53 -12 -92q0 -31 12 -88q-106 6 -317 6q-162 0 -328 -6z " />
<glyph unicode="&#xb3;" horiz-adv-x="729" d="M27 578q66 88 108 167h15q12 -174 137 -174q100 0 135 101q10 31 10 67q0 111 -86 150l-47 12l-23 2l-51 -2h-2v72q14 -2 45 -2q117 0 150 92q10 27 10 57q0 96 -70 129l-39 13h-12q-102 0 -127 -115l-4 -51l-12 -11q-51 61 -125 117q66 90 248 117q36 6 71 6 q162 0 234 -86q35 -43 35 -102q0 -127 -183 -185v-6q131 -10 191 -98l20 -43q6 -25 7 -49q0 -164 -187 -228l-86 -18q-39 -6 -78 -6q-168 0 -284 74z" />
<glyph unicode="&#xb4;" horiz-adv-x="552" d="M106 780l119 471q16 94 84 133q25 14 53 15q84 0 121 -70q14 -27 15 -59q-4 -53 -33 -94l-299 -420z" />
<glyph unicode="&#xb5;" d="M117 -543q10 117 14 267q2 150 2 448q0 367 -4 553q0 115 -10 258q49 -6 162 -10q29 0 172 10q-14 -176 -15 -453l2 -145v-2q0 -238 146 -244q154 0 162 256v45q0 246 -11 543q98 -10 176 -10q18 0 162 10q-18 -254 -18 -508q0 -236 18 -475q-49 4 -147 8q-57 0 -164 -8 v119q-84 -123 -166 -139l-31 -3q-59 0 -141 60v12q0 -4 -2 -135q0 -90 2 -195v15q0 -61 14 -277q-92 10 -159 11q-76 0 -164 -11z" />
<glyph unicode="&#xb6;" horiz-adv-x="870" d="M31 1059q-23 102 57 211q116 157 352 157h344v-86h-86v-1335h-86v1335h-161v-1335h-86v817q-160 -8 -263 103q-55 57 -71 133z" />
<glyph unicode="&#xb7;" horiz-adv-x="552" d="M100 700q0 100 86 150q41 24 90 24q84 0 142 -75q33 -45 33 -97q0 -82 -76 -141l-43 -24l-47 -11h-9q-106 0 -155 90q-20 39 -21 84z" />
<glyph unicode="&#xb9;" horiz-adv-x="729" d="M98 1192q135 45 209 74q72 27 199 90l22 -13l-2 -417v16v-237v10v-80q0 -33 9 -113l-78 6l-158 -6q10 94 12 246t2 168v135l-4 113q-35 -10 -76 -31l-81 -39z" />
<glyph unicode="&#xbb;" horiz-adv-x="927" d="M82 98l197 389l-197 404l82 76l338 -475l-338 -478zM451 98l196 389l-196 404l79 76l338 -475l-338 -478z" />
<glyph unicode="&#xbd;" horiz-adv-x="1726" d="M100 1200q160 51 389 154l25 -13q-6 -131 -6 -391v8v-213v9q0 -102 8 -176l-72 4h-2q-100 0 -149 -4q4 43 8 133l4 372v2l-4 105v2q-31 -10 -149 -66zM360 -184l885 1679h123l-885 -1679h-123zM1063 61q209 143 287 240q90 115 90 238q0 139 -105 139q-109 0 -147 -168 h-14q-18 31 -101 106q131 135 307 136q162 0 238 -95q39 -49 39 -118q0 -137 -170 -260l-174 -117l117 -2h2q143 0 258 8q-16 -49 -17 -96q0 -14 15 -72q-63 0 -203 4l-402 -4h-8z" />
<glyph unicode="&#xc0;" horiz-adv-x="1222" d="M-43 0l205 475q102 240 356 924q51 -6 102.5 -6t102.5 6q313 -881 530 -1399l-196 6l-201 -6l-43 135l-80 248q-96 6 -291 6l-143 -6q-59 -184 -133 -383q-63 6 -133 6l-72 -6h-4zM258 2038q0 -53 33 -98l301 -418l57 22l-116 471q-37 150 -146 150q-78 0 -114 -68 q-14 -29 -15 -59zM358 547q106 -4 164 -4q51 0 162 4q-55 182 -160 430q-90 -211 -166 -430z" />
<glyph unicode="&#xc1;" horiz-adv-x="1222" d="M-43 0l205 475q102 240 356 924q51 -6 102.5 -6t102.5 6q313 -881 530 -1399l-196 6l-201 -6l-43 135l-80 248q-96 6 -291 6l-143 -6q-59 -184 -133 -383q-63 6 -133 6l-72 -6h-4zM358 547q106 -4 164 -4q51 0 162 4q-55 182 -160 430q-90 -211 -166 -430zM589 1546 l119 471q16 94 84 133q25 14 53 15q84 0 121 -70q14 -27 15 -59q-4 -53 -33 -94l-299 -420z" />
<glyph unicode="&#xc2;" horiz-adv-x="1222" d="M-43 0l205 475q102 240 356 924q51 -6 102.5 -6t102.5 6q313 -881 530 -1399l-196 6l-201 -6l-43 135l-80 248q-96 6 -291 6l-143 -6q-59 -184 -133 -383q-63 6 -133 6l-72 -6h-4zM305 1522l223 365h180l228 -365h-101l-215 180l-219 -180h-96zM358 547q106 -4 164 -4 q51 0 162 4q-55 182 -160 430q-90 -211 -166 -430z" />
<glyph unicode="&#xc3;" horiz-adv-x="1222" d="M-43 0l205 475q102 240 356 924q51 -6 102.5 -6t102.5 6q313 -881 530 -1399l-196 6l-201 -6l-43 135l-80 248q-96 6 -291 6l-143 -6q-59 -184 -133 -383q-63 6 -133 6l-72 -6h-4zM246 1522q29 193 160 244q37 14 82 14q68 0 166 -47t143 -47q61 0 96 67q6 12 13 27h88 q-29 -193 -160 -244q-37 -14 -82 -14q-63 0 -188 57l-80 31l-41 6q-61 0 -96 -68l-13 -26h-88zM358 547q106 -4 164 -4q51 0 162 4q-55 182 -160 430q-90 -211 -166 -430z" />
<glyph unicode="&#xc4;" horiz-adv-x="1222" d="M-43 0l205 475q102 240 356 924q51 -6 102.5 -6t102.5 6q313 -881 530 -1399l-196 6l-201 -6l-43 135l-80 248q-96 6 -291 6l-143 -6q-59 -184 -133 -383q-63 6 -133 6l-72 -6h-4zM287 1663q0 84 76 125q31 17 68 17q84 0 122 -78l15 -43l2 -21q0 -84 -72 -125l-39 -14 q-12 -2 -24 -2q-86 0 -129 72q-18 33 -19 69zM358 547q106 -4 164 -4q51 0 162 4q-55 182 -160 430q-90 -211 -166 -430zM672 1663q0 86 76 125q31 17 66 17q86 0 122 -74q16 -33 17 -68q0 -84 -72 -125q-29 -16 -63 -16q-82 0 -125 72q-20 33 -21 69z" />
<glyph unicode="&#xc5;" horiz-adv-x="1222" d="M-43 0l205 475q102 240 356 924q51 -6 102.5 -6t102.5 6q313 -881 530 -1399l-196 6l-201 -6l-43 135l-80 248q-96 6 -291 6l-143 -6q-59 -184 -133 -383q-63 6 -133 6l-72 -6h-4zM358 547q106 -4 164 -4q51 0 162 4q-55 182 -160 430q-90 -211 -166 -430zM400 1604 q0 119 98 184q55 37 123 37q119 0 184 -98l25 -49l12 -58v-16q0 -119 -100 -184q-55 -37 -121 -37q-117 0 -182 96q-39 55 -39 125zM504 1604q0 -78 68 -106q23 -10 49 -11q76 0 107 70q10 22 10 47q0 76 -70 107q-23 10 -47 10q-78 0 -106 -70q-10 -23 -11 -47z" />
<glyph unicode="&#xc8;" horiz-adv-x="1036" d="M135 0q25 217 25 328l2 356v2q0 387 -27 688q131 -4 393 -8l424 8q-8 -57 -8 -88t8 -92q-225 16 -338 16l-110 -2h-2q-6 -203 -6 -403q147 4 442 16q-8 -61 -8 -92q0 -49 6 -94q-262 18 -440 18v-217q0 -154 8 -270q221 0 440 24q-6 -49 -6 -96q0 -2 6 -94 q-293 10 -530 10zM180 2038q0 -53 33 -98l301 -418l57 22l-116 471q-37 150 -146 150q-78 0 -114 -68q-14 -29 -15 -59z" />
<glyph unicode="&#xc9;" horiz-adv-x="1036" d="M135 0q25 217 25 328l2 356v2q0 387 -27 688q131 -4 393 -8l424 8q-8 -57 -8 -88t8 -92q-225 16 -338 16l-110 -2h-2q-6 -203 -6 -403q147 4 442 16q-8 -61 -8 -92q0 -49 6 -94q-262 18 -440 18v-217q0 -154 8 -270q221 0 440 24q-6 -49 -6 -96q0 -2 6 -94 q-293 10 -530 10zM514 1546l119 471q16 94 84 133q25 14 53 15q84 0 121 -70q14 -27 15 -59q-4 -53 -33 -94l-299 -420z" />
<glyph unicode="&#xca;" horiz-adv-x="1036" d="M135 0q25 217 25 328l2 356v2q0 387 -27 688q131 -4 393 -8l424 8q-8 -57 -8 -88t8 -92q-225 16 -338 16l-110 -2h-2q-6 -203 -6 -403q147 4 442 16q-8 -61 -8 -92q0 -49 6 -94q-262 18 -440 18v-217q0 -154 8 -270q221 0 440 24q-6 -49 -6 -96q0 -2 6 -94 q-293 10 -530 10zM227 1522l223 365h180l228 -365h-101l-215 180l-219 -180h-96z" />
<glyph unicode="&#xcb;" horiz-adv-x="1036" d="M135 0q25 217 25 328l2 356v2q0 387 -27 688q131 -4 393 -8l424 8q-8 -57 -8 -88t8 -92q-225 16 -338 16l-110 -2h-2q-6 -203 -6 -403q147 4 442 16q-8 -61 -8 -92q0 -49 6 -94q-262 18 -440 18v-217q0 -154 8 -270q221 0 440 24q-6 -49 -6 -96q0 -2 6 -94 q-293 10 -530 10zM211 1663q0 84 76 125q31 17 68 17q84 0 122 -78l15 -43l2 -21q0 -84 -72 -125l-39 -14q-12 -2 -24 -2q-86 0 -129 72q-18 33 -19 69zM596 1663q0 86 76 125q31 17 66 17q86 0 122 -74q16 -33 17 -68q0 -84 -72 -125q-29 -16 -63 -16q-82 0 -125 72 q-20 33 -21 69z" />
<glyph unicode="&#xcc;" horiz-adv-x="659" d="M-33 2038q0 -53 33 -98l301 -418l57 22l-116 471q-37 150 -146 150q-78 0 -114 -68q-14 -29 -15 -59zM139 0q25 264 25 594q0 494 -25 780q154 -14 187 -14l194 14q-25 -279 -24 -688q0 -412 24 -686q-139 8 -205 8q-119 -4 -176 -8z" />
<glyph unicode="&#xcd;" horiz-adv-x="659" d="M139 0q25 264 25 594q0 494 -25 780q154 -14 187 -14l194 14q-25 -279 -24 -688q0 -412 24 -686q-139 8 -205 8q-119 -4 -176 -8zM299 1546l119 471q16 94 84 133q25 14 53 15q84 0 121 -70q14 -27 15 -59q-4 -53 -33 -94l-299 -420z" />
<glyph unicode="&#xce;" horiz-adv-x="659" d="M14 1522l223 365h180l228 -365h-101l-215 180l-219 -180h-96zM139 0q25 264 25 594q0 494 -25 780q154 -14 187 -14l194 14q-25 -279 -24 -688q0 -412 24 -686q-139 8 -205 8q-119 -4 -176 -8z" />
<glyph unicode="&#xcf;" horiz-adv-x="659" d="M-2 1663q0 84 76 125q31 17 68 17q84 0 122 -78l15 -43l2 -21q0 -84 -72 -125l-39 -14q-12 -2 -24 -2q-86 0 -129 72q-18 33 -19 69zM139 0q25 264 25 594q0 494 -25 780q154 -14 187 -14l194 14q-25 -279 -24 -688q0 -412 24 -686q-139 8 -205 8q-119 -4 -176 -8z M383 1663q0 86 76 125q31 17 66 17q86 0 122 -74q16 -33 17 -68q0 -84 -72 -125q-29 -16 -63 -16q-82 0 -125 72q-20 33 -21 69z" />
<glyph unicode="&#xd1;" horiz-adv-x="1488" d="M127 0q23 268 23 655q0 293 -11 506l-6 213q39 -4 129 -8q86 4 135 8q397 -500 770 -895v379q0 274 -14 516q74 -8 107 -8q51 0 112 10q-18 -129 -22 -289q-6 -272 -7 -815q4 -156 15 -272q-96 10 -121 10q-18 0 -121 -10q-393 479 -790 911v-555q2 -119 10 -356l-100 10 zM997 1522q29 193 160 244q37 14 82 14q68 0 166 -47t143 -47q61 0 96 67q6 12 13 27h88q-29 -193 -160 -244q-37 -14 -82 -14q-63 0 -188 57l-80 31l-41 6q-61 0 -96 -68l-13 -26h-88z" />
<glyph unicode="&#xd2;" horiz-adv-x="1665" d="M59 686q14 418 326 600q193 113 467 113q393 0 594 -230q156 -174 156 -452q0 -428 -308 -619l-88 -47q-168 -74 -391 -74q-449 0 -641 283q-115 170 -115 426zM424 686q0 -262 117 -428q108 -152 288 -152q256 0 359 283q51 139 51 307q0 270 -125 432 q-104 139 -278 140q-262 0 -365 -283l-29 -104q-18 -94 -18 -195zM489 2038q0 -53 33 -98l301 -418l57 22l-116 471q-37 150 -146 150q-78 0 -114 -68q-14 -29 -15 -59z" />
<glyph unicode="&#xd3;" horiz-adv-x="1665" d="M59 686q14 418 326 600q193 113 467 113q393 0 594 -230q156 -174 156 -452q0 -428 -308 -619l-88 -47q-168 -74 -391 -74q-449 0 -641 283q-115 170 -115 426zM424 686q0 -262 117 -428q108 -152 288 -152q256 0 359 283q51 139 51 307q0 270 -125 432 q-104 139 -278 140q-262 0 -365 -283l-29 -104q-18 -94 -18 -195zM821 1546l119 471q16 94 84 133q25 14 53 15q84 0 121 -70q14 -27 15 -59q-4 -53 -33 -94l-299 -420z" />
<glyph unicode="&#xd4;" horiz-adv-x="1665" d="M59 686q14 418 326 600q193 113 467 113q393 0 594 -230q156 -174 156 -452q0 -428 -308 -619l-88 -47q-168 -74 -391 -74q-449 0 -641 283q-115 170 -115 426zM424 686q0 -262 117 -428q108 -152 288 -152q256 0 359 283q51 139 51 307q0 270 -125 432 q-104 139 -278 140q-262 0 -365 -283l-29 -104q-18 -94 -18 -195zM537 1522l223 365h180l228 -365h-101l-215 180l-219 -180h-96z" />
<glyph unicode="&#xd5;" horiz-adv-x="1665" d="M59 686q14 418 326 600q193 113 467 113q393 0 594 -230q156 -174 156 -452q0 -428 -308 -619l-88 -47q-168 -74 -391 -74q-449 0 -641 283q-115 170 -115 426zM424 686q0 -262 117 -428q108 -152 288 -152q256 0 359 283q51 139 51 307q0 270 -125 432 q-104 139 -278 140q-262 0 -365 -283l-29 -104q-18 -94 -18 -195zM477 1522q29 193 160 244q37 14 82 14q68 0 166 -47t143 -47q61 0 96 67q6 12 13 27h88q-29 -193 -160 -244q-37 -14 -82 -14q-63 0 -188 57l-80 31l-41 6q-61 0 -96 -68l-13 -26h-88z" />
<glyph unicode="&#xd6;" horiz-adv-x="1665" d="M59 686q14 418 326 600q193 113 467 113q393 0 594 -230q156 -174 156 -452q0 -428 -308 -619l-88 -47q-168 -74 -391 -74q-449 0 -641 283q-115 170 -115 426zM424 686q0 -262 117 -428q108 -152 288 -152q256 0 359 283q51 139 51 307q0 270 -125 432 q-104 139 -278 140q-262 0 -365 -283l-29 -104q-18 -94 -18 -195zM518 1663q0 84 76 125q31 17 68 17q84 0 122 -78l15 -43l2 -21q0 -84 -72 -125l-39 -14q-12 -2 -24 -2q-86 0 -129 72q-18 33 -19 69zM903 1663q0 86 76 125q31 17 66 17q86 0 122 -74q16 -33 17 -68 q0 -84 -72 -125q-29 -16 -63 -16q-82 0 -125 72q-20 33 -21 69z" />
<glyph unicode="&#xd7;" horiz-adv-x="1679" d="M272 158l443 444l-443 440l138 138l442 -441l442 441l138 -138l-443 -440l443 -444l-138 -138l-442 445l-442 -445z" />
<glyph unicode="&#xd9;" horiz-adv-x="1472" d="M121 1374l190 -8l189 8q-27 -297 -27 -753q0 -303 115 -402q70 -57 180 -57q172 0 279 121q59 68 73 159q16 141 17 365q0 315 -25 567l84 -8h2q61 0 143 8q-20 -260 -20 -467l4 -198q0 -104 -4 -156q0 -520 -485 -569l-107 -7q-442 0 -551 291q-25 70 -31 154 q-10 137 -16 627q-2 192 -10 325zM368 2038q0 -53 33 -98l301 -418l57 22l-116 471q-37 150 -146 150q-78 0 -114 -68q-14 -29 -15 -59z" />
<glyph unicode="&#xda;" horiz-adv-x="1472" d="M121 1374l190 -8l189 8q-27 -297 -27 -753q0 -303 115 -402q70 -57 180 -57q172 0 279 121q59 68 73 159q16 141 17 365q0 315 -25 567l84 -8h2q61 0 143 8q-20 -260 -20 -467l4 -198q0 -104 -4 -156q0 -520 -485 -569l-107 -7q-442 0 -551 291q-25 70 -31 154 q-10 137 -16 627q-2 192 -10 325zM700 1546l119 471q16 94 84 133q25 14 53 15q84 0 121 -70q14 -27 15 -59q-4 -53 -33 -94l-299 -420z" />
<glyph unicode="&#xdb;" horiz-adv-x="1472" d="M121 1374l190 -8l189 8q-27 -297 -27 -753q0 -303 115 -402q70 -57 180 -57q172 0 279 121q59 68 73 159q16 141 17 365q0 315 -25 567l84 -8h2q61 0 143 8q-20 -260 -20 -467l4 -198q0 -104 -4 -156q0 -520 -485 -569l-107 -7q-442 0 -551 291q-25 70 -31 154 q-10 137 -16 627q-2 192 -10 325zM416 1522l223 365h180l228 -365h-101l-215 180l-219 -180h-96z" />
<glyph unicode="&#xdc;" horiz-adv-x="1472" d="M121 1374l190 -8l189 8q-27 -297 -27 -753q0 -303 115 -402q70 -57 180 -57q172 0 279 121q59 68 73 159q16 141 17 365q0 315 -25 567l84 -8h2q61 0 143 8q-20 -260 -20 -467l4 -198q0 -104 -4 -156q0 -520 -485 -569l-107 -7q-442 0 -551 291q-25 70 -31 154 q-10 137 -16 627q-2 192 -10 325zM397 1663q0 84 76 125q31 17 68 17q84 0 122 -78l15 -43l2 -21q0 -84 -72 -125l-39 -14q-12 -2 -24 -2q-86 0 -129 72q-18 33 -19 69zM782 1663q0 86 76 125q31 17 66 17q86 0 122 -74q16 -33 17 -68q0 -84 -72 -125q-29 -16 -63 -16 q-82 0 -125 72q-20 33 -21 69z" />
<glyph unicode="&#xdd;" horiz-adv-x="1101" d="M-45 1374q53 -4 180 -8q78 0 242 8q141 -311 274 -557q137 223 287 557q37 -4 111 -8l125 8q-223 -328 -441 -753q0 -201 6 -410l9 -211l-136 8h-2q-102 0 -233 -8l18 340v10q0 174 -2 244l-194 364l-191 334q-27 43 -53 82zM534 1546l119 471q16 94 84 133q25 14 53 15 q84 0 121 -70q14 -27 15 -59q-4 -53 -33 -94l-299 -420z" />
<glyph unicode="&#xdf;" horiz-adv-x="1196" d="M125 2l10 311v648q0 453 322 530q74 18 164 18q152 0 270 -57q119 -57 119 -192q0 -100 -113 -207q-115 -109 -115 -166q0 -51 54 -92q6 -4 12 -9l168 -127q129 -100 129 -253q0 -184 -125 -308q-127 -121 -313 -121q-74 0 -156 35l45 226h20q43 -113 117 -136 q25 -8 58 -8q86 0 120 76q12 29 13 61q0 92 -179 236q-178 143 -188 235q0 104 123 256q121 154 121 254q0 121 -94 164l-48 13q-12 2 -26 2q-139 0 -184 -146q-15 -49 -15 -108l15 -1133v-2l-261 2q-31 0 -63 -2z" />
<glyph unicode="&#xe0;" horiz-adv-x="1040" d="M70 250q0 172 141 235q35 14 195 56q129 31 188 82q10 16 10 26q0 145 -117 191q-37 14 -84 14q-129 0 -196 -102h-8l-31 112q154 143 369 144q260 0 333 -195l19 -72l6 -73l-4 -351q0 -94 4 -141q14 -63 74 -63q27 0 67 18l8 -72q-82 -66 -213 -75q-139 0 -202 98l-8 12 q-99 -117 -271 -117q-164 0 -239 123q-41 63 -41 150zM174 1647q0 -53 33 -98l301 -418l57 22l-116 471q-37 150 -146 150q-78 0 -114 -68q-14 -29 -15 -59zM354 293q0 -100 66 -137q25 -12 53 -13q109 0 125 131q2 18 2 39v205q-246 -45 -246 -225z" />
<glyph unicode="&#xe1;" horiz-adv-x="1040" d="M70 250q0 172 141 235q35 14 195 56q129 31 188 82q10 16 10 26q0 145 -117 191q-37 14 -84 14q-129 0 -196 -102h-8l-31 112q154 143 369 144q260 0 333 -195l19 -72l6 -73l-4 -351q0 -94 4 -141q14 -63 74 -63q27 0 67 18l8 -72q-82 -66 -213 -75q-139 0 -202 98l-8 12 q-99 -117 -271 -117q-164 0 -239 123q-41 63 -41 150zM354 293q0 -100 66 -137q25 -12 53 -13q109 0 125 131q2 18 2 39v205q-246 -45 -246 -225zM505 1155l119 471q16 94 84 133q25 14 53 15q84 0 121 -70q14 -27 15 -59q-4 -53 -33 -94l-299 -420z" />
<glyph unicode="&#xe2;" horiz-adv-x="1040" d="M70 250q0 172 141 235q35 14 195 56q129 31 188 82q10 16 10 26q0 145 -117 191q-37 14 -84 14q-129 0 -196 -102h-8l-31 112q154 143 369 144q260 0 333 -195l19 -72l6 -73l-4 -351q0 -94 4 -141q14 -63 74 -63q27 0 67 18l8 -72q-82 -66 -213 -75q-139 0 -202 98l-8 12 q-99 -117 -271 -117q-164 0 -239 123q-41 63 -41 150zM221 1130l223 365h180l228 -365h-101l-215 180l-219 -180h-96zM354 293q0 -100 66 -137q25 -12 53 -13q109 0 125 131q2 18 2 39v205q-246 -45 -246 -225z" />
<glyph unicode="&#xe3;" horiz-adv-x="1040" d="M70 250q0 172 141 235q35 14 195 56q129 31 188 82q10 16 10 26q0 145 -117 191q-37 14 -84 14q-129 0 -196 -102h-8l-31 112q154 143 369 144q260 0 333 -195l19 -72l6 -73l-4 -351q0 -94 4 -141q14 -63 74 -63q27 0 67 18l8 -72q-82 -66 -213 -75q-139 0 -202 98l-8 12 q-99 -117 -271 -117q-164 0 -239 123q-41 63 -41 150zM162 1131q29 193 160 244q37 14 82 14q68 0 166 -47t143 -47q61 0 96 67q6 12 13 27h88q-29 -193 -160 -244q-37 -14 -82 -14q-63 0 -188 57l-80 31l-41 6q-61 0 -96 -68l-13 -26h-88zM354 293q0 -100 66 -137 q25 -12 53 -13q109 0 125 131q2 18 2 39v205q-246 -45 -246 -225z" />
<glyph unicode="&#xe4;" horiz-adv-x="1040" d="M70 250q0 172 141 235q35 14 195 56q129 31 188 82q10 16 10 26q0 145 -117 191q-37 14 -84 14q-129 0 -196 -102h-8l-31 112q154 143 369 144q260 0 333 -195l19 -72l6 -73l-4 -351q0 -94 4 -141q14 -63 74 -63q27 0 67 18l8 -72q-82 -66 -213 -75q-139 0 -202 98l-8 12 q-99 -117 -271 -117q-164 0 -239 123q-41 63 -41 150zM203 1271q0 84 76 125q31 17 68 17q84 0 122 -78l15 -43l2 -21q0 -84 -72 -125l-39 -14q-12 -2 -24 -2q-86 0 -129 72q-18 33 -19 69zM354 293q0 -100 66 -137q25 -12 53 -13q109 0 125 131q2 18 2 39v205 q-246 -45 -246 -225zM588 1271q0 86 76 125q31 17 66 17q86 0 122 -74q16 -33 17 -68q0 -84 -72 -125q-29 -16 -63 -16q-82 0 -125 72q-20 33 -21 69z" />
<glyph unicode="&#xe5;" horiz-adv-x="1040" d="M70 250q0 172 141 235q35 14 195 56q129 31 188 82q10 16 10 26q0 145 -117 191q-37 14 -84 14q-129 0 -196 -102h-8l-31 112q154 143 369 144q260 0 333 -195l19 -72l6 -73l-4 -351q0 -94 4 -141q14 -63 74 -63q27 0 67 18l8 -72q-82 -66 -213 -75q-139 0 -202 98l-8 12 q-99 -117 -271 -117q-164 0 -239 123q-41 63 -41 150zM316 1352q0 119 98 184q55 37 123 37q119 0 184 -98l25 -49l12 -58v-16q0 -119 -100 -184q-55 -37 -121 -37q-117 0 -182 96q-39 55 -39 125zM354 293q0 -100 66 -137q25 -12 53 -13q109 0 125 131q2 18 2 39v205 q-246 -45 -246 -225zM420 1352q0 -78 68 -106q23 -10 49 -11q76 0 107 70q10 22 10 47q0 76 -70 107q-23 10 -47 10q-78 0 -106 -70q-10 -23 -11 -47z" />
<glyph unicode="&#xe7;" horiz-adv-x="972" d="M53 479q0 236 156 381q154 143 393 144q164 0 316 -64q-31 -129 -52 -262h-37q-27 174 -161 203q-20 4 -45 4q-139 0 -201 -164l-21 -80l-8 -90q0 -160 68 -291t215 -131q133 0 223 68l14 -11l-45 -157q-109 -51 -270 -52q-35 0 -70 5v-95l90 2q127 -14 154 -114l6 -45 q0 -117 -104 -164l-56 -19l-45 -4q-184 0 -350 66l35 92q113 -35 150 -41q37 -8 84 -8q96 0 102 76q0 55 -55 77q-16 6 -35 7q-23 0 -60 -11v193q-233 53 -333 244q-57 106 -58 241z" />
<glyph unicode="&#xe8;" horiz-adv-x="1075" d="M63 496q0 258 181 403q135 109 327 109q317 0 410 -254q31 -88 31 -201q0 -43 -2 -64h-613q0 -188 127 -288q80 -62 191 -62q117 0 235 99l27 -11q-39 -119 -49 -168q-141 -82 -332 -82q-295 0 -438 197q-94 131 -95 322zM209 1647q0 -53 33 -98l301 -418l57 22l-116 471 q-37 150 -146 150q-78 0 -114 -68q-14 -29 -15 -59zM395 647l2 -39v-2h312q2 16 2 49q0 256 -152 263q-129 0 -158 -191q-6 -39 -6 -80z" />
<glyph unicode="&#xe9;" horiz-adv-x="1075" d="M63 496q0 258 181 403q135 109 327 109q317 0 410 -254q31 -88 31 -201q0 -43 -2 -64h-613q0 -188 127 -288q80 -62 191 -62q117 0 235 99l27 -11q-39 -119 -49 -168q-141 -82 -332 -82q-295 0 -438 197q-94 131 -95 322zM395 647l2 -39v-2h312q2 16 2 49q0 256 -152 263 q-129 0 -158 -191q-6 -39 -6 -80zM540 1155l119 471q16 94 84 133q25 14 53 15q84 0 121 -70q14 -27 15 -59q-4 -53 -33 -94l-299 -420z" />
<glyph unicode="&#xea;" horiz-adv-x="1075" d="M63 496q0 258 181 403q135 109 327 109q317 0 410 -254q31 -88 31 -201q0 -43 -2 -64h-613q0 -188 127 -288q80 -62 191 -62q117 0 235 99l27 -11q-39 -119 -49 -168q-141 -82 -332 -82q-295 0 -438 197q-94 131 -95 322zM256 1130l223 365h180l228 -365h-101l-215 180 l-219 -180h-96zM395 647l2 -39v-2h312q2 16 2 49q0 256 -152 263q-129 0 -158 -191q-6 -39 -6 -80z" />
<glyph unicode="&#xeb;" horiz-adv-x="1075" d="M63 496q0 258 181 403q135 109 327 109q317 0 410 -254q31 -88 31 -201q0 -43 -2 -64h-613q0 -188 127 -288q80 -62 191 -62q117 0 235 99l27 -11q-39 -119 -49 -168q-141 -82 -332 -82q-295 0 -438 197q-94 131 -95 322zM237 1271q0 84 76 125q31 17 68 17q84 0 122 -78 l15 -43l2 -21q0 -84 -72 -125l-39 -14q-12 -2 -24 -2q-86 0 -129 72q-18 33 -19 69zM395 647l2 -39v-2h312q2 16 2 49q0 256 -152 263q-129 0 -158 -191q-6 -39 -6 -80zM622 1271q0 86 76 125q31 17 66 17q86 0 122 -74q16 -33 17 -68q0 -84 -72 -125q-29 -16 -63 -16 q-82 0 -125 72q-20 33 -21 69z" />
<glyph unicode="&#xec;" horiz-adv-x="583" d="M-74 1647q0 -53 33 -98l301 -418l57 22l-116 471q-37 150 -146 150q-78 0 -114 -68q-14 -29 -15 -59zM119 983q115 -12 172 -12q59 0 174 12q-12 -90 -19 -178l-2 -332v-2q0 -293 19 -471q-172 6 -174 6t-168 -6q14 110 14 188v613q-4 68 -16 182z" />
<glyph unicode="&#xed;" horiz-adv-x="583" d="M119 983q115 -12 172 -12q59 0 174 12q-12 -90 -19 -178l-2 -332v-2q0 -293 19 -471q-172 6 -174 6t-168 -6q14 110 14 188v613q-4 68 -16 182zM258 1155l119 471q16 94 84 133q25 14 53 15q84 0 121 -70q14 -27 15 -59q-4 -53 -33 -94l-299 -420z" />
<glyph unicode="&#xee;" horiz-adv-x="583" d="M-27 1130l223 365h180l228 -365h-101l-215 180l-219 -180h-96zM119 983q115 -12 172 -12q59 0 174 12q-12 -90 -19 -178l-2 -332v-2q0 -293 19 -471q-172 6 -174 6t-168 -6q14 110 14 188v613q-4 68 -16 182z" />
<glyph unicode="&#xef;" horiz-adv-x="583" d="M-43 1271q0 84 76 125q31 17 68 17q84 0 122 -78l15 -43l2 -21q0 -84 -72 -125l-39 -14q-12 -2 -24 -2q-86 0 -129 72q-18 33 -19 69zM119 983q115 -12 172 -12q59 0 174 12q-12 -90 -19 -178l-2 -332v-2q0 -293 19 -471q-172 6 -174 6t-168 -6q14 110 14 188v613 q-4 68 -16 182zM342 1271q0 86 76 125q31 17 66 17q86 0 122 -74q16 -33 17 -68q0 -84 -72 -125q-29 -16 -63 -16q-82 0 -125 72q-20 33 -21 69z" />
<glyph unicode="&#xf1;" d="M119 0q16 221 16 500q0 225 -16 483q94 -8 147 -8q92 0 166 8v-145q98 121 244 155q39 10 76 11q180 0 264 -142q43 -70 47 -162q0 -143 -2 -215q0 -258 14 -485q-111 8 -162 8q-53 0 -172 -8q14 287 15 492q0 92 -6 137q0 127 -80 170q-27 14 -62 14q-88 0 -127 -76 l-8 -18q-31 -70 -31 -232q0 -201 15 -487l-168 10q-31 0 -170 -10zM223 1131q29 193 160 244q37 14 82 14q68 0 166 -47t143 -47q61 0 96 67q6 12 13 27h88q-29 -193 -160 -244q-37 -14 -82 -14q-63 0 -188 57l-80 31l-41 6q-61 0 -96 -68l-13 -26h-88z" />
<glyph unicode="&#xf2;" horiz-adv-x="1140" d="M45 492q0 297 219 434q132 82 320 82q272 0 411 -189q98 -133 99 -321q0 -305 -215 -441q-127 -80 -310 -80q-287 0 -428 195q-96 129 -96 320zM221 1647q0 -53 33 -98l301 -418l57 22l-116 471q-37 150 -146 150q-78 0 -114 -68q-14 -29 -15 -59zM379 492 q0 -125 20 -236q14 -127 105 -166q31 -14 67 -14q135 0 172 178q0 -14 7 41q10 102 10 201q0 168 -17 233q-35 178 -174 178q-102 0 -143 -86q-47 -98 -47 -329z" />
<glyph unicode="&#xf3;" horiz-adv-x="1140" d="M45 492q0 297 219 434q132 82 320 82q272 0 411 -189q98 -133 99 -321q0 -305 -215 -441q-127 -80 -310 -80q-287 0 -428 195q-96 129 -96 320zM379 492q0 -125 20 -236q14 -127 105 -166q31 -14 67 -14q135 0 172 178q0 -14 7 41q10 102 10 201q0 168 -17 233 q-35 178 -174 178q-102 0 -143 -86q-47 -98 -47 -329zM552 1155l119 471q16 94 84 133q25 14 53 15q84 0 121 -70q14 -27 15 -59q-4 -53 -33 -94l-299 -420z" />
<glyph unicode="&#xf4;" horiz-adv-x="1140" d="M45 492q0 297 219 434q132 82 320 82q272 0 411 -189q98 -133 99 -321q0 -305 -215 -441q-127 -80 -310 -80q-287 0 -428 195q-96 129 -96 320zM268 1130l223 365h180l228 -365h-101l-215 180l-219 -180h-96zM379 492q0 -125 20 -236q14 -127 105 -166q31 -14 67 -14 q135 0 172 178q0 -14 7 41q10 102 10 201q0 168 -17 233q-35 178 -174 178q-102 0 -143 -86q-47 -98 -47 -329z" />
<glyph unicode="&#xf5;" horiz-adv-x="1140" d="M45 492q0 297 219 434q132 82 320 82q272 0 411 -189q98 -133 99 -321q0 -305 -215 -441q-127 -80 -310 -80q-287 0 -428 195q-96 129 -96 320zM209 1131q29 193 160 244q37 14 82 14q68 0 166 -47t143 -47q61 0 96 67q6 12 13 27h88q-29 -193 -160 -244q-37 -14 -82 -14 q-63 0 -188 57l-80 31l-41 6q-61 0 -96 -68l-13 -26h-88zM379 492q0 -125 20 -236q14 -127 105 -166q31 -14 67 -14q135 0 172 178q0 -14 7 41q10 102 10 201q0 168 -17 233q-35 178 -174 178q-102 0 -143 -86q-47 -98 -47 -329z" />
<glyph unicode="&#xf6;" horiz-adv-x="1140" d="M45 492q0 297 219 434q132 82 320 82q272 0 411 -189q98 -133 99 -321q0 -305 -215 -441q-127 -80 -310 -80q-287 0 -428 195q-96 129 -96 320zM250 1271q0 84 76 125q31 17 68 17q84 0 122 -78l15 -43l2 -21q0 -84 -72 -125l-39 -14q-12 -2 -24 -2q-86 0 -129 72 q-18 33 -19 69zM379 492q0 -125 20 -236q14 -127 105 -166q31 -14 67 -14q135 0 172 178q0 -14 7 41q10 102 10 201q0 168 -17 233q-35 178 -174 178q-102 0 -143 -86q-47 -98 -47 -329zM635 1271q0 86 76 125q31 17 66 17q86 0 122 -74q16 -33 17 -68q0 -84 -72 -125 q-29 -16 -63 -16q-82 0 -125 72q-20 33 -21 69z" />
<glyph unicode="&#xf7;" horiz-adv-x="1679" d="M250 504v194h1180v-194h-1180zM684 987q0 88 80 131q33 19 72 19q74 0 122 -70q27 -37 27 -78q0 -72 -65 -121l-41 -22q-20 -8 -43 -8q-94 0 -136 80q-16 33 -16 69zM686 215q0 88 80 131q33 19 72 19q74 0 123 -70q27 -37 26 -78q0 -74 -67 -123q-39 -29 -82 -28 q-94 0 -136 79q-16 33 -16 70z" />
<glyph unicode="&#xf9;" d="M111 983q129 -14 163 -14q41 0 170 14q-8 -152 -12 -313q0 -4 -2 -107q0 -76 2 -151q0 -215 115 -242q16 -4 37 -4q121 0 149 172q2 4 2 8q6 74 6 143q0 244 -12 494q125 -14 176 -14q37 0 162 14q-16 -223 -16 -502q0 -266 16 -479q-102 4 -155.5 4t-155.5 -4v137 q-113 -133 -271 -157l-53 -5q-182 0 -266 142q-39 70 -43 160q0 145 2 217q0 258 -14 487zM225 1647q0 -53 33 -98l301 -418l57 22l-116 471q-37 150 -146 150q-78 0 -114 -68q-14 -29 -15 -59z" />
<glyph unicode="&#xfa;" d="M111 983q129 -14 163 -14q41 0 170 14q-8 -152 -12 -313q0 -4 -2 -107q0 -76 2 -151q0 -215 115 -242q16 -4 37 -4q121 0 149 172q2 4 2 8q6 74 6 143q0 244 -12 494q125 -14 176 -14q37 0 162 14q-16 -223 -16 -502q0 -266 16 -479q-102 4 -155.5 4t-155.5 -4v137 q-113 -133 -271 -157l-53 -5q-182 0 -266 142q-39 70 -43 160q0 145 2 217q0 258 -14 487zM559 1155l119 471q16 94 84 133q25 14 53 15q84 0 121 -70q14 -27 15 -59q-4 -53 -33 -94l-299 -420z" />
<glyph unicode="&#xfb;" d="M111 983q129 -14 163 -14q41 0 170 14q-8 -152 -12 -313q0 -4 -2 -107q0 -76 2 -151q0 -215 115 -242q16 -4 37 -4q121 0 149 172q2 4 2 8q6 74 6 143q0 244 -12 494q125 -14 176 -14q37 0 162 14q-16 -223 -16 -502q0 -266 16 -479q-102 4 -155.5 4t-155.5 -4v137 q-113 -133 -271 -157l-53 -5q-182 0 -266 142q-39 70 -43 160q0 145 2 217q0 258 -14 487zM272 1130l223 365h180l228 -365h-101l-215 180l-219 -180h-96z" />
<glyph unicode="&#xfc;" d="M111 983q129 -14 163 -14q41 0 170 14q-8 -152 -12 -313q0 -4 -2 -107q0 -76 2 -151q0 -215 115 -242q16 -4 37 -4q121 0 149 172q2 4 2 8q6 74 6 143q0 244 -12 494q125 -14 176 -14q37 0 162 14q-16 -223 -16 -502q0 -266 16 -479q-102 4 -155.5 4t-155.5 -4v137 q-113 -133 -271 -157l-53 -5q-182 0 -266 142q-39 70 -43 160q0 145 2 217q0 258 -14 487zM256 1271q0 84 76 125q31 17 68 17q84 0 122 -78l15 -43l2 -21q0 -84 -72 -125l-39 -14q-12 -2 -24 -2q-86 0 -129 72q-18 33 -19 69zM641 1271q0 86 76 125q31 17 66 17 q86 0 122 -74q16 -33 17 -68q0 -84 -72 -125q-29 -16 -63 -16q-82 0 -125 72q-20 33 -21 69z" />
<glyph unicode="&#xfd;" horiz-adv-x="962" d="M0 983q131 -8 199 -8q61 0 172 8q70 -279 190 -606l107 305q41 121 88 301q31 -4 96 -8l135 8q-377 -821 -627 -1534q-55 8 -116 8q-66 0 -117 -8q94 145 162 291l108 235l-284 734q-76 190 -113 274zM462 1155l119 471q16 94 84 133q25 14 53 15q84 0 121 -70 q14 -27 15 -59q-4 -53 -33 -94l-299 -420z" />
<glyph unicode="&#xff;" horiz-adv-x="962" d="M0 983q131 -8 199 -8q61 0 172 8q70 -279 190 -606l107 305q41 121 88 301q31 -4 96 -8l135 8q-377 -821 -627 -1534q-55 8 -116 8q-66 0 -117 -8q94 145 162 291l108 235l-284 734q-76 190 -113 274zM160 1271q0 84 76 125q31 17 68 17q84 0 122 -78l15 -43l2 -21 q0 -84 -72 -125l-39 -14q-12 -2 -24 -2q-86 0 -129 72q-18 33 -19 69zM545 1271q0 86 76 125q31 17 66 17q86 0 122 -74q16 -33 17 -68q0 -84 -72 -125q-29 -16 -63 -16q-82 0 -125 72q-20 33 -21 69z" />
<glyph unicode="&#x106;" horiz-adv-x="1327" d="M63 684q0 362 263 559q207 156 514 156q203 0 475 -107q-47 -141 -68 -245h-28q-70 178 -279 208l-74 7q-258 0 -377 -240l-34 -86l-25 -102l-10 -113v-14q0 -268 131 -435q119 -152 313 -151q248 0 375 139q12 12 23 27l32 -15q-27 -88 -47 -204q-168 -94 -428 -95 q-385 0 -592 234q-164 184 -164 477zM808 1546l119 471q16 94 84 133q25 14 53 15q84 0 121 -70q14 -27 15 -59q-4 -53 -33 -94l-299 -420z" />
<glyph unicode="&#x107;" horiz-adv-x="972" d="M53 479q0 266 195 416q145 113 352 113q160 0 320 -66q-25 -88 -54 -260h-37q-31 156 -145 192q-28 11 -61 11q-145 0 -203 -176l-21 -86l-4 -68q0 -221 101 -342q72 -84 182 -84q129 0 213 64q2 4 6 6l14 -13l-43 -155q-115 -53 -270 -54q-272 0 -426 170 q-119 133 -119 332zM569 1155l119 471q16 94 84 133q25 14 53 15q84 0 121 -70q14 -27 15 -59q-4 -53 -33 -94l-299 -420z" />
<glyph unicode="&#x108;" horiz-adv-x="1327" d="M63 684q0 362 263 559q207 156 514 156q203 0 475 -107q-47 -141 -68 -245h-28q-70 178 -279 208l-74 7q-258 0 -377 -240l-34 -86l-25 -102l-10 -113v-14q0 -268 131 -435q119 -152 313 -151q248 0 375 139q12 12 23 27l32 -15q-27 -88 -47 -204q-168 -94 -428 -95 q-385 0 -592 234q-164 184 -164 477zM524 1522l223 365h180l228 -365h-101l-215 180l-219 -180h-96z" />
<glyph unicode="&#x109;" horiz-adv-x="972" d="M53 479q0 266 195 416q145 113 352 113q160 0 320 -66q-25 -88 -54 -260h-37q-31 156 -145 192q-28 11 -61 11q-145 0 -203 -176l-21 -86l-4 -68q0 -221 101 -342q72 -84 182 -84q129 0 213 64q2 4 6 6l14 -13l-43 -155q-115 -53 -270 -54q-272 0 -426 170 q-119 133 -119 332zM285 1130l223 365h180l228 -365h-101l-215 180l-219 -180h-96z" />
<glyph unicode="&#x10a;" horiz-adv-x="1327" d="M63 684q0 362 263 559q207 156 514 156q203 0 475 -107q-47 -141 -68 -245h-28q-70 178 -279 208l-74 7q-258 0 -377 -240l-34 -86l-25 -102l-10 -113v-14q0 -268 131 -435q119 -152 313 -151q248 0 375 139q12 12 23 27l32 -15q-27 -88 -47 -204q-168 -94 -428 -95 q-385 0 -592 234q-164 184 -164 477zM663 1696q0 100 86 149q41 25 90 25q84 0 142 -76l22 -43l11 -47v-6q0 -82 -76 -142l-43 -24l-47 -11h-9q-106 0 -155 91q-20 39 -21 84z" />
<glyph unicode="&#x10b;" horiz-adv-x="972" d="M53 479q0 266 195 416q145 113 352 113q160 0 320 -66q-25 -88 -54 -260h-37q-31 156 -145 192q-28 11 -61 11q-145 0 -203 -176l-21 -86l-4 -68q0 -221 101 -342q72 -84 182 -84q129 0 213 64q2 4 6 6l14 -13l-43 -155q-115 -53 -270 -54q-272 0 -426 170 q-119 133 -119 332zM424 1305q0 100 86 149q41 25 90 25q84 0 142 -76l22 -43l11 -47v-6q0 -82 -76 -142l-43 -24l-47 -11h-9q-106 0 -155 91q-20 39 -21 84z" />
<glyph unicode="&#x116;" horiz-adv-x="1036" d="M135 0q25 217 25 328l2 356v2q0 387 -27 688q131 -4 393 -8l424 8q-8 -57 -8 -88t8 -92q-225 16 -338 16l-110 -2h-2q-6 -203 -6 -403q147 4 442 16q-8 -61 -8 -92q0 -49 6 -94q-262 18 -440 18v-217q0 -154 8 -270q221 0 440 24q-6 -49 -6 -96q0 -2 6 -94 q-293 10 -530 10zM368 1696q0 100 86 149q41 25 90 25q84 0 142 -76l22 -43l11 -47v-6q0 -82 -76 -142l-43 -24l-47 -11h-9q-106 0 -155 91q-20 39 -21 84z" />
<glyph unicode="&#x117;" horiz-adv-x="1075" d="M63 496q0 258 181 403q135 109 327 109q317 0 410 -254q31 -88 31 -201q0 -43 -2 -64h-613q0 -188 127 -288q80 -62 191 -62q117 0 235 99l27 -11q-39 -119 -49 -168q-141 -82 -332 -82q-295 0 -438 197q-94 131 -95 322zM395 647l2 -39v-2h312q2 16 2 49q0 256 -152 263 q-129 0 -158 -191q-6 -39 -6 -80zM395 1305q0 100 86 149q41 25 90 25q84 0 142 -76l22 -43l11 -47v-6q0 -82 -76 -142l-43 -24l-47 -11h-9q-106 0 -155 91q-20 39 -21 84z" />
<glyph unicode="&#x11c;" horiz-adv-x="1497" d="M63 680q0 377 275 575q211 152 522 152q283 0 510 -131q-49 -119 -74 -248h-24q-117 205 -332 236l-61 4q-223 0 -353 -199l-43 -78l-30 -90l-19 -90q0 -16 -10 -119q0 -115 10 -139q31 -238 197 -356q104 -74 241 -74q90 0 181 24q0 254 -21 488q61 -6 185 -10 q123 4 182 12q-16 -285 -17 -322q0 -137 9 -245q-308 -93 -576 -93q-379 0 -584 226q-168 184 -168 477zM545 1530l223 365h180l228 -365h-101l-215 180l-219 -180h-96z" />
<glyph unicode="&#x11d;" horiz-adv-x="1032" d="M35 -258q0 145 131 217q39 20 88 31v10q-92 18 -129 102q-12 31 -12 64q0 111 123 174q39 23 79 31v30q-139 14 -209 131q-39 66 -38 142q0 193 182 282q102 51 227 52q27 0 88 -4l223 -25q51 -6 107 -6q47 0 160 10v-121l-197 6q82 -51 82 -163q0 -252 -291 -318 l-110 -16q-39 -4 -80 -4q-90 0 -107 -52l-4 -20q0 -66 125 -80l270 -16q246 -31 293 -199l13 -74v-26q0 -256 -250 -377l-92 -37q-115 -37 -244 -37q-233 0 -352 111q-76 72 -76 182zM162 1130l223 365h180l228 -365h-101l-215 180l-219 -180h-96zM250 -211q0 -141 141 -199 q57 -25 127 -24q150 0 230 94q49 57 49 135q0 90 -72 131q-8 6 -18 11q-86 37 -285 43q-43 0 -68 2q-104 -62 -104 -193zM365 686q12 -227 127 -237q143 0 145 245q0 225 -133 226q-129 0 -139 -207v-27z" />
<glyph unicode="&#x120;" horiz-adv-x="1497" d="M63 680q0 377 275 575q211 152 522 152q283 0 510 -131q-49 -119 -74 -248h-24q-117 205 -332 236l-61 4q-223 0 -353 -199l-43 -78l-30 -90l-19 -90q0 -16 -10 -119q0 -115 10 -139q31 -238 197 -356q104 -74 241 -74q90 0 181 24q0 254 -21 488q61 -6 185 -10 q123 4 182 12q-16 -285 -17 -322q0 -137 9 -245q-308 -93 -576 -93q-379 0 -584 226q-168 184 -168 477zM684 1704q0 100 86 149q41 25 90 25q84 0 142 -76l22 -43l11 -47v-6q0 -82 -76 -142l-43 -24l-47 -11h-9q-106 0 -155 91q-20 39 -21 84z" />
<glyph unicode="&#x121;" horiz-adv-x="1032" d="M35 -258q0 145 131 217q39 20 88 31v10q-92 18 -129 102q-12 31 -12 64q0 111 123 174q39 23 79 31v30q-139 14 -209 131q-39 66 -38 142q0 193 182 282q102 51 227 52q27 0 88 -4l223 -25q51 -6 107 -6q47 0 160 10v-121l-197 6q82 -51 82 -163q0 -252 -291 -318 l-110 -16q-39 -4 -80 -4q-90 0 -107 -52l-4 -20q0 -66 125 -80l270 -16q246 -31 293 -199l13 -74v-26q0 -256 -250 -377l-92 -37q-115 -37 -244 -37q-233 0 -352 111q-76 72 -76 182zM250 -211q0 -141 141 -199q57 -25 127 -24q150 0 230 94q49 57 49 135q0 90 -72 131 q-8 6 -18 11q-86 37 -285 43q-43 0 -68 2q-104 -62 -104 -193zM301 1305q0 100 86 149q41 25 90 25q84 0 142 -76l22 -43l11 -47v-6q0 -82 -76 -142l-43 -24l-47 -11h-9q-106 0 -155 91q-20 39 -21 84zM365 686q12 -227 127 -237q143 0 145 245q0 225 -133 226 q-129 0 -139 -207v-27z" />
<glyph unicode="&#x124;" horiz-adv-x="1546" d="M135 0l21 395v25l2 258v2q0 279 -11 481l-12 213l195 -14q35 0 182 14q-16 -145 -16 -323v-220l266 -6q145 0 287 6v220q0 178 -17 323l193 -14l188 14q-27 -295 -27 -694q0 -385 27 -680q-154 10 -188 10l-193 -10q16 113 17 297v358q-188 8 -287 9q-180 -4 -266 -9 v-358q0 -166 16 -297q-131 8 -193 8q-61 0 -184 -8zM459 1522l223 365h180l228 -365h-101l-215 180l-219 -180h-96z" />
<glyph unicode="&#x125;" d="M119 0q16 250 16 758q0 504 -16 751q51 -4 149 -8q106 0 189 8q-10 -125 -11 -307v-342q116 148 306 148q174 0 262 -129l28 -58l17 -67q4 -25 4 -49l2 -107v-2l-4 -229v-2q0 -203 16 -365q-111 8 -164 8t-172 -8q16 164 17 492q0 70 -6 137q-16 184 -144 184 q-96 0 -135 -94q-29 -80 -29 -230q0 -162 13 -489l-168 10q-31 0 -170 -10zM283 1632l223 365h180l228 -365h-101l-215 180l-219 -180h-96z" />
<glyph unicode="&#x128;" horiz-adv-x="659" d="M-43 1522q29 193 160 244q37 14 82 14q68 0 166 -47t143 -47q61 0 96 67q6 12 13 27h88q-29 -193 -160 -244q-37 -14 -82 -14q-63 0 -188 57l-80 31l-41 6q-61 0 -96 -68l-13 -26h-88zM139 0q25 264 25 594q0 494 -25 780q154 -14 187 -14l194 14q-25 -279 -24 -688 q0 -412 24 -686q-139 8 -205 8q-119 -4 -176 -8z" />
<glyph unicode="&#x129;" horiz-adv-x="583" d="M-84 1131q29 193 160 244q37 14 82 14q68 0 166 -47t143 -47q61 0 96 67q6 12 13 27h88q-29 -193 -160 -244q-37 -14 -82 -14q-63 0 -188 57l-80 31l-41 6q-61 0 -96 -68l-13 -26h-88zM119 983q115 -12 172 -12q59 0 174 12q-12 -90 -19 -178l-2 -332v-2q0 -293 19 -471 q-172 6 -174 6t-168 -6q14 110 14 188v613q-4 68 -16 182z" />
<glyph unicode="&#x130;" horiz-adv-x="659" d="M139 0q25 264 25 594q0 494 -25 780q154 -14 187 -14l194 14q-25 -279 -24 -688q0 -412 24 -686q-139 8 -205 8q-119 -4 -176 -8zM153 1696q0 100 86 149q41 25 90 25q84 0 142 -76l22 -43l11 -47v-6q0 -82 -76 -142l-43 -24l-47 -11h-9q-106 0 -155 91q-20 39 -21 84z " />
<glyph unicode="&#x131;" horiz-adv-x="583" d="M119 983q115 -12 172 -12q59 0 174 12q-12 -90 -19 -178l-2 -332v-2q0 -293 19 -471q-172 6 -174 6t-168 -6q14 110 14 188v613q-4 68 -16 182z" />
<glyph unicode="&#x134;" horiz-adv-x="659" d="M-55 -211q25 -2 73 -2q125 8 146 168q4 29 8 88q2 92 2 281q0 346 -24 1050l165 -8l211 8q-23 -432 -22 -710l8 -349q0 -109 -2 -159q0 -236 -176 -375q-135 -106 -320 -107q-25 4 -51 7zM23 1522l223 365h180l228 -365h-101l-215 180l-219 -180h-96z" />
<glyph unicode="&#x135;" horiz-adv-x="583" d="M-92 -451q213 0 227 295v35q4 332 4 498q0 403 -16 606q53 -6 166 -10q113 4 164 10q-2 -86 -2 -260l10 -768v-2q-18 -408 -389 -473l-111 -12h-35zM-22 1106l223 365h180l228 -365h-101l-215 180l-219 -180h-96z" />
<glyph unicode="&#x139;" horiz-adv-x="958" d="M135 0q27 248 27 686q0 387 -27 688l184 -6l199 6q-20 -219 -20 -463v-475l4 -252q2 -10 2 -18q221 0 440 24q-6 -49 -6 -96q0 -2 6 -94q-293 10 -530 10zM296 1546l119 471q16 94 84 133q25 14 53 15q84 0 121 -70q14 -27 15 -59q-4 -53 -33 -94l-299 -420z" />
<glyph unicode="&#x13a;" horiz-adv-x="600" d="M127 0q18 446 18 739q0 84 -10 504l-8 266q133 -14 170 -14q39 0 168 14q-18 -383 -19 -770q0 -240 7 -473l12 -266q-129 14 -168 14q-37 0 -170 -14zM264 1657l119 471q16 94 84 133q25 14 53 15q84 0 121 -70q14 -27 15 -59q-4 -53 -33 -94l-299 -420z" />
<glyph unicode="&#x141;" horiz-adv-x="573" />
<glyph unicode="&#x142;" horiz-adv-x="573" />
<glyph unicode="&#x143;" horiz-adv-x="1488" d="M127 0q23 268 23 655q0 293 -11 506l-6 213q39 -4 129 -8q86 4 135 8q397 -500 770 -895v379q0 274 -14 516q74 -8 107 -8q51 0 112 10q-18 -129 -22 -289q-6 -272 -7 -815q4 -156 15 -272q-96 10 -121 10q-18 0 -121 -10q-393 479 -790 911v-555q2 -119 10 -356l-100 10 zM1341 1546l119 471q16 94 84 133q25 14 53 15q84 0 121 -70q14 -27 15 -59q-4 -53 -33 -94l-299 -420z" />
<glyph unicode="&#x144;" d="M119 0q16 221 16 500q0 225 -16 483q94 -8 147 -8q92 0 166 8v-145q98 121 244 155q39 10 76 11q180 0 264 -142q43 -70 47 -162q0 -143 -2 -215q0 -258 14 -485q-111 8 -162 8q-53 0 -172 -8q14 287 15 492q0 92 -6 137q0 127 -80 170q-27 14 -62 14q-88 0 -127 -76 l-8 -18q-31 -70 -31 -232q0 -201 15 -487l-168 10q-31 0 -170 -10zM567 1155l119 471q16 94 84 133q25 14 53 15q84 0 121 -70q14 -27 15 -59q-4 -53 -33 -94l-299 -420z" />
<glyph unicode="&#x153;" horiz-adv-x="1007" d="M0 410v211h1008v-211h-1008z" />
<glyph unicode="&#x154;" horiz-adv-x="1232" d="M129 0q29 344 29 588q0 416 -29 786q68 -6 141 -6l351 14q334 0 446 -129l35 -49l24 -61l13 -80q2 -16 2 -35q0 -176 -135 -276q-78 -57 -179 -66q188 -324 443 -686l-158 8q-111 0 -258 -8q-109 233 -379 645v-264q0 -211 17 -381q-147 10 -179 10zM473 745 q330 1 330 271q0 160 -125 215l-60 16q-14 4 -30 4q-35 2 -109 2q-6 -115 -6 -227v-281zM589 1546l119 471q16 94 84 133q25 14 53 15q84 0 121 -70q14 -27 15 -59q-4 -53 -33 -94l-299 -420z" />
<glyph unicode="&#x155;" horiz-adv-x="768" d="M119 0q16 215 16 481q0 233 -16 502q51 -4 149 -8q51 0 170 8q-25 -88 -24 -240h12q72 236 246 263q14 2 28 2q16 0 45 -4q-18 -141 -18 -330q-76 43 -127 43q-160 0 -160 -240q4 -340 19 -477l-170 10q-31 0 -170 -10zM401 1155l119 471q16 94 84 133q25 14 53 15 q84 0 121 -70q14 -27 15 -59q-4 -53 -33 -94l-299 -420z" />
<glyph unicode="&#x15a;" horiz-adv-x="1093" d="M82 39q16 78 63 332h31q53 -174 146 -226q63 -35 159 -34q117 0 197 79q51 53 51 121q0 119 -149 203l-273 133q-197 109 -217 281q-4 25 -4 51q0 236 219 350q133 70 303 70q186 0 361 -84q-47 -115 -82 -264h-23q-55 156 -194 198l-64 15h-24q-150 0 -203 -97 q-20 -35 -23 -77q0 -100 148 -183l276 -135q168 -92 215 -213q23 -55 23 -123q0 -262 -246 -387q-147 -76 -338 -76q-195 0 -352 66zM577 1546l119 471q16 94 84 133q25 14 53 15q84 0 121 -70q14 -27 15 -59q-4 -53 -33 -94l-299 -420z" />
<glyph unicode="&#x15b;" horiz-adv-x="860" d="M63 39l50 252h28q68 -203 238 -207q106 0 156 61q20 27 20 62q0 78 -111 127l-190 76q-170 100 -178 264q0 197 178 287q96 47 217 47q117 0 289 -66q-53 -152 -76 -225h-20q-53 180 -215 180q-100 0 -136 -68l-10 -38v-9q0 -72 113 -116l200 -74q141 -63 175 -174 l10 -64v-18q0 -213 -185 -307l-73 -31q-70 -20 -150 -21q-193 0 -330 62zM440 1155l119 471q16 94 84 133q25 14 53 15q84 0 121 -70q14 -27 15 -59q-4 -53 -33 -94l-299 -420z" />
<glyph unicode="&#x15c;" horiz-adv-x="1093" d="M82 39q16 78 63 332h31q53 -174 146 -226q63 -35 159 -34q117 0 197 79q51 53 51 121q0 119 -149 203l-273 133q-197 109 -217 281q-4 25 -4 51q0 236 219 350q133 70 303 70q186 0 361 -84q-47 -115 -82 -264h-23q-55 156 -194 198l-64 15h-24q-150 0 -203 -97 q-20 -35 -23 -77q0 -100 148 -183l276 -135q168 -92 215 -213q23 -55 23 -123q0 -262 -246 -387q-147 -76 -338 -76q-195 0 -352 66zM293 1522l223 365h180l228 -365h-101l-215 180l-219 -180h-96z" />
<glyph unicode="&#x15d;" horiz-adv-x="860" d="M63 39l50 252h28q68 -203 238 -207q106 0 156 61q20 27 20 62q0 78 -111 127l-190 76q-170 100 -178 264q0 197 178 287q96 47 217 47q117 0 289 -66q-53 -152 -76 -225h-20q-53 180 -215 180q-100 0 -136 -68l-10 -38v-9q0 -72 113 -116l200 -74q141 -63 175 -174 l10 -64v-18q0 -213 -185 -307l-73 -31q-70 -20 -150 -21q-193 0 -330 62zM156 1130l223 365h180l228 -365h-101l-215 180l-219 -180h-96z" />
<glyph unicode="&#x168;" horiz-adv-x="1472" d="M121 1374l190 -8l189 8q-27 -297 -27 -753q0 -303 115 -402q70 -57 180 -57q172 0 279 121q59 68 73 159q16 141 17 365q0 315 -25 567l84 -8h2q61 0 143 8q-20 -260 -20 -467l4 -198q0 -104 -4 -156q0 -520 -485 -569l-107 -7q-442 0 -551 291q-25 70 -31 154 q-10 137 -16 627q-2 192 -10 325zM356 1522q29 193 160 244q37 14 82 14q68 0 166 -47t143 -47q61 0 96 67q6 12 13 27h88q-29 -193 -160 -244q-37 -14 -82 -14q-63 0 -188 57l-80 31l-41 6q-61 0 -96 -68l-13 -26h-88z" />
<glyph unicode="&#x169;" d="M111 983q129 -14 163 -14q41 0 170 14q-8 -152 -12 -313q0 -4 -2 -107q0 -76 2 -151q0 -215 115 -242q16 -4 37 -4q121 0 149 172q2 4 2 8q6 74 6 143q0 244 -12 494q125 -14 176 -14q37 0 162 14q-16 -223 -16 -502q0 -266 16 -479q-102 4 -155.5 4t-155.5 -4v137 q-113 -133 -271 -157l-53 -5q-182 0 -266 142q-39 70 -43 160q0 145 2 217q0 258 -14 487zM215 1131q29 193 160 244q37 14 82 14q68 0 166 -47t143 -47q61 0 96 67q6 12 13 27h88q-29 -193 -160 -244q-37 -14 -82 -14q-63 0 -188 57l-80 31l-41 6q-61 0 -96 -68l-13 -26 h-88z" />
<glyph unicode="&#x16e;" horiz-adv-x="1472" d="M121 1374l190 -8l189 8q-27 -297 -27 -753q0 -303 115 -402q70 -57 180 -57q172 0 279 121q59 68 73 159q16 141 17 365q0 315 -25 567l84 -8h2q61 0 143 8q-20 -260 -20 -467l4 -198q0 -104 -4 -156q0 -520 -485 -569l-107 -7q-442 0 -551 291q-25 70 -31 154 q-10 137 -16 627q-2 192 -10 325zM510 1743q0 119 98 184q55 37 123 37q119 0 184 -98l25 -49l12 -58v-16q0 -119 -100 -184q-55 -37 -121 -37q-117 0 -182 96q-39 55 -39 125zM614 1743q0 -78 68 -106q23 -10 49 -11q76 0 107 70q10 22 10 47q0 76 -70 107q-23 10 -47 10 q-78 0 -106 -70q-10 -23 -11 -47z" />
<glyph unicode="&#x16f;" d="M111 983q129 -14 163 -14q41 0 170 14q-8 -152 -12 -313q0 -4 -2 -107q0 -76 2 -151q0 -215 115 -242q16 -4 37 -4q121 0 149 172q2 4 2 8q6 74 6 143q0 244 -12 494q125 -14 176 -14q37 0 162 14q-16 -223 -16 -502q0 -266 16 -479q-102 4 -155.5 4t-155.5 -4v137 q-113 -133 -271 -157l-53 -5q-182 0 -266 142q-39 70 -43 160q0 145 2 217q0 258 -14 487zM367 1352q0 119 98 184q55 37 123 37q119 0 184 -98l25 -49l12 -58v-16q0 -119 -100 -184q-55 -37 -121 -37q-117 0 -182 96q-39 55 -39 125zM471 1352q0 -78 68 -106q23 -10 49 -11 q76 0 107 70q10 22 10 47q0 76 -70 107q-23 10 -47 10q-78 0 -106 -70q-10 -23 -11 -47z" />
<glyph unicode="&#x174;" horiz-adv-x="1955" d="M-12 1374q127 -8 196 -8l193 8q88 -395 241 -934l316 934q37 -4 115 -8l135 8q90 -338 289 -936q141 453 247 936l121 -8q39 0 113 8l-139 -426l-312 -948q-78 8 -121 8q-39 0 -120 -8q-35 119 -170 537l-129 383q-160 -408 -312 -920l-121 10q-27 0 -129 -10 q-159 608 -413 1374zM655 1522l223 365h180l228 -365h-101l-215 180l-219 -180h-96z" />
<glyph unicode="&#x175;" horiz-adv-x="1536" d="M10 983l180 -10l177 10q66 -309 163 -633q68 211 119 395l66 238l141 -10l143 10q31 -139 105 -418l61 -215l97 350q33 119 65 283q86 -10 109 -10q18 0 110 10q-68 -170 -135 -360l-213 -623q-82 8 -125 8l-125 -8l-119 424l-59 199q-98 -297 -192 -623q-90 8 -132 8 q-43 0 -129 -8zM463 1130l223 365h180l228 -365h-101l-215 180l-219 -180h-96z" />
<glyph unicode="&#x176;" horiz-adv-x="1101" d="M-45 1374q53 -4 180 -8q78 0 242 8q141 -311 274 -557q137 223 287 557q37 -4 111 -8l125 8q-223 -328 -441 -753q0 -201 6 -410l9 -211l-136 8h-2q-102 0 -233 -8l18 340v10q0 174 -2 244l-194 364l-191 334q-27 43 -53 82zM248 1522l223 365h180l228 -365h-101 l-215 180l-219 -180h-96z" />
<glyph unicode="&#x177;" horiz-adv-x="962" d="M0 983q131 -8 199 -8q61 0 172 8q70 -279 190 -606l107 305q41 121 88 301q31 -4 96 -8l135 8q-377 -821 -627 -1534q-55 8 -116 8q-66 0 -117 -8q94 145 162 291l108 235l-284 734q-76 190 -113 274zM178 1130l223 365h180l228 -365h-101l-215 180l-219 -180h-96z" />
<glyph unicode="&#x178;" horiz-adv-x="1101" d="M-45 1374q53 -4 180 -8q78 0 242 8q141 -311 274 -557q137 223 287 557q37 -4 111 -8l125 8q-223 -328 -441 -753q0 -201 6 -410l9 -211l-136 8h-2q-102 0 -233 -8l18 340v10q0 174 -2 244l-194 364l-191 334q-27 43 -53 82zM231 1663q0 84 76 125q31 17 68 17 q84 0 122 -78l15 -43l2 -21q0 -84 -72 -125l-39 -14q-12 -2 -24 -2q-86 0 -129 72q-18 33 -19 69zM616 1663q0 86 76 125q31 17 66 17q86 0 122 -74q16 -33 17 -68q0 -84 -72 -125q-29 -16 -63 -16q-82 0 -125 72q-20 33 -21 69z" />
<glyph unicode="&#x179;" horiz-adv-x="1224" d="M37 0v80l694 1118h-297q-160 0 -289 -16l11 75q0 61 -11 117q174 -4 510 -8q178 0 547 8v-43l-713 -1157h347q221 0 391 27q-8 -59 -8 -138l2 -63q-381 8 -568 8q-207 0 -616 -8zM643 1546l119 471q16 94 84 133q25 14 53 15q84 0 121 -70q14 -27 15 -59q-4 -53 -33 -94 l-299 -420z" />
<glyph unicode="&#x17a;" horiz-adv-x="978" d="M29 0v111l501 725l-151 2h-2q-92 0 -281 -25q4 53 4 84q0 29 -4 86q264 -8 402 -10q186 0 428 10v-117q-221 -274 -512 -721l137 -4h2q41 0 391 17q-4 -35 -4 -107l4 -51q-389 10 -452 10q-203 0 -463 -10zM481 1155l119 471q16 94 84 133q25 14 53 15q84 0 121 -70 q14 -27 15 -59q-4 -53 -33 -94l-299 -420z" />
<glyph unicode="&#x17b;" horiz-adv-x="1224" d="M37 0v80l694 1118h-297q-160 0 -289 -16l11 75q0 61 -11 117q174 -4 510 -8q178 0 547 8v-43l-713 -1157h347q221 0 391 27q-8 -59 -8 -138l2 -63q-381 8 -568 8q-207 0 -616 -8zM497 1696q0 100 86 149q41 25 90 25q84 0 142 -76l22 -43l11 -47v-6q0 -82 -76 -142 l-43 -24l-47 -11h-9q-106 0 -155 91q-20 39 -21 84z" />
<glyph unicode="&#x17c;" horiz-adv-x="978" d="M29 0v111l501 725l-151 2h-2q-92 0 -281 -25q4 53 4 84q0 29 -4 86q264 -8 402 -10q186 0 428 10v-117q-221 -274 -512 -721l137 -4h2q41 0 391 17q-4 -35 -4 -107l4 -51q-389 10 -452 10q-203 0 -463 -10zM336 1305q0 100 86 149q41 25 90 25q84 0 142 -76l22 -43 l11 -47v-6q0 -82 -76 -142l-43 -24l-47 -11h-9q-106 0 -155 91q-20 39 -21 84z" />
<glyph unicode="&#x1a0;" horiz-adv-x="2222" d="M59 686q14 418 326 600q193 113 467 113q393 0 594 -230q156 -174 156 -452q0 -428 -308 -619l-88 -47q-168 -74 -391 -74q-449 0 -641 283q-115 170 -115 426zM424 686q0 -262 117 -428q108 -152 288 -152q256 0 359 283q51 139 51 307q0 270 -125 432 q-104 139 -278 140q-262 0 -365 -283l-29 -104q-18 -94 -18 -195zM914 697l125 530q27 125 108 162q25 10 52 10q88 0 131 -78l16 -43l2 -28q0 -47 -37 -107l-342 -469z" />
<glyph unicode="&#x1a1;" horiz-adv-x="1697" d="M45 492q0 297 219 434q132 82 320 82q272 0 411 -189q98 -133 99 -321q0 -305 -215 -441q-127 -80 -310 -80q-287 0 -428 195q-96 129 -96 320zM379 492q0 -125 20 -236q14 -127 105 -166q31 -14 67 -14q135 0 172 178q0 -14 7 41q10 102 10 201q0 168 -17 233 q-35 178 -174 178q-102 0 -143 -86q-47 -98 -47 -329zM645 305l125 530q27 125 108 162q25 10 52 10q88 0 131 -78l16 -43l2 -28q0 -47 -37 -107l-342 -469z" />
<glyph unicode="&#x1af;" horiz-adv-x="2029" d="M121 1374l190 -8l189 8q-27 -297 -27 -753q0 -303 115 -402q70 -57 180 -57q172 0 279 121q59 68 73 159q16 141 17 365q0 315 -25 567l84 -8h2q61 0 143 8q-20 -260 -20 -467l4 -198q0 -104 -4 -156q0 -520 -485 -569l-107 -7q-442 0 -551 291q-25 70 -31 154 q-10 137 -16 627q-2 192 -10 325zM1403 697l125 530q27 125 108 162q25 10 52 10q88 0 131 -78l16 -43l2 -28q0 -47 -37 -107l-342 -469z" />
<glyph unicode="&#x1b0;" horiz-adv-x="1748" d="M111 983q129 -14 163 -14q41 0 170 14q-8 -152 -12 -313q0 -4 -2 -107q0 -76 2 -151q0 -215 115 -242q16 -4 37 -4q121 0 149 172q2 4 2 8q6 74 6 143q0 244 -12 494q125 -14 176 -14q37 0 162 14q-16 -223 -16 -502q0 -266 16 -479q-102 4 -155.5 4t-155.5 -4v137 q-113 -133 -271 -157l-53 -5q-182 0 -266 142q-39 70 -43 160q0 145 2 217q0 258 -14 487zM1129 305l125 530q27 125 108 162q25 10 52 10q88 0 131 -78l16 -43l2 -28q0 -47 -37 -107l-342 -469z" />
<glyph unicode="&#x2da;" horiz-adv-x="681" d="M121 1325q0 119 98 184q55 37 123 37q119 0 184 -98l25 -49l12 -58v-16q0 -119 -100 -184q-55 -37 -121 -37q-117 0 -182 96q-39 55 -39 125zM225 1325q0 -78 68 -106q23 -10 49 -11q76 0 107 70q10 22 10 47q0 76 -70 107q-23 10 -47 10q-78 0 -106 -70q-10 -23 -11 -47 z" />
<glyph unicode="&#x2dc;" horiz-adv-x="681" d="M-33 1186q29 193 160 244q37 14 82 14q68 0 166 -47t143 -47q61 0 96 67q6 12 13 27h88q-29 -193 -160 -244q-37 -14 -82 -14q-63 0 -188 57l-80 31l-41 6q-61 0 -96 -68l-13 -26h-88z" />
<glyph unicode="&#x384;" horiz-adv-x="530" d="M-41 1114l274 293q70 70 101 84q25 10 49 10q68 0 98 -63q10 -23 11 -45q0 -70 -101 -119l-332 -160h-100z" />
<glyph unicode="&#x385;" horiz-adv-x="1056" d="M6 1296q0 72 64 107q26 14 57 14q70 0 106 -65l13 -41l2 -17q0 -72 -66 -104l-41 -14h-14q-72 0 -107 63q-14 27 -14 57zM276 1114l216 289q71 98 137 98q53 0 80 -53q8 -16 8 -35q0 -51 -76 -104l-279 -195h-86zM795 1296q2 78 69 109q24 12 51 12q74 0 107 -67l14 -41 v-15q0 -76 -67 -108q-25 -10 -51 -10q-78 0 -111 67q-12 25 -12 53z" />
<glyph unicode="&#x386;" horiz-adv-x="1419" d="M-41 1114l274 293q70 70 101 84q25 10 49 10q68 0 98 -63q10 -23 11 -45q0 -70 -101 -119l-332 -160h-100zM154 0l204 475q102 240 357 924q49 -6 102 -6q51 0 103 6q313 -881 530 -1399l-197 6l-200 -6l-43 135l-80 248q-98 6 -291 6l-143 -6q-59 -184 -134 -383 q-63 6 -133 6q-27 -2 -75 -6zM555 547q106 -4 164 -4q51 0 162 4q-55 182 -160 430q-90 -211 -166 -430z" />
<glyph unicode="&#x387;" horiz-adv-x="536" d="M100 788q0 96 84 150q43 27 90 27q94 0 148 -84q29 -45 29 -95q0 -94 -86 -145q-43 -27 -91 -27q-100 0 -151 86q-23 41 -23 88z" />
<glyph unicode="&#x388;" horiz-adv-x="1589" d="M-41 1114l274 293q70 70 101 84q25 10 49 10q68 0 98 -63q10 -23 11 -45q0 -70 -101 -119l-332 -160h-100zM688 0q25 217 25 328l2 356v2q0 387 -27 688q131 -4 393 -8l424 8q-8 -57 -8 -88t8 -92q-225 16 -338 16l-110 -2h-2q-6 -203 -6 -403q147 4 442 16 q-8 -61 -8 -92q0 -49 6 -94q-262 18 -440 18v-217q0 -154 8 -270q221 0 440 24q-6 -49 -6 -96q0 -2 6 -94q-293 10 -530 10z" />
<glyph unicode="&#x389;" horiz-adv-x="2099" d="M-41 1114l274 293q70 70 101 84q25 10 49 10q68 0 98 -63q10 -23 11 -45q0 -70 -101 -119l-332 -160h-100zM688 0l21 395v25l2 258v2q0 279 -11 481l-12 213l195 -14q35 0 182 14q-16 -145 -16 -323v-220l266 -6q145 0 287 6v220q0 178 -17 323l193 -14l188 14 q-27 -295 -27 -694q0 -385 27 -680q-154 10 -188 10l-193 -10q16 113 17 297v358q-188 8 -287 9q-180 -4 -266 -9v-358q0 -166 16 -297q-131 8 -192.5 8t-184.5 -8z" />
<glyph unicode="&#x38a;" horiz-adv-x="1212" d="M-41 1114l274 293q70 70 101 84q25 10 49 10q68 0 98 -63q10 -23 11 -45q0 -70 -101 -119l-332 -160h-100zM692 0q25 264 25 594q0 494 -25 780q154 -14 187 -14l194 14q-25 -279 -24 -688q0 -412 24 -686q-139 8 -205 8q-119 -4 -176 -8z" />
<glyph unicode="&#x38c;" horiz-adv-x="2074" d="M-41 1114l274 293q70 70 101 84q25 10 49 10q68 0 98 -63q10 -23 11 -45q0 -70 -101 -119l-332 -160h-100zM469 686q14 418 326 600q193 113 467 113q393 0 593 -230q156 -174 156 -452q0 -428 -307 -619l-88 -47q-168 -74 -391 -74q-449 0 -641 283q-115 170 -115 426z M834 686q0 -262 116 -428q109 -152 289 -152q256 0 358 283q51 139 52 307q0 270 -125 432q-104 139 -279 140q-262 0 -364 -283l-29 -104q-18 -94 -18 -195z" />
<glyph unicode="&#x38e;" horiz-adv-x="1839" d="M-41 1114l274 293q70 70 101 84q25 10 49 10q68 0 98 -63q10 -23 11 -45q0 -70 -101 -119l-332 -160h-100zM692 1374q53 -4 180 -8q78 0 242 8q141 -311 275 -557q137 223 286 557q37 -4 111 -8l125 8q-223 -328 -441 -753q0 -201 7 -410l8 -211l-135 8h-2 q-102 0 -234 -8l19 340v10q0 174 -3 244l-194 364l-191 334q-27 43 -53 82z" />
<glyph unicode="&#x38f;" horiz-adv-x="2195" d="M-41 1114l274 293q70 70 101 84q25 10 49 10q68 0 98 -63q10 -23 11 -45q0 -70 -101 -119l-332 -160h-100zM463 0q4 78 4 119l-4 71q145 -20 336 -24q-242 141 -262 467q-2 25 -2 51q0 379 280 571q209 143 512 144q375 0 580 -215q170 -176 170 -459q0 -328 -232 -512 q-31 -25 -65 -47q178 -1 360 24q-4 -29 -4 -86q0 -70 6 -104q-326 6 -325 6q-180 0 -353 -6v152q207 123 240 389q8 68 8 157q0 264 -123 426q-35 47 -78 78q-88 66 -206 66q-268 0 -367 -301q-41 -131 -41 -293q0 -385 244 -522v-152q-350 6 -353 6z" />
<glyph unicode="&#x390;" horiz-adv-x="583" d="M-217 1296q0 72 63 107q27 14 58 14q70 0 106 -65l13 -41l2 -17q0 -72 -66 -104l-41 -14h-14q-72 0 -107 63q-14 27 -14 57zM53 1114l215 289q72 98 138 98q53 0 79 -53q8 -16 9 -35q0 -51 -76 -104l-279 -195h-86zM119 983q106 -12 172 -12q70 0 174 12 q-14 -96 -21 -211q0 -401 2 -604q2 -76 17 -168q-172 6 -174 6t-168 -6q14 147 14 186v615q-4 72 -16 182zM571 1296q2 78 70 109q24 12 51 12q74 0 107 -67l14 -41v-15q0 -76 -68 -108q-25 -10 -51 -10q-78 0 -110 67q-12 25 -13 53z" />
<glyph unicode="&#x391;" horiz-adv-x="1222" d="M-43 0l205 475q102 240 356 924q51 -6 102.5 -6t102.5 6q313 -881 530 -1399l-196 6l-201 -6l-43 135l-80 248q-96 6 -291 6l-143 -6q-59 -184 -133 -383q-63 6 -133 6l-72 -6h-4zM358 547q106 -4 164 -4q51 0 162 4q-55 182 -160 430q-90 -211 -166 -430z" />
<glyph unicode="&#x392;" horiz-adv-x="1202" d="M135 0q25 241 25 307l2 377v2q0 438 -27 688q156 -4 236 -4l243 4h2q492 0 492 -327q0 -188 -178 -267l-78 -26q-25 -4 -51 -9v-18q195 -10 286 -147l31 -58q20 -51 23 -112q0 -264 -240 -365l-88 -27q-78 -18 -166 -18q-139 0 -276 6q-156 0 -236 -6zM485 797 q197 0 258 127q23 47 23 106q0 150 -119 199l-57 14q-16 2 -35 2q-31 0 -57 -6q-12 -109 -13 -225v-217zM489 408q0 -131 7 -273l67 -6q139 0 197 131q25 55 24 121q0 160 -110 235l-51 25l-60 14q-14 2 -31 2q-31 0 -43 -2v-247z" />
<glyph unicode="&#x393;" horiz-adv-x="958" d="M135 0q27 332 27 686q0 414 -27 688q135 -8 209 -8q215 0 320 2l280 6q-6 -92 -6 -96q0 -45 6 -94q-246 25 -440 24q-2 -20 -6 -258v-12v-477q0 -289 20 -461l-199 6z" />
<glyph unicode="&#x394;" horiz-adv-x="1433" d="M16 0q383 745 596 1374q78 -8 111 -8q39 0 113 8q295 -834 577 -1374q-350 12 -702 12q-344 0 -695 -12zM319 188q143 -14 308 -14q131 0 311 14q-45 131 -143 390l-156 374l-176 -401q-76 -168 -144 -363z" />
<glyph unicode="&#x395;" horiz-adv-x="1036" d="M135 0q25 217 25 328l2 356v2q0 387 -27 688q131 -4 393 -8l424 8q-8 -57 -8 -88t8 -92q-225 16 -338 16l-110 -2h-2q-6 -203 -6 -403q147 4 442 16q-8 -61 -8 -92q0 -49 6 -94q-262 18 -440 18v-217q0 -154 8 -270q221 0 440 24q-6 -49 -6 -96q0 -2 6 -94 q-293 10 -530 10z" />
<glyph unicode="&#x396;" horiz-adv-x="1224" d="M37 0v80l694 1118h-297q-160 0 -289 -16l11 75q0 61 -11 117q174 -4 510 -8q178 0 547 8v-43l-713 -1157h347q221 0 391 27q-8 -59 -8 -138l2 -63q-381 8 -568 8q-207 0 -616 -8z" />
<glyph unicode="&#x397;" horiz-adv-x="1546" d="M135 0q21 318 21 422l2 254v2q0 283 -11 479l-12 217q127 -12 184 -12q63 0 191 12q-14 -186 -14 -321v-222q176 -4 266 -4q92 0 289 4v222q0 129 -19 321q127 -12 193 -12q59 0 186 12q-20 -287 -20 -688q0 -432 20 -686l-186 8q-61 0 -193 -8q18 129 19 299v356 q-94 6 -289 11q-180 -4 -266 -11v-356q0 -123 14 -299q-127 8 -191 8z" />
<glyph unicode="&#x398;" horiz-adv-x="1665" d="M59 686q9 123 17 176q61 305 360 449q186 88 416 88q381 0 586 -219q166 -178 166 -461q0 -422 -299 -615q-197 -127 -490 -127q-449 0 -641 283q-115 170 -115 426zM424 686q0 -268 119 -434q106 -146 282 -146q258 0 363 281q51 139 51 309q0 270 -125 432 q-104 139 -278 140q-264 0 -365 -285l-29 -104l-16 -121zM551 600q4 57 4 92t-4 92q154 -10 285 -10q125 0 278 10q0 6 -2 11q-4 0 -4 -99q0 -102 4 -102q0 4 2 6q-190 8 -283 10q-92 -2 -280 -10z" />
<glyph unicode="&#x399;" horiz-adv-x="659" d="M139 0q25 264 25 594q0 494 -25 780q154 -14 187 -14l194 14q-25 -279 -24 -688q0 -412 24 -686q-139 8 -205 8q-119 -4 -176 -8z" />
<glyph unicode="&#x39a;" horiz-adv-x="1261" d="M133 0q27 328 27 680q0 238 -13 481l-14 213l189 -14h2q25 0 182 14q-14 -186 -14 -317v-297l348 401q109 127 166 213q45 -4 127 -8l151 8l-541 -557l177 -260q193 -293 397 -557q-70 4 -205 8q-74 0 -233 -8q-119 236 -385 596v-311q0 -145 18 -285q-135 8 -199 8 q-115 -4 -180 -8z" />
<glyph unicode="&#x39b;" horiz-adv-x="1232" d="M-29 0q74 145 152 334l278 696q57 150 113 344q78 -8 111 -8q37 0 114 8q51 -166 121 -342l404 -1032l-197 10l-201 -10q-14 66 -71 242l-265 698l-249 -702q-39 -109 -70 -238q-35 4 -105 8q-49 0 -135 -8z" />
<glyph unicode="&#x39c;" horiz-adv-x="1794" d="M47 0q68 381 109 686l92 688q90 -8 137 -8l143 8q150 -406 369 -907l252 551q82 174 137 356l139 -8q47 0 138 8l67 -676q59 -512 88 -698q-154 10 -182 10l-186 -10q-4 238 -29 430l-45 479q-195 -426 -395 -909q-23 2 -68 2q-49 0 -76 -2q-96 238 -389 893l-59 -555 q-10 -109 -23 -338l-119 10q-18 0 -100 -10z" />
<glyph unicode="&#x39d;" horiz-adv-x="1488" d="M127 0q23 268 23 655q0 293 -11 506l-6 213q39 -4 129 -8q86 4 135 8q397 -500 770 -895v379q0 274 -14 516q74 -8 107 -8q51 0 112 10q-18 -129 -22 -289q-6 -272 -7 -815q4 -156 15 -272q-96 10 -121 10q-18 0 -121 -10q-393 479 -790 911v-555q2 -119 10 -356l-100 10 z" />
<glyph unicode="&#x39e;" horiz-adv-x="1292" d="M86 0q4 47 8 145q-4 95 -8 146q311 -10 561 -10q246 0 557 10q-6 -47 -6 -144q0 -100 6 -147q-279 12 -557 12q-279 0 -561 -12zM115 1090q6 47 10 141q-4 96 -10 143q307 -14 532 -14q223 0 529 14q-6 -72 -7 -143q1 -67 7 -141q-262 12 -529 12q-268 0 -532 -12z M240 553q8 90 8 137q0 43 -8 146q203 -18 407 -19q207 0 406 19q-5 -56 -9 -146q4 -94 9 -137q-160 12 -406 12t-407 -12z" />
<glyph unicode="&#x39f;" horiz-adv-x="1665" d="M59 686q14 418 326 600q193 113 467 113q393 0 594 -230q156 -174 156 -452q0 -428 -308 -619l-88 -47q-168 -74 -391 -74q-449 0 -641 283q-115 170 -115 426zM424 686q0 -262 117 -428q108 -152 288 -152q256 0 359 283q51 139 51 307q0 270 -125 432 q-104 139 -278 140q-262 0 -365 -283l-29 -104q-18 -94 -18 -195z" />
<glyph unicode="&#x3a0;" horiz-adv-x="1546" d="M135 0l21 395v25l2 258v2q0 281 -11 477l-12 217q291 -14 354 -16h562q59 2 362 16q-27 -319 -27 -688q0 -395 27 -686q-66 4 -188 8q-61 0 -193 -8q12 80 17 193l6 550l-8 455q-96 4 -285 8q-176 -4 -262 -8q-8 -291 -8 -436q0 -10 6 -569q4 -129 14 -193q-131 8 -193 8 q-123 -4 -184 -8z" />
<glyph unicode="&#x3a1;" horiz-adv-x="1181" d="M135 0q25 279 25 680q0 342 -25 692q123 -8 182 -8l267 10l71 2h2q471 0 471 -370q0 -221 -167 -340l-66 -39l-78 -29l-76 -14q-84 -10 -245 -11v-276q2 -125 20 -297q-164 10 -190 10q-31 0 -191 -10zM492 717q254 0 290 190q9 35 9 80q0 168 -115 225q-43 20 -98 21 q-25 0 -82 -4q-4 -131 -4 -207v-305z" />
<glyph unicode="&#x3a3;" horiz-adv-x="1243" d="M27 0v84q178 184 358 403l154 193q-176 258 -457 596v98q369 -12 555 -12q233 0 471 12q-6 -47 -6 -94q0 -45 6 -94q-162 12 -330 12h-233l332 -432l-283 -301l-145 -166h354q61 0 379 16q-6 -55 -11 -149q0 -78 11 -166q-256 6 -508 6q-326 0 -647 -6z" />
<glyph unicode="&#x3a4;" horiz-adv-x="1103" d="M12 1182l6 104l-6 88q420 -14 539 -14t539 14q-6 -47 -7 -90q0 -51 7 -102q-181 24 -363 24q-8 -109 -8 -243q0 -610 22 -963q-123 8 -188 8q-70 0 -193 -8q25 399 25 702q0 172 -8 504q-123 0 -365 -24z" />
<glyph unicode="&#x3a5;" horiz-adv-x="1101" d="M-45 1374q53 -4 180 -8q78 0 242 8q141 -311 274 -557q137 223 287 557q37 -4 111 -8l125 8q-223 -328 -441 -753q0 -201 6 -410l9 -211l-136 8h-2q-102 0 -233 -8l18 340v10q0 174 -2 244l-194 364l-191 334q-27 43 -53 82z" />
<glyph unicode="&#x3a6;" horiz-adv-x="1665" d="M53 670q0 500 623 596q-3 51 -19 149q133 -14 179 -14q39 0 172 14q-14 -82 -17 -149l117 -11q281 -41 416 -241q88 -129 88 -299q0 -395 -398 -545q-96 -37 -223 -64q0 -51 17 -145q-139 14 -172 14q-39 0 -179 -14q16 72 19 145q-78 8 -115 15q-258 37 -401 225 q-106 141 -107 324zM393 692q0 -326 189 -413q43 -20 94 -27q4 66 4 92q0 4 2 281q0 207 -2 407q0 29 -4 94q-50 -10 -58 -12q-184 -37 -219 -315zM983 688q0 -229 2 -344l2 -90v-2q256 27 281 369q2 35 2 69q0 317 -189 408q-43 23 -94 28l-2 -92v-2q-2 -113 -2 -344z" />
<glyph unicode="&#x3a7;" horiz-adv-x="1153" d="M-2 0l252 356l194 287l-421 731q139 -8 206.5 -8t210.5 8q20 -53 88 -190l129 -242q184 295 248 432l125 -8l125 8q-168 -225 -246 -340l-168 -250l441 -784q-152 8 -228 8q-131 -4 -192 -8q-41 100 -68 160l-168 321q-125 -195 -274 -481l-137 10q-20 0 -117 -10z" />
<glyph unicode="&#x3a8;" horiz-adv-x="1746" d="M125 1372l166 -12q14 0 149 12q16 2 35 2q-16 -185 -22 -330q0 -137 4 -204q14 -182 67 -246q57 -66 183 -74l2 193v2q0 281 -25 659q143 -14 182 -14l195 14q-10 -127 -19 -391l-6 -463q182 0 226 162q31 104 30 307q0 53 -22 371v14l182 -14l168 12q-8 -84 -8 -190 l2 -92v-3q0 -4 2 -75q0 -57 -2 -113q-4 -344 -285 -455l-102 -30q-82 -20 -187 -29q6 -213 21 -385l-189 10q-35 0 -188 -10q16 258 21 385q-428 27 -537 317q-39 109 -39 259l4 225q0 104 -8 186z" />
<glyph unicode="&#x3a9;" horiz-adv-x="1785" d="M53 0q4 78 4 119l-4 71q145 -20 336 -24q-242 141 -262 467q-2 25 -2 51q0 379 281 571q209 143 512 144q375 0 579 -215q170 -176 170 -459q0 -328 -231 -512q-31 -25 -66 -47q179 -1 361 24q-4 -29 -5 -86q0 -70 7 -104l-326 6q-180 0 -352 -6v152q207 123 239 389 q8 68 9 157q0 264 -123 426q-35 47 -78 78q-88 66 -207 66q-268 0 -367 -301q-41 -131 -41 -293q0 -385 244 -522v-152q-350 6 -352 6z" />
<glyph unicode="&#x3aa;" horiz-adv-x="661" d="M-2 1694q2 82 78 121q28 16 61 16q82 0 123 -72l14 -43q2 -12 2 -22q0 -90 -71 -129q-29 -16 -62 -17q-88 0 -129 78q-16 31 -16 68zM143 0q19 252 19 594q0 520 -19 780q123 -12 183 -12q8 0 192 12q-23 -315 -22 -688q0 -326 22 -686q-131 8 -205 8l-168 -8h-2z M379 1694q2 80 78 121q30 16 63 16q86 0 127 -74q16 -31 17 -63q0 -90 -74 -129q-29 -16 -64 -17q-86 0 -129 76q-18 33 -18 70z" />
<glyph unicode="&#x3ab;" horiz-adv-x="1101" d="M-47 1374q88 -6 182 -6q123 0 242 6q170 -367 274 -557q135 217 287 557q55 -6 111 -6q2 0 125 6q-223 -328 -441 -753l6 -410l11 -211q-94 4 -140 8q-98 0 -233 -8l16 344v4v246l-196 364q-166 305 -244 416zM213 1694q6 82 82 121q30 16 63 16q82 0 123 -72l15 -43 q2 -12 2 -22q0 -96 -78 -133l-41 -13h-19q-84 0 -127 74q-20 33 -20 72zM602 1694q2 82 78 121q28 16 61 16q84 0 125 -74q16 -31 19 -63q0 -90 -76 -129l-41 -15q-12 -2 -23 -2q-90 0 -127 78q-16 31 -16 68z" />
<glyph unicode="&#x3ac;" horiz-adv-x="1294" d="M45 494q0 252 170 399q135 115 330 115q233 0 391 -201q24 61 53 174q78 -4 117 -4q37 0 115 4q-111 -283 -158 -424l145 -557q-119 14 -149.5 14t-149.5 -14l-30 150q-137 -172 -344 -173q-264 0 -400 199q-90 133 -90 318zM379 492q0 -125 20 -236q14 -129 107 -168 q29 -12 63 -12q166 0 219 252q18 86 19 174q-10 330 -162 391q-37 12 -78 12q-96 0 -141 -86q-12 -23 -16 -47q-31 -104 -31 -280zM498 1112l274 293q70 70 102 84q25 10 50 10q66 0 96 -63q10 -23 10 -45q0 -68 -100 -119l-330 -160h-102z" />
<glyph unicode="&#x3ad;" horiz-adv-x="968" d="M82 260q0 170 229 260q16 6 33 12q-201 94 -213 230q0 166 207 223q78 23 166 23q207 0 373 -105q-53 -92 -64 -164h-57q-29 129 -127 156l-43 6q-90 0 -133 -88q-16 -35 -17 -76q0 -92 74 -135q23 -12 49 -16q70 -4 107 -4q0 4 -2 -31l2 -84q-16 4 -54 4 q-100 0 -161 -86q-33 -45 -33 -98q0 -96 86 -162q51 -39 106 -39q115 0 217 135q8 10 19 25l41 -17q-8 -35 -8 -75q0 -43 8 -76q-168 -100 -367 -101q-246 0 -364 113q-70 70 -74 170zM453 1116l274 293q70 70 102 84q25 10 50 10q66 0 96 -63q10 -23 10 -45 q0 -68 -100 -119l-330 -160h-102z" />
<glyph unicode="&#x3ae;" d="M119 0q16 221 16 500q0 225 -16 483q94 -8 147 -8q55 0 166 8v-145q139 166 324 166q182 0 264 -146l27 -63q14 -47 16 -101l-2 -209v-2v-557q0 -104 14 -477q-57 8 -162 12q-82 0 -172 -12q6 188 15 576v346v172q0 270 -152 270q-92 0 -129 -86q0 -4 -2 -8 q-31 -70 -31 -232q0 -201 15 -487l-168 10zM541 1114l274 293q70 70 103 84q25 10 49 10q66 0 96 -63q10 -23 10 -45q0 -70 -100 -119l-330 -160h-102z" />
<glyph unicode="&#x3af;" horiz-adv-x="583" d="M119 983q106 -12 172 -12q70 0 174 12q-14 -96 -21 -211q0 -401 2 -604q2 -76 17 -168q-172 6 -174 6t-168 -6q14 147 14 186v615q-4 72 -16 182zM174 1114l275 293q70 70 102 84q25 10 49 10q66 0 96 -63q10 -23 11 -45q0 -70 -101 -119l-330 -160h-102z" />
<glyph unicode="&#x3b0;" horiz-adv-x="1243" d="M57 1296q0 70 66 107q26 14 55 14q74 0 107 -67q14 -27 14 -56q0 -74 -68 -106l-41 -12h-12q-70 0 -106 63q-14 27 -15 57zM121 983q111 -8 170 -8q61 0 172 8q-31 -303 -31 -549q0 -336 146 -356q10 -2 20 -2q190 0 207 377q2 31 2 65q0 209 -111 451q193 0 318 22 q119 -184 119 -379q0 -270 -166 -454l-58 -56l-65 -49l-78 -39l-88 -26l-82 -11q-442 0 -469 388q-2 27 -2 55l6 285v2q0 123 -10 276zM330 1114l213 289q82 92 139 98q53 0 80 -53q8 -16 8 -35q0 -51 -76 -104l-278 -195h-86zM848 1296q2 78 70 109q24 12 51 12 q72 0 106 -67l15 -41v-15q0 -76 -70 -108l-41 -10h-8q-78 0 -111 67q-12 25 -12 53z" />
<glyph unicode="&#x3b1;" horiz-adv-x="1294" d="M45 494q0 252 170 399q135 115 330 115q233 0 391 -201q24 61 53 174q78 -4 117 -4q37 0 115 4q-111 -283 -158 -424l145 -557q-119 14 -149.5 14t-149.5 -14l-30 150q-137 -172 -344 -173q-264 0 -400 199q-90 133 -90 318zM379 492q0 -125 20 -236q14 -129 107 -168 q29 -12 63 -12q166 0 219 252q18 86 19 174q-10 330 -162 391q-37 12 -78 12q-96 0 -141 -86q-12 -23 -16 -47q-31 -104 -31 -280z" />
<glyph unicode="&#x3b2;" horiz-adv-x="1220" d="M121 -547q14 174 14 377l-12 895v2q0 250 22 393q35 225 232 328q109 57 246 57q207 0 331 -125l41 -49q57 -86 58 -194q0 -227 -236 -336q221 -84 279 -279q16 -57 16 -119q0 -213 -139 -335q-102 -90 -248 -91q-150 0 -285 97v-230l13 -391q-115 12 -168 12 q-57 0 -164 -12zM436 813l4 -416q0 -287 170 -286q166 0 166 292q0 197 -67 263l-39 26q-47 25 -119 25v127q188 16 192 272q0 266 -120 291l-29 2q-127 0 -148 -233q-10 -121 -10 -363z" />
<glyph unicode="&#x3b3;" horiz-adv-x="1032" d="M0 815v121q123 72 236 72q217 0 319 -310l41 -161l43 -193q156 371 211 639q66 -4 100 -4q33 0 103 4q-96 -184 -260 -631q-11 -32 -21 -57q-59 -166 -67 -213q-6 -47 -7 -174q0 -203 11 -459q-90 12 -228 12l-110 -8h-2q25 348 24 441q0 215 -98 571q-4 14 -21 72 q-49 152 -67 188q-55 102 -133 102q-25 0 -74 -12z" />
<glyph unicode="&#x3b4;" horiz-adv-x="1060" d="M45 451q0 238 164 370q72 59 170 84q-250 125 -256 293q0 186 209 268q102 39 221 39q201 0 377 -110q-31 -88 -70 -232l-57 8q-37 172 -174 189q-12 2 -27 2q-92 0 -141 -74q-23 -35 -23 -76q0 -121 140 -219l227 -149q190 -139 209 -338l2 -51q0 -287 -209 -410 l-72 -33l-86 -24l-102 -11h-17q-274 0 -405 189q-80 117 -80 285zM381 451q0 -115 16 -211q23 -164 133 -164q123 0 146 203q0 10 2 22q0 -10 2 27q2 63 2 123q0 156 -4 149q-23 217 -143 227q-117 0 -138 -165q-16 -90 -16 -211z" />
<glyph unicode="&#x3b5;" horiz-adv-x="968" d="M82 260q0 170 229 260q16 6 33 12q-201 94 -213 230q0 166 207 223q78 23 166 23q207 0 373 -105q-53 -92 -64 -162h-57q-27 125 -125 154q-20 6 -45 6q-90 0 -133 -86l-15 -47l-2 -29q0 -94 74 -137q23 -12 49 -16q70 -4 107 -4q0 4 -2 -31l2 -84q-16 4 -54 4 q-100 0 -161 -84q-33 -47 -33 -98q0 -98 86 -164q51 -39 106 -39q115 0 217 135q8 10 19 25l41 -17q-8 -35 -8 -75q0 -43 8 -76q-168 -100 -367 -101q-246 0 -364 113q-70 70 -74 170z" />
<glyph unicode="&#x3b6;" horiz-adv-x="966" d="M94 383q0 319 326 682q76 84 268 270q-338 0 -508 -18q6 49 6 96t-6 96q201 -12 393 -12q180 0 363 12q-6 -31 -6 -67q0 -33 6 -64q-434 -328 -549 -643q-37 -103 -45 -205q0 -4 -2 -28q0 -18 2 -39q8 -137 156 -176q33 -8 215 -29q180 -20 235 -96l23 -43l12 -60v-24 q0 -174 -209 -363l-98 60q70 94 82 129q8 23 10 45q0 74 -117 98l-266 41q-227 47 -276 219q-14 53 -15 119z" />
<glyph unicode="&#x3b7;" d="M119 0q16 221 16 500q0 225 -16 483q94 -8 147 -8q55 0 166 8v-145q139 166 324 166q182 0 264 -146l27 -63q14 -47 16 -101l-2 -209v-2v-557q0 -104 14 -477q-57 8 -162 12q-82 0 -172 -12q6 188 15 576v346v172q0 270 -152 270q-92 0 -129 -86q0 -4 -2 -8 q-31 -70 -31 -232q0 -201 15 -487l-168 10z" />
<glyph unicode="&#x3b8;" horiz-adv-x="1103" d="M51 641q0 698 494 698q387 0 475 -372l20 -125l9 -166v-12q0 -561 -326 -666l-88 -21l-92 -6q-395 0 -471 414q-20 111 -21 256zM377 725q90 -6 174 -6t170 6q0 78 -6 162q-6 186 -33 254q-41 98 -131 98q-164 0 -172 -356zM379 604q4 -158 14 -282q18 -170 74 -220 q35 -31 84 -30q98 0 137 127q27 131 31 405q-115 8 -168 8t-172 -8z" />
<glyph unicode="&#x3b9;" horiz-adv-x="583" d="M119 983q106 -12 172 -12q70 0 174 12q-14 -96 -21 -211q0 -401 2 -604q2 -76 17 -168q-172 6 -174 6t-168 -6q14 147 14 186v615q-4 72 -16 182z" />
<glyph unicode="&#x3ba;" horiz-adv-x="1114" d="M119 0q14 207 16 377q0 283 -16 606q102 -8 153 -10q82 0 181 10l-13 -231l-4 -70v-2v-107q176 141 369 410q74 -4 108 -4q10 0 134 4l8 -14q-86 -78 -127 -119l-226 -223l238 -400l141 -227l-184 10q-29 0 -178 -10q-90 166 -283 485v-116q0 -246 8 -369q-160 6 -161 6z " />
<glyph unicode="&#x3bb;" horiz-adv-x="1011" d="M35 0q158 362 356 977q-66 362 -225 362q-23 0 -88 -18l-29 100q135 88 270 88q193 0 291 -239l47 -142q-4 16 21 -69l104 -381l197 -678q-106 4 -166 4q-57 0 -172 -4q-94 432 -170 723q-156 -426 -205 -723q-74 4 -112 4q-37 0 -119 -4z" />
<glyph unicode="&#x3bc;" d="M117 -543q10 117 14 267q2 150 2 448q0 367 -4 553q0 115 -10 258q49 -6 162 -10q29 0 172 10q-14 -176 -15 -453l2 -145v-2q0 -238 146 -244q154 0 162 256v45q0 246 -11 543q98 -10 176 -10q18 0 162 10q-18 -254 -18 -508q0 -236 18 -475q-49 4 -147 8q-57 0 -164 -8 v119q-84 -123 -166 -139l-31 -3q-59 0 -141 60v12q0 -4 -2 -135q0 -90 2 -195v15q0 -61 14 -277q-92 10 -159 11q-76 0 -164 -11z" />
<glyph unicode="&#x3bd;" horiz-adv-x="1024" d="M14 983q119 -12 176 -12q53 0 172 12q82 -319 234 -711q82 215 94 306q4 36 4 69q0 88 -63 273q-4 16 -8 26q158 27 323 43q25 -63 25 -131q0 -129 -64 -250l-108 -209q-127 -256 -183 -399l-127 12l-124 -12q-123 369 -351 983z" />
<glyph unicode="&#x3be;" horiz-adv-x="995" d="M78 424q0 236 215 381q51 35 110 59q-236 88 -264 258q-4 20 -4 43q0 197 195 291q111 53 243 53q182 0 371 -88q-39 -141 -53 -227l-66 6q-51 125 -106 160q-37 20 -82 20q-115 0 -170 -116l-21 -60l-6 -59q0 -240 371 -240q-6 -31 -6 -65q0 -20 4 -66q-90 4 -135 4 q-213 0 -289 -123q-16 -27 -25 -59q0 -4 -8 -66q0 -43 8 -81q18 -113 175 -148l266 -45q168 -41 190 -168l4 -51q0 -160 -192 -352q-6 -6 -12 -13l-101 60q78 100 88 153q4 16 4 33q0 66 -125 96l-266 56q-250 68 -299 245q-14 49 -14 109z" />
<glyph unicode="&#x3bf;" horiz-adv-x="1140" d="M45 492q0 297 219 434q132 82 320 82q272 0 411 -189q98 -133 99 -321q0 -305 -215 -441q-127 -80 -310 -80q-287 0 -428 195q-96 129 -96 320zM379 492q0 -125 20 -236q14 -127 105 -166q31 -14 67 -14q135 0 172 178q0 -14 7 41q10 102 10 201q0 168 -17 233 q-35 178 -174 178q-102 0 -143 -86q-47 -98 -47 -329z" />
<glyph unicode="&#x3c0;" horiz-adv-x="1423" d="M29 889q147 82 374 82l369 -2h12l371 2h14q121 4 244 12q-4 -49 -4 -80q0 -27 4 -88q-114 6 -227 6q-2 -16 -2 -53q0 -414 2 -608q0 -12 12 -160q-166 6 -170 6l-168 -6q12 178 12 184l5 287v2l-7 346v2q-43 4 -125 8q-82 -4 -122 -8v-53v-608q4 -96 16 -160l-174 6 q-2 0 -168 -6q14 135 16 170l2 291v2l-2 291v2q0 43 -2 63q-129 0 -211 -141h-51q-2 86 -20 211z" />
<glyph unicode="&#x3c1;" horiz-adv-x="1169" d="M72 -551l14 221q0 190 -4 580l-8 215q0 348 239 477q119 66 285 66q285 0 428 -193q96 -131 96 -319q0 -231 -133 -383l-49 -47q-106 -88 -250 -89q-176 0 -293 119q-4 -266 -4 -403q3 -84 19 -244q-96 10 -172 10t-168 -10zM410 512q0 -123 14 -223q33 -172 176 -176 q102 0 141 86q45 90 45 313q0 72 -16 223q-16 129 -119 164l-51 8h-4q-133 0 -170 -162q-8 -37 -10 -77q-6 -52 -6 -156z" />
<glyph unicode="&#x3c2;" horiz-adv-x="1015" d="M72 520q0 244 194 381q143 102 338 103q166 0 350 -84q-55 -162 -73 -234h-56q-39 184 -182 199h-20q-131 0 -197 -135q-37 -74 -37 -154q0 -150 146 -240l233 -120q154 -104 158 -263q0 -213 -209 -325l-84 -37q-90 -33 -187 -37q-4 76 -16 133l90 -14h2q104 0 164 84 q25 37 29 82q0 111 -142 184l-266 123q-201 106 -229 280q-6 35 -6 74z" />
<glyph unicode="&#x3c3;" horiz-adv-x="1218" d="M45 496q0 279 199 417q133 94 323 95q53 0 285 -25q86 -10 147 -10l228 10q-6 -37 -6 -106l6 -62q-92 6 -191 6h-35q68 -90 84 -205q2 6 5 -32q4 -39 4 -84q0 -137 -9 -135q-35 -229 -251 -332q-121 -55 -265 -56q-293 0 -432 201q-92 129 -92 318zM379 492 q0 -125 20 -236q14 -123 99 -164q29 -16 65 -16q127 0 172 155q12 45 15 95q2 -8 6 43q4 53 4 108q0 139 -10 178q-29 240 -175 252q-158 0 -186 -252q-10 -87 -10 -163z" />
<glyph unicode="&#x3c4;" horiz-adv-x="974" d="M14 856q129 115 375 115l256 -2h6q170 0 316 14q-8 -39 -9 -84q0 -45 9 -84q-103 6 -308 6q-2 -16 -2 -53q0 -414 2 -608q4 -96 17 -160q-172 6 -174 6l-168 -6q16 158 16 184v289v289q0 41 -2 59q-178 0 -260 -143h-51q-2 88 -23 178z" />
<glyph unicode="&#x3c5;" horiz-adv-x="1243" d="M121 983q111 -8 170 -8q61 0 172 8q-31 -303 -31 -549q0 -336 146 -356q10 -2 20 -2q190 0 207 377q2 31 2 65q0 209 -111 451q193 0 318 22q119 -184 119 -379q0 -270 -166 -454l-58 -56l-65 -49l-78 -39l-88 -26l-82 -11q-442 0 -469 388q-2 27 -2 55l6 285v2 q0 123 -10 276z" />
<glyph unicode="&#x3c6;" horiz-adv-x="1540" d="M47 494q0 422 488 491q10 0 18 2q6 -39 27 -84q-209 -90 -218 -391v-27q0 -250 127 -348q53 -41 127 -47v318l-2 163v2q0 434 375 435q233 0 381 -162l47 -62l37 -71l27 -82q12 -53 12 -111q0 -418 -465 -512q-59 -12 -125 -18q0 -330 15 -541q-55 8 -115 12 q-123 0 -207 -12q20 258 20 543q-125 16 -143 20q-229 39 -348 215q-78 117 -78 267zM903 90q174 18 223 146q45 104 45 321q0 119 -20 209q-35 131 -123 139q-109 0 -123 -182l-2 -45v-270v-318z" />
<glyph unicode="&#x3c7;" horiz-adv-x="1077" d="M23 831v109q100 68 223 68q150 0 229 -174l55 -142q8 -20 13 -35l80 -188l114 238q66 152 107 274q57 -4 92 -4q47 0 141 8l-237 -424l-144 -260l109 -254q96 -223 270 -590q-96 6 -190 6q-92 0 -185 -12l-94 305q-6 14 -10 27l-80 219l-121 -231q-76 -139 -135 -320 q-49 12 -104 12q-63 0 -131 -12q49 72 200 338q37 66 66 113l149 262l-192 461l-53 125q-45 82 -101 88q-4 0 -71 -7z" />
<glyph unicode="&#x3c8;" horiz-adv-x="1568" d="M88 983q106 -4 164 -4q55 0 162 4q-23 -279 -23 -455q0 -279 92 -378q59 -63 158 -74v299q0 461 -18 805q86 -6 174 -6q49 0 147 4q-14 -246 -16 -439v-364v-299q201 0 254 280q16 82 16 174q0 186 -68 428q162 4 322 25q66 -168 66 -338q0 -365 -256 -539l-80 -47 l-95 -36l-110 -27l-49 -6q0 -301 16 -541q-57 8 -115 12q-125 0 -206 -12q18 328 18 543q-129 14 -170 22q-254 59 -342 285q-35 86 -39 190l4 226q0 133 -6 268z" />
<glyph unicode="&#x3c9;" horiz-adv-x="1611" d="M45 473q0 274 240 510q66 -8 153 -8q47 0 137 8q-211 -248 -210 -569q0 -338 163 -338q109 0 125 168q4 119 4 186q0 184 -16 326q98 -10 164 -11q63 0 166 11q-20 -180 -21 -330q0 -102 8 -182q14 -168 119 -168q168 0 168 336q0 301 -211 571q94 -8 137 -8q51 0 154 8 q238 -223 238 -508q0 -231 -148 -377l-57 -47l-66 -37q-82 -37 -180 -37q-182 0 -281 129q-14 18 -26 41q-80 -147 -264 -167q-22 -3 -45 -3q-250 0 -373 199q-78 127 -78 297z" />
<glyph unicode="&#x3ca;" horiz-adv-x="583" d="M-41 1296q0 82 74 123q32 19 67 19q86 0 125 -78l15 -43l2 -21q0 -84 -72 -125l-39 -14q-12 -2 -25 -2q-86 0 -129 72q-18 33 -18 69zM119 983q106 -12 172 -12q70 0 174 12q-14 -96 -21 -211q0 -401 2 -604q2 -76 17 -168q-172 6 -174 6t-168 -6q14 147 14 186v615 q-4 72 -16 182zM342 1296q0 84 76 125q30 17 67 17q86 0 123 -74q16 -33 17 -68q0 -84 -72 -125q-29 -16 -64 -16q-82 0 -127 70q-20 33 -20 71z" />
<glyph unicode="&#x3cb;" horiz-adv-x="1243" d="M121 983q111 -8 170 -8q61 0 172 8q-31 -303 -31 -549q0 -336 146 -356q10 -2 20 -2q190 0 207 377q2 31 2 65q0 209 -111 451q193 0 318 22q119 -184 119 -379q0 -270 -166 -454l-58 -56l-65 -49l-78 -39l-88 -26l-82 -11q-442 0 -469 388q-2 27 -2 55l6 285v2 q0 123 -10 276zM248 1296q0 84 76 125q30 17 67 17q84 0 123 -78l14 -43l2 -21q0 -84 -71 -125l-39 -14q-12 -2 -25 -2q-86 0 -129 72q-18 33 -18 69zM633 1296q0 86 76 125q30 17 65 17q86 0 123 -74q16 -33 16 -68q0 -84 -71 -125q-29 -16 -64 -16q-82 0 -125 72 q-20 33 -20 69z" />
<glyph unicode="&#x3cc;" horiz-adv-x="1140" d="M45 492q0 297 219 434q132 82 320 82q272 0 411 -189q98 -133 99 -321q0 -305 -215 -441q-127 -80 -310 -80q-287 0 -428 195q-96 129 -96 320zM379 492q0 -125 20 -236q14 -127 105 -166q31 -14 67 -14q135 0 172 178q0 -14 7 41q10 102 10 201q0 168 -17 233 q-35 178 -174 178q-102 0 -143 -86q-47 -98 -47 -329zM520 1114l275 293q70 70 100 84q25 10 49 10q68 0 98 -63q10 -23 11 -45q0 -70 -103 -119l-329 -160h-101z" />
<glyph unicode="&#x3cd;" horiz-adv-x="1243" d="M121 983q111 -8 170 -8q61 0 172 8q-31 -303 -31 -549q0 -336 146 -356q10 -2 20 -2q190 0 207 377q2 31 2 65q0 209 -111 451q193 0 318 22q119 -184 119 -379q0 -270 -166 -454l-58 -56l-65 -49l-78 -39l-88 -26l-82 -11q-442 0 -469 388q-2 27 -2 55l6 285v2 q0 123 -10 276zM539 1114l274 293q70 70 102 84q25 10 50 10q66 0 96 -63q10 -23 10 -45q0 -70 -100 -119l-330 -160h-102z" />
<glyph unicode="&#x3ce;" horiz-adv-x="1611" d="M45 473q0 274 240 510q66 -8 153 -8q47 0 137 8q-211 -248 -210 -569q0 -338 163 -338q109 0 125 168q4 119 4 186q0 184 -16 326q98 -10 164 -11q63 0 166 11q-20 -180 -21 -330q0 -102 8 -182q14 -168 119 -168q168 0 168 336q0 301 -211 571q94 -8 137 -8q51 0 154 8 q238 -223 238 -508q0 -231 -148 -377l-57 -47l-66 -37q-82 -37 -180 -37q-182 0 -281 129q-14 18 -26 41q-80 -147 -264 -167q-22 -3 -45 -3q-250 0 -373 199q-78 127 -78 297zM735 1114l275 293q70 70 102 84q25 10 49 10q66 0 96 -63q10 -23 11 -45q0 -70 -101 -119 l-329 -160h-103z" />
<glyph unicode="&#x3d5;" horiz-adv-x="1515" d="M47 477q0 287 277 424q129 63 292 82q0 147 -20 459q35 -6 117 -10q109 0 205 10q-14 -272 -15 -463q279 -14 438 -174l48 -55l38 -66l27 -76q16 -59 16 -125q0 -317 -319 -438l-109 -33q-68 -16 -139 -22q0 -330 15 -541q-55 8 -115 12q-123 0 -207 -12q20 258 20 543 q-317 25 -469 201q-100 117 -100 284zM367 485q0 -301 174 -376q35 -14 75 -19q2 131 2 395q0 267 -2 402q-199 -27 -241 -285q-8 -55 -8 -117zM901 485q0 -264 2 -395q223 25 246 332q2 31 2 63q0 281 -154 371q-41 25 -94 31q-2 -135 -2 -402z" />
<glyph unicode="&#x1e00;" horiz-adv-x="1222" d="M-43 0l205 475q102 240 356 924q51 -6 102.5 -6t102.5 6q313 -881 530 -1399l-196 6l-201 -6l-43 135l-80 248q-96 6 -291 6l-143 -6q-59 -184 -133 -383q-63 6 -133 6l-72 -6h-4zM358 547q106 -4 164 -4q51 0 162 4q-55 182 -160 430q-90 -211 -166 -430zM383 -344 q0 119 98 184q55 37 123 37q119 0 184 -98l25 -49l12 -58v-16q0 -119 -100 -184q-55 -37 -121 -37q-117 0 -182 96q-39 55 -39 125zM487 -344q0 -78 68 -106q23 -10 49 -11q76 0 107 70q10 22 10 47q0 76 -70 107q-23 10 -47 10q-78 0 -106 -70q-10 -23 -11 -47z" />
<glyph unicode="&#x1e01;" horiz-adv-x="1040" d="M70 250q0 172 141 235q35 14 195 56q129 31 188 82q10 16 10 26q0 145 -117 191q-37 14 -84 14q-129 0 -196 -102h-8l-31 112q154 143 369 144q260 0 333 -195l19 -72l6 -73l-4 -351q0 -94 4 -141q14 -63 74 -63q27 0 67 18l8 -72q-82 -66 -213 -75q-139 0 -202 98l-8 12 q-99 -117 -271 -117q-164 0 -239 123q-41 63 -41 150zM129 -367q0 119 98 184q55 37 123 37q119 0 184 -98l25 -49l12 -58v-16q0 -119 -100 -184q-55 -37 -121 -37q-117 0 -182 96q-39 55 -39 125zM233 -367q0 -78 68 -106q23 -10 49 -11q76 0 107 70q10 22 10 47 q0 76 -70 107q-23 10 -47 10q-78 0 -106 -70q-10 -23 -11 -47zM354 293q0 -100 66 -137q25 -12 53 -13q109 0 125 131q2 18 2 39v205q-246 -45 -246 -225z" />
<glyph unicode="&#x1e02;" horiz-adv-x="1202" d="M135 0q25 241 25 307l2 377v2q0 438 -27 688q156 -4 236 -4l243 4h2q492 0 492 -327q0 -188 -178 -267l-78 -26q-25 -4 -51 -9v-18q195 -10 286 -147l31 -58q20 -51 23 -112q0 -264 -240 -365l-88 -27q-78 -18 -166 -18q-139 0 -276 6q-156 0 -236 -6zM462 1696 q0 100 86 149q41 25 90 25q84 0 142 -76l22 -43l11 -47v-6q0 -82 -76 -142l-43 -24l-47 -11h-9q-106 0 -155 91q-20 39 -21 84zM485 797q197 0 258 127q23 47 23 106q0 150 -119 199l-57 14q-16 2 -35 2q-31 0 -57 -6q-12 -109 -13 -225v-217zM489 408q0 -131 7 -273l67 -6 q139 0 197 131q25 55 24 121q0 160 -110 235l-51 25l-60 14q-14 2 -31 2q-31 0 -43 -2v-247z" />
<glyph unicode="&#x1e03;" horiz-adv-x="1216" d="M117 2q14 372 14 952q0 340 -14 555q111 -12 168 -12t168 12q-10 -225 -13 -442v-215q119 156 305 156q236 0 338 -230q55 -123 56 -276q0 -270 -154 -416l-55 -43q-100 -66 -236 -66q-213 0 -344 177q-47 -37 -149 -152h-84zM430 500q0 -373 197 -373q190 0 190 362 q0 338 -147 371q-17 4 -35 4q-205 0 -205 -364zM452 1807q0 100 86 149q41 25 90 25q84 0 142 -76l22 -43l11 -47v-6q0 -82 -76 -142l-43 -24l-47 -11h-9q-106 0 -155 91q-20 39 -21 84z" />
<glyph unicode="&#x1e04;" horiz-adv-x="1202" d="M135 0q25 241 25 307l2 377v2q0 438 -27 688q156 -4 236 -4l243 4h2q492 0 492 -327q0 -188 -178 -267l-78 -26q-25 -4 -51 -9v-18q195 -10 286 -147l31 -58q20 -51 23 -112q0 -264 -240 -365l-88 -27q-78 -18 -166 -18q-139 0 -276 6q-156 0 -236 -6zM215 -297 q0 100 86 149q41 25 90 25q84 0 142 -76l22 -43l11 -47v-6q0 -82 -76 -142l-43 -24l-47 -11h-9q-106 0 -155 91q-20 39 -21 84zM485 797q197 0 258 127q23 47 23 106q0 150 -119 199l-57 14q-16 2 -35 2q-31 0 -57 -6q-12 -109 -13 -225v-217zM489 408q0 -131 7 -273l67 -6 q139 0 197 131q25 55 24 121q0 160 -110 235l-51 25l-60 14q-14 2 -31 2q-31 0 -43 -2v-247z" />
<glyph unicode="&#x1e05;" horiz-adv-x="1216" d="M117 2q14 372 14 952q0 340 -14 555q111 -12 168 -12t168 12q-10 -225 -13 -442v-215q119 156 305 156q236 0 338 -230q55 -123 56 -276q0 -270 -154 -416l-55 -43q-100 -66 -236 -66q-213 0 -344 177q-47 -37 -149 -152h-84zM430 500q0 -373 197 -373q190 0 190 362 q0 338 -147 371q-17 4 -35 4q-205 0 -205 -364zM518 -319q0 100 86 149q41 25 90 25q84 0 142 -76l22 -43l11 -47v-6q0 -82 -76 -142l-43 -24l-47 -11h-9q-106 0 -155 91q-20 39 -21 84z" />
<glyph unicode="&#x1e09;" horiz-adv-x="972" d="M53 479q0 236 156 381q154 143 393 144q164 0 316 -64q-31 -129 -52 -262h-37q-27 174 -161 203q-20 4 -45 4q-139 0 -201 -164l-21 -80l-8 -90q0 -160 68 -291t215 -131q133 0 223 68l14 -11l-45 -157q-109 -51 -270 -52q-35 0 -70 5v-95l90 2q127 -14 154 -114l6 -45 q0 -117 -104 -164l-56 -19l-45 -4q-184 0 -350 66l35 92q113 -35 150 -41q37 -8 84 -8q96 0 102 76q0 55 -55 77q-16 6 -35 7q-23 0 -60 -11v193q-233 53 -333 244q-57 106 -58 241zM571 1155l119 471q16 94 84 133q25 14 53 15q84 0 121 -70q14 -27 15 -59q-4 -53 -33 -94 l-299 -420z" />
<glyph unicode="&#x1e0a;" horiz-adv-x="1521" d="M131 -2q23 244 23 328l2 358v2q0 436 -25 688q94 -6 188 -6q63 0 99 2l235 4q176 0 267 -6q401 -39 505 -389l23 -107q10 -68 10 -141q0 -522 -416 -668l-116 -32l-146 -23l-180 -10h-22l-279 4q-53 0 -168 -4zM489 891q0 -246 5 -741q67 -15 120 -15q352 0 447 324 q31 102 31 233q0 375 -211 488q-109 57 -277 57q-39 0 -108 -4zM618 1696q0 100 86 149q41 25 90 25q84 0 142 -76l22 -43l11 -47v-6q0 -82 -76 -142l-43 -24l-47 -11h-9q-106 0 -155 91q-20 39 -21 84z" />
<glyph unicode="&#x1e0b;" horiz-adv-x="1216" d="M80 496q0 289 160 424q102 88 256 88q170 0 278 -148v227l-10 422q125 -14 166 -14q74 0 168 14q-12 -246 -13 -366q0 -586 7 -883l6 -260q-133 10 -168 10l-162 -10q8 55 8 125q-125 -139 -284 -148h-21q-311 0 -377 342q-14 82 -14 177zM397 467q0 -336 189 -336 q168 0 192 287q4 39 4 82q1 366 -196 366q-117 0 -162 -135q-27 -98 -27 -264zM413 1807q0 100 86 149q41 25 90 25q84 0 142 -76l22 -43l11 -47v-6q0 -82 -76 -142l-43 -24l-47 -11h-9q-106 0 -155 91q-20 39 -21 84z" />
<glyph unicode="&#x1e0c;" horiz-adv-x="1521" d="M131 -2q23 244 23 328l2 358v2q0 436 -25 688q94 -6 188 -6q63 0 99 2l235 4q176 0 267 -6q401 -39 505 -389l23 -107q10 -68 10 -141q0 -522 -416 -668l-116 -32l-146 -23l-180 -10h-22l-279 4q-53 0 -168 -4zM178 -299q0 100 86 149q41 25 90 25q84 0 142 -76l22 -43 l11 -47v-6q0 -82 -76 -142l-43 -24l-47 -11h-9q-106 0 -155 91q-20 39 -21 84zM489 891q0 -246 5 -741q67 -15 120 -15q352 0 447 324q31 102 31 233q0 375 -211 488q-109 57 -277 57q-39 0 -108 -4z" />
<glyph unicode="&#x1e0d;" horiz-adv-x="1216" d="M80 496q0 289 160 424q102 88 256 88q170 0 278 -148v227l-10 422q125 -14 166 -14q74 0 168 14q-12 -246 -13 -366q0 -586 7 -883l6 -260q-133 10 -168 10l-162 -10q8 55 8 125q-125 -139 -284 -148h-21q-311 0 -377 342q-14 82 -14 177zM295 -319q0 100 86 149 q41 25 90 25q84 0 142 -76l22 -43l11 -47v-6q0 -82 -76 -142l-43 -24l-47 -11h-9q-106 0 -155 91q-20 39 -21 84zM397 467q0 -336 189 -336q168 0 192 287q4 39 4 82q1 366 -196 366q-117 0 -162 -135q-27 -98 -27 -264z" />
<glyph unicode="&#x1e12;" horiz-adv-x="1521" d="M-215 -133q68 -6 141 -6l351 14q334 0 446 -129l35 -49l24 -61l13 -80q2 -16 2 -35q0 -176 -135 -276q-78 -57 -179 -66q188 -324 443 -686l-158 8q-111 0 -258 -8q-109 233 -379 645v-264q0 -211 17 -381q-147 10 -179 10l-184 -10q29 344 29 588q0 416 -29 786z M129 -481v-281q330 1 330 271q0 160 -125 215l-60 16q-14 4 -30 4q-35 2 -109 2q-6 -115 -6 -227zM131 -2q23 244 23 328l2 358v2q0 436 -25 688q94 -6 188 -6q63 0 99 2l235 4q176 0 267 -6q401 -39 505 -389l23 -107q10 -68 10 -141q0 -522 -416 -668l-116 -32l-146 -23 l-180 -10h-22l-279 4q-53 0 -168 -4zM489 891q0 -246 5 -741q67 -15 120 -15q352 0 447 324q31 102 31 233q0 375 -211 488q-109 57 -277 57q-39 0 -108 -4z" />
<glyph unicode="&#x1e13;" horiz-adv-x="1216" d="M-98 -154q68 -6 141 -6l351 14q334 0 446 -129l35 -49l24 -61l13 -80q2 -16 2 -35q0 -176 -135 -276q-78 -57 -179 -66q188 -324 443 -686l-158 8q-111 0 -258 -8q-109 233 -379 645v-264q0 -211 17 -381q-147 10 -179 10l-184 -10q29 344 29 588q0 416 -29 786zM80 496 q0 289 160 424q102 88 256 88q170 0 278 -148v227l-10 422q125 -14 166 -14q74 0 168 14q-12 -246 -13 -366q0 -586 7 -883l6 -260q-133 10 -168 10l-162 -10q8 55 8 125q-125 -139 -284 -148h-21q-311 0 -377 342q-14 82 -14 177zM246 -502v-281q330 1 330 271 q0 160 -125 215l-60 16q-14 4 -30 4q-35 2 -109 2q-6 -115 -6 -227zM397 467q0 -336 189 -336q168 0 192 287q4 39 4 82q1 366 -196 366q-117 0 -162 -135q-27 -98 -27 -264z" />
<glyph unicode="&#x1e18;" horiz-adv-x="1036" d="M-31 -131q68 -6 141 -6l351 14q334 0 446 -129l35 -49l24 -61l13 -80q2 -16 2 -35q0 -176 -135 -276q-78 -57 -179 -66q188 -324 443 -686l-158 8q-111 0 -258 -8q-109 233 -379 645v-264q0 -211 17 -381q-147 10 -179 10l-184 -10q29 344 29 588q0 416 -29 786zM135 0 q25 217 25 328l2 356v2q0 387 -27 688q131 -4 393 -8l424 8q-8 -57 -8 -88t8 -92q-225 16 -338 16l-110 -2h-2q-6 -203 -6 -403q147 4 442 16q-8 -61 -8 -92q0 -49 6 -94q-262 18 -440 18v-217q0 -154 8 -270q221 0 440 24q-6 -49 -6 -96q0 -2 6 -94q-293 10 -530 10z M313 -479v-281q330 1 330 271q0 160 -125 215l-60 16q-14 4 -30 4q-35 2 -109 2q-6 -115 -6 -227z" />
<glyph unicode="&#x1e19;" horiz-adv-x="1075" d="M27 -154q68 -6 141 -6l351 14q334 0 446 -129l35 -49l24 -61l13 -80q2 -16 2 -35q0 -176 -135 -276q-78 -57 -179 -66q188 -324 443 -686l-158 8q-111 0 -258 -8q-109 233 -379 645v-264q0 -211 17 -381q-147 10 -179 10l-184 -10q29 344 29 588q0 416 -29 786zM63 496 q0 258 181 403q135 109 327 109q317 0 410 -254q31 -88 31 -201q0 -43 -2 -64h-613q0 -188 127 -288q80 -62 191 -62q117 0 235 99l27 -11q-39 -119 -49 -168q-141 -82 -332 -82q-295 0 -438 197q-94 131 -95 322zM371 -502v-281q330 1 330 271q0 160 -125 215l-60 16 q-14 4 -30 4q-35 2 -109 2q-6 -115 -6 -227zM395 647l2 -39v-2h312q2 16 2 49q0 256 -152 263q-129 0 -158 -191q-6 -39 -6 -80z" />
<glyph unicode="&#x1e1a;" horiz-adv-x="1036" d="M135 0q25 217 25 328l2 356v2q0 387 -27 688q131 -4 393 -8l424 8q-8 -57 -8 -88t8 -92q-225 16 -338 16l-110 -2h-2q-6 -203 -6 -403q147 4 442 16q-8 -61 -8 -92q0 -49 6 -94q-262 18 -440 18v-217q0 -154 8 -270q221 0 440 24q-6 -49 -6 -96q0 -2 6 -94 q-293 10 -530 10zM166 -381q29 193 160 244q37 14 82 14q68 0 166 -47t143 -47q61 0 96 67q6 12 13 27h88q-29 -193 -160 -244q-37 -14 -82 -14q-63 0 -188 57l-80 31l-41 6q-61 0 -96 -68l-13 -26h-88z" />
<glyph unicode="&#x1e1b;" horiz-adv-x="1075" d="M63 496q0 258 181 403q135 109 327 109q317 0 410 -254q31 -88 31 -201q0 -43 -2 -64h-613q0 -188 127 -288q80 -62 191 -62q117 0 235 99l27 -11q-39 -119 -49 -168q-141 -82 -332 -82q-295 0 -438 197q-94 131 -95 322zM221 -403q29 193 160 244q37 14 82 14 q68 0 166 -47t143 -47q61 0 96 67q6 12 13 27h88q-29 -193 -160 -244q-37 -14 -82 -14q-63 0 -188 57l-80 31l-41 6q-61 0 -96 -68l-13 -26h-88zM395 647l2 -39v-2h312q2 16 2 49q0 256 -152 263q-129 0 -158 -191q-6 -39 -6 -80z" />
<glyph unicode="&#x1e1e;" horiz-adv-x="1011" d="M135 0q27 248 27 686q0 387 -27 688q131 -4 393 -8l424 8q-8 -55 -10 -88q4 -61 10 -92q-229 16 -336 16l-110 -2h-2q-8 -154 -8 -403q141 4 440 16q-6 -47 -6 -92q0 -49 6 -94q-262 18 -438 18v-305q4 -250 18 -348q-127 4 -190.5 4t-190.5 -4zM368 1696q0 100 86 149 q41 25 90 25q84 0 142 -76l22 -43l11 -47v-6q0 -82 -76 -142l-43 -24l-47 -11h-9q-106 0 -155 91q-20 39 -21 84z" />
<glyph unicode="&#x1e1f;" horiz-adv-x="626" d="M12 858q2 20 2 60q0 41 -2 63q59 -10 144 -10q0 184 108 350q123 188 299 188q66 -4 121 -20q-33 -113 -66 -270h-10q-80 70 -149 69q-115 0 -115 -90q0 -57 80 -190l20 -37q109 0 189 10q-2 4 -4 6v-41q0 -96 4 -96v6q-70 4 -105 4l-73 -2h-2v-455q2 -164 24 -403 q-143 10 -168 10l-172 -10q18 152 19 403v455q-45 4 -72 4q-23 0 -72 -4zM387 1807q0 100 86 149q41 25 90 25q84 0 142 -76l22 -43l11 -47v-6q0 -82 -76 -142l-43 -24l-47 -11h-9q-106 0 -155 91q-20 39 -21 84z" />
<glyph unicode="&#x1e22;" horiz-adv-x="1546" d="M135 0l21 395v25l2 258v2q0 279 -11 481l-12 213l195 -14q35 0 182 14q-16 -145 -16 -323v-220l266 -6q145 0 287 6v220q0 178 -17 323l193 -14l188 14q-27 -295 -27 -694q0 -385 27 -680q-154 10 -188 10l-193 -10q16 113 17 297v358q-188 8 -287 9q-180 -4 -266 -9 v-358q0 -166 16 -297q-131 8 -193 8q-61 0 -184 -8zM598 1696q0 100 86 149q41 25 90 25q84 0 142 -76l22 -43l11 -47v-6q0 -82 -76 -142l-43 -24l-47 -11h-9q-106 0 -155 91q-20 39 -21 84z" />
<glyph unicode="&#x1e23;" d="M114 1807q0 100 86 149q41 25 90 25q84 0 142 -76l22 -43l11 -47v-6q0 -82 -76 -142l-43 -24l-47 -11h-9q-106 0 -155 91q-20 39 -21 84zM119 0q16 250 16 758q0 504 -16 751q51 -4 149 -8q106 0 189 8q-10 -125 -11 -307v-342q116 148 306 148q174 0 262 -129l28 -58 l17 -67q4 -25 4 -49l2 -107v-2l-4 -229v-2q0 -203 16 -365q-111 8 -164 8t-172 -8q16 164 17 492q0 70 -6 137q-16 184 -144 184q-96 0 -135 -94q-29 -80 -29 -230q0 -162 13 -489l-168 10q-31 0 -170 -10z" />
<glyph unicode="&#x1e24;" horiz-adv-x="1546" d="M135 0l21 395v25l2 258v2q0 279 -11 481l-12 213l195 -14q35 0 182 14q-16 -145 -16 -323v-220l266 -6q145 0 287 6v220q0 178 -17 323l193 -14l188 14q-27 -295 -27 -694q0 -385 27 -680q-154 10 -188 10l-193 -10q16 113 17 297v358q-188 8 -287 9q-180 -4 -266 -9 v-358q0 -166 16 -297q-131 8 -193 8q-61 0 -184 -8zM598 -297q0 100 86 149q41 25 90 25q84 0 142 -76l22 -43l11 -47v-6q0 -82 -76 -142l-43 -24l-47 -11h-9q-106 0 -155 91q-20 39 -21 84z" />
<glyph unicode="&#x1e25;" d="M119 0q16 250 16 758q0 504 -16 751q51 -4 149 -8q106 0 189 8q-10 -125 -11 -307v-342q116 148 306 148q174 0 262 -129l28 -58l17 -67q4 -25 4 -49l2 -107v-2l-4 -229v-2q0 -203 16 -365q-111 8 -164 8t-172 -8q16 164 17 492q0 70 -6 137q-16 184 -144 184 q-96 0 -135 -94q-29 -80 -29 -230q0 -162 13 -489l-168 10q-31 0 -170 -10zM422 -297q0 100 86 149q41 25 90 25q84 0 142 -76l22 -43l11 -47v-6q0 -82 -76 -142l-43 -24l-47 -11h-9q-106 0 -155 91q-20 39 -21 84z" />
<glyph unicode="&#x1e26;" horiz-adv-x="1546" d="M135 0l21 395v25l2 258v2q0 279 -11 481l-12 213l195 -14q35 0 182 14q-16 -145 -16 -323v-220l266 -6q145 0 287 6v220q0 178 -17 323l193 -14l188 14q-27 -295 -27 -694q0 -385 27 -680q-154 10 -188 10l-193 -10q16 113 17 297v358q-188 8 -287 9q-180 -4 -266 -9 v-358q0 -166 16 -297q-131 8 -193 8q-61 0 -184 -8zM440 1663q0 84 76 125q31 17 68 17q84 0 122 -78l15 -43l2 -21q0 -84 -72 -125l-39 -14q-12 -2 -24 -2q-86 0 -129 72q-18 33 -19 69zM825 1663q0 86 76 125q31 17 66 17q86 0 122 -74q16 -33 17 -68q0 -84 -72 -125 q-29 -16 -63 -16q-82 0 -125 72q-20 33 -21 69z" />
<glyph unicode="&#x1e27;" d="M119 0q16 250 16 758q0 504 -16 751q51 -4 149 -8q106 0 189 8q-10 -125 -11 -307v-342q116 148 306 148q174 0 262 -129l28 -58l17 -67q4 -25 4 -49l2 -107v-2l-4 -229v-2q0 -203 16 -365q-111 8 -164 8t-172 -8q16 164 17 492q0 70 -6 137q-16 184 -144 184 q-96 0 -135 -94q-29 -80 -29 -230q0 -162 13 -489l-168 10q-31 0 -170 -10zM264 1773q0 84 76 125q31 17 68 17q84 0 122 -78l15 -43l2 -21q0 -84 -72 -125l-39 -14q-12 -2 -24 -2q-86 0 -129 72q-18 33 -19 69zM649 1773q0 86 76 125q31 17 66 17q86 0 122 -74 q16 -33 17 -68q0 -84 -72 -125q-29 -16 -63 -16q-82 0 -125 72q-20 33 -21 69z" />
<glyph unicode="&#x1e2c;" horiz-adv-x="659" d="M-43 -381q29 193 160 244q37 14 82 14q68 0 166 -47t143 -47q61 0 96 67q6 12 13 27h88q-29 -193 -160 -244q-37 -14 -82 -14q-63 0 -188 57l-80 31l-41 6q-61 0 -96 -68l-13 -26h-88zM139 0q25 264 25 594q0 494 -25 780q154 -14 187 -14l194 14q-25 -279 -24 -688 q0 -412 24 -686q-139 8 -205 8q-119 -4 -176 -8z" />
<glyph unicode="&#x1e2d;" horiz-adv-x="583" d="M-82 -381q29 193 160 244q37 14 82 14q68 0 166 -47t143 -47q61 0 96 67q6 12 13 27h88q-29 -193 -160 -244q-37 -14 -82 -14q-63 0 -188 57l-80 31l-41 6q-61 0 -96 -68l-13 -26h-88zM119 983q115 -12 172 -12q59 0 174 12q-12 -90 -19 -178l-2 -332v-2q0 -293 19 -471 q-172 6 -174 6t-168 -6q14 110 14 188v613q-4 68 -16 182zM127 1331q0 88 80 139q41 25 84 25q92 0 141 -82q23 -39 23 -82q0 -90 -82 -139q-39 -23 -82 -23q-92 0 -141 80q-23 39 -23 82z" />
<glyph unicode="&#x1e2e;" horiz-adv-x="659" d="M-2 1663q0 84 76 125q31 17 68 17q84 0 122 -78l15 -43l2 -21q0 -84 -72 -125l-39 -14q-12 -2 -24 -2q-86 0 -129 72q-18 33 -19 69zM139 0q25 264 25 594q0 494 -25 780q154 -14 187 -14l194 14q-25 -279 -24 -688q0 -412 24 -686q-139 8 -205 8q-119 -4 -176 -8z M301 1951l119 471q16 94 84 133q25 14 53 15q84 0 121 -70q14 -27 15 -59q-4 -53 -33 -94l-299 -420zM383 1663q0 86 76 125q31 17 66 17q86 0 122 -74q16 -33 17 -68q0 -84 -72 -125q-29 -16 -63 -16q-82 0 -125 72q-20 33 -21 69z" />
<glyph unicode="&#x1e2f;" horiz-adv-x="583" d="M-43 1271q0 84 76 125q31 17 68 17q84 0 122 -78l15 -43l2 -21q0 -84 -72 -125l-39 -14q-12 -2 -24 -2q-86 0 -129 72q-18 33 -19 69zM119 983q115 -12 172 -12q59 0 174 12q-12 -90 -19 -178l-2 -332v-2q0 -293 19 -471q-172 6 -174 6t-168 -6q14 110 14 188v613 q-4 68 -16 182zM260 1560l119 471q16 94 84 133q25 14 53 15q84 0 121 -70q14 -27 15 -59q-4 -53 -33 -94l-299 -420zM342 1271q0 86 76 125q31 17 66 17q86 0 122 -74q16 -33 17 -68q0 -84 -72 -125q-29 -16 -63 -16q-82 0 -125 72q-20 33 -21 69z" />
<glyph unicode="&#x1e30;" horiz-adv-x="1261" d="M133 0q27 328 27 680q0 238 -13 481l-14 213l189 -14h2q25 0 182 14q-14 -186 -14 -317v-297l348 401q109 127 166 213q45 -4 127 -8l151 8l-541 -557l177 -260q193 -293 397 -557q-70 4 -205 8q-74 0 -233 -8q-119 236 -385 596v-311q0 -145 18 -285q-135 8 -199 8 q-115 -4 -180 -8zM677 1546l119 471q16 94 84 133q25 14 53 15q84 0 121 -70q14 -27 15 -59q-4 -53 -33 -94l-299 -420z" />
<glyph unicode="&#x1e31;" horiz-adv-x="1114" d="M119 0q18 303 18 811q0 438 -18 698q25 -2 153 -8q100 0 181 8q-16 -252 -17 -620v-316q182 147 369 410q51 -4 147 -4l95 4l8 -14q-86 -78 -127 -119l-226 -223l238 -400l141 -227l-184 10q-29 0 -178 -10q-90 166 -283 485q0 -324 8 -485q-160 6 -161 6zM256 1657 l119 471q16 94 84 133q25 14 53 15q84 0 121 -70q14 -27 15 -59q-4 -53 -33 -94l-299 -420z" />
<glyph unicode="&#x1e32;" horiz-adv-x="1261" d="M133 0q27 328 27 680q0 238 -13 481l-14 213l189 -14h2q25 0 182 14q-14 -186 -14 -317v-297l348 401q109 127 166 213q45 -4 127 -8l151 8l-541 -557l177 -260q193 -293 397 -557q-70 4 -205 8q-74 0 -233 -8q-119 236 -385 596v-311q0 -145 18 -285q-135 8 -199 8 q-115 -4 -180 -8zM549 -297q0 100 86 149q41 25 90 25q84 0 142 -76l22 -43l11 -47v-6q0 -82 -76 -142l-43 -24l-47 -11h-9q-106 0 -155 91q-20 39 -21 84z" />
<glyph unicode="&#x1e33;" horiz-adv-x="1114" d="M119 0q18 303 18 811q0 438 -18 698q25 -2 153 -8q100 0 181 8q-16 -252 -17 -620v-316q182 147 369 410q51 -4 147 -4l95 4l8 -14q-86 -78 -127 -119l-226 -223l238 -400l141 -227l-184 10q-29 0 -178 -10q-90 166 -283 485q0 -324 8 -485q-160 6 -161 6zM424 -297 q0 100 86 149q41 25 90 25q84 0 142 -76l22 -43l11 -47v-6q0 -82 -76 -142l-43 -24l-47 -11h-9q-106 0 -155 91q-20 39 -21 84z" />
<glyph unicode="&#x1e36;" horiz-adv-x="958" d="M135 0q27 248 27 686q0 387 -27 688l184 -6l199 6q-20 -219 -20 -463v-475l4 -252q2 -10 2 -18q221 0 440 24q-6 -49 -6 -96q0 -2 6 -94q-293 10 -530 10zM364 -297q0 100 86 149q41 25 90 25q84 0 142 -76l22 -43l11 -47v-6q0 -82 -76 -142l-43 -24l-47 -11h-9 q-106 0 -155 91q-20 39 -21 84z" />
<glyph unicode="&#x1e37;" horiz-adv-x="600" d="M120 -297q0 100 86 149q41 25 90 25q84 0 142 -76l22 -43l11 -47v-6q0 -82 -76 -142l-43 -24l-47 -11h-9q-106 0 -155 91q-20 39 -21 84zM127 0q18 446 18 739q0 84 -10 504l-8 266q133 -14 170 -14q39 0 168 14q-18 -383 -19 -770q0 -240 7 -473l12 -266 q-129 14 -168 14q-37 0 -170 -14z" />
<glyph unicode="&#x1e3c;" horiz-adv-x="958" d="M-31 -131q68 -6 141 -6l351 14q334 0 446 -129l35 -49l24 -61l13 -80q2 -16 2 -35q0 -176 -135 -276q-78 -57 -179 -66q188 -324 443 -686l-158 8q-111 0 -258 -8q-109 233 -379 645v-264q0 -211 17 -381q-147 10 -179 10l-184 -10q29 344 29 588q0 416 -29 786zM135 0 q27 248 27 686q0 387 -27 688l184 -6l199 6q-20 -219 -20 -463v-475l4 -252q2 -10 2 -18q221 0 440 24q-6 -49 -6 -96q0 -2 6 -94q-293 10 -530 10zM313 -479v-281q330 1 330 271q0 160 -125 215l-60 16q-14 4 -30 4q-35 2 -109 2q-6 -115 -6 -227z" />
<glyph unicode="&#x1e3d;" horiz-adv-x="600" d="M-274 -131q68 -6 141 -6l351 14q334 0 446 -129l35 -49l24 -61l13 -80q2 -16 2 -35q0 -176 -135 -276q-78 -57 -179 -66q188 -324 443 -686l-158 8q-111 0 -258 -8q-109 233 -379 645v-264q0 -211 17 -381q-147 10 -179 10l-184 -10q29 344 29 588q0 416 -29 786z M70 -479v-281q330 1 330 271q0 160 -125 215l-60 16q-14 4 -30 4q-35 2 -109 2q-6 -115 -6 -227zM127 0q18 446 18 739q0 84 -10 504l-8 266q133 -14 170 -14q39 0 168 14q-18 -383 -19 -770q0 -240 7 -473l12 -266q-129 14 -168 14q-37 0 -170 -14z" />
<glyph unicode="&#x1e3e;" horiz-adv-x="1794" d="M47 0q68 381 109 686l92 688q90 -8 137 -8l143 8q150 -406 369 -907l252 551q82 174 137 356l139 -8q47 0 138 8l67 -676q59 -512 88 -698q-154 10 -182 10l-186 -10q-4 238 -29 430l-45 479q-195 -426 -395 -909q-23 2 -68 2q-49 0 -76 -2q-96 238 -389 893l-59 -555 q-10 -109 -23 -338l-119 10q-18 0 -100 -10zM874 1546l119 471q16 94 84 133q25 14 53 15q84 0 121 -70q14 -27 15 -59q-4 -53 -33 -94l-299 -420z" />
<glyph unicode="&#x1e3f;" horiz-adv-x="1794" d="M119 0q16 215 16 485q0 231 -16 498q78 -6 153 -6l160 6v-141q123 145 287 164q18 2 37 2q209 0 278 -183q90 162 287 181q20 2 41 2q174 0 256 -140l27 -61q16 -49 18 -102q0 -141 -2 -216q0 -260 14 -489q-111 8 -170 8l-168 -8q14 172 15 440v129q-12 238 -144 248 q-106 0 -143 -129l-2 -8q-14 -82 -14 -209q0 -195 14 -471q-139 10 -164 10l-166 -10q14 207 15 440l-3 127v2q0 211 -100 242l-41 6q-106 0 -143 -129l-2 -8q-14 -82 -15 -209q0 -195 15 -471l-170 10q-31 0 -170 -10zM1028 1155l119 471q16 94 84 133q25 14 53 15 q84 0 121 -70q14 -27 15 -59q-4 -53 -33 -94l-299 -420z" />
<glyph unicode="&#x1e40;" horiz-adv-x="1794" d="M47 0q68 381 109 686l92 688q90 -8 137 -8l143 8q150 -406 369 -907l252 551q82 174 137 356l139 -8q47 0 138 8l67 -676q59 -512 88 -698q-154 10 -182 10l-186 -10q-4 238 -29 430l-45 479q-195 -426 -395 -909q-23 2 -68 2q-49 0 -76 -2q-96 238 -389 893l-59 -555 q-10 -109 -23 -338l-119 10q-18 0 -100 -10zM729 1696q0 100 86 149q41 25 90 25q84 0 142 -76l22 -43l11 -47v-6q0 -82 -76 -142l-43 -24l-47 -11h-9q-106 0 -155 91q-20 39 -21 84z" />
<glyph unicode="&#x1e41;" horiz-adv-x="1794" d="M119 0q16 215 16 485q0 231 -16 498q78 -6 153 -6l160 6v-141q123 145 287 164q18 2 37 2q209 0 278 -183q90 162 287 181q20 2 41 2q174 0 256 -140l27 -61q16 -49 18 -102q0 -141 -2 -216q0 -260 14 -489q-111 8 -170 8l-168 -8q14 172 15 440v129q-12 238 -144 248 q-106 0 -143 -129l-2 -8q-14 -82 -14 -209q0 -195 14 -471q-139 10 -164 10l-166 -10q14 207 15 440l-3 127v2q0 211 -100 242l-41 6q-106 0 -143 -129l-2 -8q-14 -82 -15 -209q0 -195 15 -471l-170 10q-31 0 -170 -10zM882 1305q0 100 86 149q41 25 90 25q84 0 142 -76 l22 -43l11 -47v-6q0 -82 -76 -142l-43 -24l-47 -11h-9q-106 0 -155 91q-20 39 -21 84z" />
<glyph unicode="&#x1e42;" horiz-adv-x="1794" d="M47 0q68 381 109 686l92 688q90 -8 137 -8l143 8q150 -406 369 -907l252 551q82 174 137 356l139 -8q47 0 138 8l67 -676q59 -512 88 -698q-154 10 -182 10l-186 -10q-4 238 -29 430l-45 479q-195 -426 -395 -909q-23 2 -68 2q-49 0 -76 -2q-96 238 -389 893l-59 -555 q-10 -109 -23 -338l-119 10q-18 0 -100 -10zM706 -297q0 100 86 149q41 25 90 25q84 0 142 -76l22 -43l11 -47v-6q0 -82 -76 -142l-43 -24l-47 -11h-9q-106 0 -155 91q-20 39 -21 84z" />
<glyph unicode="&#x1e43;" horiz-adv-x="1794" d="M119 0q16 215 16 485q0 231 -16 498q78 -6 153 -6l160 6v-141q123 145 287 164q18 2 37 2q209 0 278 -183q90 162 287 181q20 2 41 2q174 0 256 -140l27 -61q16 -49 18 -102q0 -141 -2 -216q0 -260 14 -489q-111 8 -170 8l-168 -8q14 172 15 440v129q-12 238 -144 248 q-106 0 -143 -129l-2 -8q-14 -82 -14 -209q0 -195 14 -471q-139 10 -164 10l-166 -10q14 207 15 440l-3 127v2q0 211 -100 242l-41 6q-106 0 -143 -129l-2 -8q-14 -82 -15 -209q0 -195 15 -471l-170 10q-31 0 -170 -10zM721 -297q0 100 86 149q41 25 90 25q84 0 142 -76 l22 -43l11 -47v-6q0 -82 -76 -142l-43 -24l-47 -11h-9q-106 0 -155 91q-20 39 -21 84z" />
<glyph unicode="&#x1e44;" horiz-adv-x="1488" d="M127 0q23 268 23 655q0 293 -11 506l-6 213q39 -4 129 -8q86 4 135 8q397 -500 770 -895v379q0 274 -14 516q74 -8 107 -8q51 0 112 10q-18 -129 -22 -289q-6 -272 -7 -815q4 -156 15 -272q-96 10 -121 10q-18 0 -121 -10q-393 479 -790 911v-555q2 -119 10 -356l-100 10 zM1196 1696q0 100 86 149q41 25 90 25q84 0 142 -76l22 -43l11 -47v-6q0 -82 -76 -142l-43 -24l-47 -11h-9q-106 0 -155 91q-20 39 -21 84z" />
<glyph unicode="&#x1e45;" d="M119 0q16 221 16 500q0 225 -16 483q94 -8 147 -8q92 0 166 8v-145q98 121 244 155q39 10 76 11q180 0 264 -142q43 -70 47 -162q0 -143 -2 -215q0 -258 14 -485q-111 8 -162 8q-53 0 -172 -8q14 287 15 492q0 92 -6 137q0 127 -80 170q-27 14 -62 14q-88 0 -127 -76 l-8 -18q-31 -70 -31 -232q0 -201 15 -487l-168 10q-31 0 -170 -10zM422 1305q0 100 86 149q41 25 90 25q84 0 142 -76l22 -43l11 -47v-6q0 -82 -76 -142l-43 -24l-47 -11h-9q-106 0 -155 91q-20 39 -21 84z" />
<glyph unicode="&#x1e46;" horiz-adv-x="1488" d="M127 0q23 268 23 655q0 293 -11 506l-6 213q39 -4 129 -8q86 4 135 8q397 -500 770 -895v379q0 274 -14 516q74 -8 107 -8q51 0 112 10q-18 -129 -22 -289q-6 -272 -7 -815q4 -156 15 -272q-96 10 -121 10q-18 0 -121 -10q-393 479 -790 911v-555q2 -119 10 -356l-100 10 zM567 -297q0 100 86 149q41 25 90 25q84 0 142 -76l22 -43l11 -47v-6q0 -82 -76 -142l-43 -24l-47 -11h-9q-106 0 -155 91q-20 39 -21 84z" />
<glyph unicode="&#x1e47;" d="M119 0q16 221 16 500q0 225 -16 483q94 -8 147 -8q92 0 166 8v-145q98 121 244 155q39 10 76 11q180 0 264 -142q43 -70 47 -162q0 -143 -2 -215q0 -258 14 -485q-111 8 -162 8q-53 0 -172 -8q14 287 15 492q0 92 -6 137q0 127 -80 170q-27 14 -62 14q-88 0 -127 -76 l-8 -18q-31 -70 -31 -232q0 -201 15 -487l-168 10q-31 0 -170 -10zM422 -297q0 100 86 149q41 25 90 25q84 0 142 -76l22 -43l11 -47v-6q0 -82 -76 -142l-43 -24l-47 -11h-9q-106 0 -155 91q-20 39 -21 84z" />
<glyph unicode="&#x1e4a;" horiz-adv-x="1488" d="M127 0q23 268 23 655q0 293 -11 506l-6 213q39 -4 129 -8q86 4 135 8q397 -500 770 -895v379q0 274 -14 516q74 -8 107 -8q51 0 112 10q-18 -129 -22 -289q-6 -272 -7 -815q4 -156 15 -272q-96 10 -121 10q-18 0 -121 -10q-393 479 -790 911v-555q2 -119 10 -356l-100 10 zM172 -131q68 -6 141 -6l351 14q334 0 446 -129l35 -49l24 -61l13 -80q2 -16 2 -35q0 -176 -135 -276q-78 -57 -179 -66q188 -324 443 -686l-158 8q-111 0 -258 -8q-109 233 -379 645v-264q0 -211 17 -381q-147 10 -179 10l-184 -10q29 344 29 588q0 416 -29 786zM516 -479 v-281q330 1 330 271q0 160 -125 215l-60 16q-14 4 -30 4q-35 2 -109 2q-6 -115 -6 -227z" />
<glyph unicode="&#x1e4b;" d="M27 -131q68 -6 141 -6l351 14q334 0 446 -129l35 -49l24 -61l13 -80q2 -16 2 -35q0 -176 -135 -276q-78 -57 -179 -66q188 -324 443 -686l-158 8q-111 0 -258 -8q-109 233 -379 645v-264q0 -211 17 -381q-147 10 -179 10l-184 -10q29 344 29 588q0 416 -29 786zM119 0 q16 221 16 500q0 225 -16 483q94 -8 147 -8q92 0 166 8v-145q98 121 244 155q39 10 76 11q180 0 264 -142q43 -70 47 -162q0 -143 -2 -215q0 -258 14 -485q-111 8 -162 8q-53 0 -172 -8q14 287 15 492q0 92 -6 137q0 127 -80 170q-27 14 -62 14q-88 0 -127 -76l-8 -18 q-31 -70 -31 -232q0 -201 15 -487l-168 10q-31 0 -170 -10zM371 -479v-281q330 1 330 271q0 160 -125 215l-60 16q-14 4 -30 4q-35 2 -109 2q-6 -115 -6 -227z" />
<glyph unicode="&#x1e4c;" horiz-adv-x="1665" d="M59 686q14 418 326 600q193 113 467 113q393 0 594 -230q156 -174 156 -452q0 -428 -308 -619l-88 -47q-168 -74 -391 -74q-449 0 -641 283q-115 170 -115 426zM424 686q0 -262 117 -428q108 -152 288 -152q256 0 359 283q51 139 51 307q0 270 -125 432 q-104 139 -278 140q-262 0 -365 -283l-29 -104q-18 -94 -18 -195zM477 1522q29 193 160 244q37 14 82 14q68 0 166 -47t143 -47q61 0 96 67q6 12 13 27h88q-29 -193 -160 -244q-37 -14 -82 -14q-63 0 -188 57l-80 31l-41 6q-61 0 -96 -68l-13 -26h-88zM942 1927l119 471 q16 94 84 133q25 14 53 15q84 0 121 -70q14 -27 15 -59q-4 -53 -33 -94l-299 -420z" />
<glyph unicode="&#x1e4d;" horiz-adv-x="1140" d="M45 492q0 297 219 434q132 82 320 82q272 0 411 -189q98 -133 99 -321q0 -305 -215 -441q-127 -80 -310 -80q-287 0 -428 195q-96 129 -96 320zM209 1131q29 193 160 244q37 14 82 14q68 0 166 -47t143 -47q61 0 96 67q6 12 13 27h88q-29 -193 -160 -244q-37 -14 -82 -14 q-63 0 -188 57l-80 31l-41 6q-61 0 -96 -68l-13 -26h-88zM379 492q0 -125 20 -236q14 -127 105 -166q31 -14 67 -14q135 0 172 178q0 -14 7 41q10 102 10 201q0 168 -17 233q-35 178 -174 178q-102 0 -143 -86q-47 -98 -47 -329zM673 1536l119 471q16 94 84 133q25 14 53 15 q84 0 121 -70q14 -27 15 -59q-4 -53 -33 -94l-299 -420z" />
<glyph unicode="&#x1e4e;" horiz-adv-x="1665" d="M59 686q14 418 326 600q193 113 467 113q393 0 594 -230q156 -174 156 -452q0 -428 -308 -619l-88 -47q-168 -74 -391 -74q-449 0 -641 283q-115 170 -115 426zM424 686q0 -262 117 -428q108 -152 288 -152q256 0 359 283q51 139 51 307q0 270 -125 432 q-104 139 -278 140q-262 0 -365 -283l-29 -104q-18 -94 -18 -195zM477 1522q29 193 160 244q37 14 82 14q68 0 166 -47t143 -47q61 0 96 67q6 12 13 27h88q-29 -193 -160 -244q-37 -14 -82 -14q-63 0 -188 57l-80 31l-41 6q-61 0 -96 -68l-13 -26h-88zM639 2044q0 84 76 125 q31 17 68 17q84 0 122 -78l15 -43l2 -21q0 -84 -72 -125l-39 -14q-12 -2 -24 -2q-86 0 -129 72q-18 33 -19 69zM1024 2044q0 86 76 125q31 17 66 17q86 0 122 -74q16 -33 17 -68q0 -84 -72 -125q-29 -16 -63 -16q-82 0 -125 72q-20 33 -21 69z" />
<glyph unicode="&#x1e4f;" horiz-adv-x="1140" d="M45 492q0 297 219 434q132 82 320 82q272 0 411 -189q98 -133 99 -321q0 -305 -215 -441q-127 -80 -310 -80q-287 0 -428 195q-96 129 -96 320zM209 1131q29 193 160 244q37 14 82 14q68 0 166 -47t143 -47q61 0 96 67q6 12 13 27h88q-29 -193 -160 -244q-37 -14 -82 -14 q-63 0 -188 57l-80 31l-41 6q-61 0 -96 -68l-13 -26h-88zM370 1652q0 84 76 125q31 17 68 17q84 0 122 -78l15 -43l2 -21q0 -84 -72 -125l-39 -14q-12 -2 -24 -2q-86 0 -129 72q-18 33 -19 69zM379 492q0 -125 20 -236q14 -127 105 -166q31 -14 67 -14q135 0 172 178 q0 -14 7 41q10 102 10 201q0 168 -17 233q-35 178 -174 178q-102 0 -143 -86q-47 -98 -47 -329zM755 1652q0 86 76 125q31 17 66 17q86 0 122 -74q16 -33 17 -68q0 -84 -72 -125q-29 -16 -63 -16q-82 0 -125 72q-20 33 -21 69z" />
<glyph unicode="&#x1e54;" horiz-adv-x="1181" d="M135 0q25 279 25 680q0 342 -25 692q123 -8 182 -8l267 10l71 2h2q471 0 471 -370q0 -221 -167 -340l-66 -39l-78 -29l-76 -14q-84 -10 -245 -11v-276q2 -125 20 -297q-164 10 -190 10q-31 0 -191 -10zM492 717q254 0 290 190q9 35 9 80q0 168 -115 225q-43 20 -98 21 q-25 0 -82 -4q-4 -131 -4 -207v-305zM626 1546l119 471q16 94 84 133q25 14 53 15q84 0 121 -70q14 -27 15 -59q-4 -53 -33 -94l-299 -420z" />
<glyph unicode="&#x1e55;" horiz-adv-x="1216" d="M121 -567q14 219 14 372q0 459 -6 914l-8 264q88 -10 168 -10q76 0 164 10q-10 -72 -11 -127q125 152 297 152q242 0 346 -246l31 -92q23 -92 23 -195q0 -268 -152 -405q-104 -92 -262 -93q-180 0 -281 148v-229q2 -152 11 -463q-111 12 -166 12q-57 0 -168 -12z M438 483.5q0 -366.5 197 -366.5q74 0 108 47q76 88 78 295v39q0 352 -186 352q-197 0 -197 -366.5zM708 1155l119 471q16 94 84 133q25 14 53 15q84 0 121 -70q14 -27 15 -59q-4 -53 -33 -94l-299 -420z" />
<glyph unicode="&#x1e56;" horiz-adv-x="1181" d="M135 0q25 279 25 680q0 342 -25 692q123 -8 182 -8l267 10l71 2h2q471 0 471 -370q0 -221 -167 -340l-66 -39l-78 -29l-76 -14q-84 -10 -245 -11v-276q2 -125 20 -297q-164 10 -190 10q-31 0 -191 -10zM481 1696q0 100 86 149q41 25 90 25q84 0 142 -76l22 -43l11 -47v-6 q0 -82 -76 -142l-43 -24l-47 -11h-9q-106 0 -155 91q-20 39 -21 84zM492 717q254 0 290 190q9 35 9 80q0 168 -115 225q-43 20 -98 21q-25 0 -82 -4q-4 -131 -4 -207v-305z" />
<glyph unicode="&#x1e57;" horiz-adv-x="1216" d="M121 -567q14 219 14 372q0 459 -6 914l-8 264q88 -10 168 -10q76 0 164 10q-10 -72 -11 -127q125 152 297 152q242 0 346 -246l31 -92q23 -92 23 -195q0 -268 -152 -405q-104 -92 -262 -93q-180 0 -281 148v-229q2 -152 11 -463q-111 12 -166 12q-57 0 -168 -12z M438 483.5q0 -366.5 197 -366.5q74 0 108 47q76 88 78 295v39q0 352 -186 352q-197 0 -197 -366.5zM563 1305q0 100 86 149q41 25 90 25q84 0 142 -76l22 -43l11 -47v-6q0 -82 -76 -142l-43 -24l-47 -11h-9q-106 0 -155 91q-20 39 -21 84z" />
<glyph unicode="&#x1e58;" horiz-adv-x="1232" d="M129 0q29 344 29 588q0 416 -29 786q68 -6 141 -6l351 14q334 0 446 -129l35 -49l24 -61l13 -80q2 -16 2 -35q0 -176 -135 -276q-78 -57 -179 -66q188 -324 443 -686l-158 8q-111 0 -258 -8q-109 233 -379 645v-264q0 -211 17 -381q-147 10 -179 10zM444 1696 q0 100 86 149q41 25 90 25q84 0 142 -76l22 -43l11 -47v-6q0 -82 -76 -142l-43 -24l-47 -11h-9q-106 0 -155 91q-20 39 -21 84zM473 745q330 1 330 271q0 160 -125 215l-60 16q-14 4 -30 4q-35 2 -109 2q-6 -115 -6 -227v-281z" />
<glyph unicode="&#x1e59;" horiz-adv-x="768" d="M119 0q16 215 16 481q0 233 -16 502q51 -4 149 -8q51 0 170 8q-25 -88 -24 -240h12q72 236 246 263q14 2 28 2q16 0 45 -4q-18 -141 -18 -330q-76 43 -127 43q-160 0 -160 -240q4 -340 19 -477l-170 10q-31 0 -170 -10zM256 1305q0 100 86 149q41 25 90 25q84 0 142 -76 l22 -43l11 -47v-6q0 -82 -76 -142l-43 -24l-47 -11h-9q-106 0 -155 91q-20 39 -21 84z" />
<glyph unicode="&#x1e5a;" horiz-adv-x="1232" d="M129 0q29 344 29 588q0 416 -29 786q68 -6 141 -6l351 14q334 0 446 -129l35 -49l24 -61l13 -80q2 -16 2 -35q0 -176 -135 -276q-78 -57 -179 -66q188 -324 443 -686l-158 8q-111 0 -258 -8q-109 233 -379 645v-264q0 -211 17 -381q-147 10 -179 10zM473 745 q330 1 330 271q0 160 -125 215l-60 16q-14 4 -30 4q-35 2 -109 2q-6 -115 -6 -227v-281zM524 -297q0 100 86 149q41 25 90 25q84 0 142 -76l22 -43l11 -47v-6q0 -82 -76 -142l-43 -24l-47 -11h-9q-106 0 -155 91q-20 39 -21 84z" />
<glyph unicode="&#x1e5b;" horiz-adv-x="768" d="M112 -297q0 100 86 149q41 25 90 25q84 0 142 -76l22 -43l11 -47v-6q0 -82 -76 -142l-43 -24l-47 -11h-9q-106 0 -155 91q-20 39 -21 84zM119 0q16 215 16 481q0 233 -16 502q51 -4 149 -8q51 0 170 8q-25 -88 -24 -240h12q72 236 246 263q14 2 28 2q16 0 45 -4 q-18 -141 -18 -330q-76 43 -127 43q-160 0 -160 -240q4 -340 19 -477l-170 10q-31 0 -170 -10z" />
<glyph unicode="&#x1e60;" horiz-adv-x="1093" d="M82 39q16 78 63 332h31q53 -174 146 -226q63 -35 159 -34q117 0 197 79q51 53 51 121q0 119 -149 203l-273 133q-197 109 -217 281q-4 25 -4 51q0 236 219 350q133 70 303 70q186 0 361 -84q-47 -115 -82 -264h-23q-55 156 -194 198l-64 15h-24q-150 0 -203 -97 q-20 -35 -23 -77q0 -100 148 -183l276 -135q168 -92 215 -213q23 -55 23 -123q0 -262 -246 -387q-147 -76 -338 -76q-195 0 -352 66zM432 1696q0 100 86 149q41 25 90 25q84 0 142 -76l22 -43l11 -47v-6q0 -82 -76 -142l-43 -24l-47 -11h-9q-106 0 -155 91q-20 39 -21 84z " />
<glyph unicode="&#x1e61;" horiz-adv-x="860" d="M63 39l50 252h28q68 -203 238 -207q106 0 156 61q20 27 20 62q0 78 -111 127l-190 76q-170 100 -178 264q0 197 178 287q96 47 217 47q117 0 289 -66q-53 -152 -76 -225h-20q-53 180 -215 180q-100 0 -136 -68l-10 -38v-9q0 -72 113 -116l200 -74q141 -63 175 -174 l10 -64v-18q0 -213 -185 -307l-73 -31q-70 -20 -150 -21q-193 0 -330 62zM295 1305q0 100 86 149q41 25 90 25q84 0 142 -76l22 -43l11 -47v-6q0 -82 -76 -142l-43 -24l-47 -11h-9q-106 0 -155 91q-20 39 -21 84z" />
<glyph unicode="&#x1e62;" horiz-adv-x="1093" d="M82 39q16 78 63 332h31q53 -174 146 -226q63 -35 159 -34q117 0 197 79q51 53 51 121q0 119 -149 203l-273 133q-197 109 -217 281q-4 25 -4 51q0 236 219 350q133 70 303 70q186 0 361 -84q-47 -115 -82 -264h-23q-55 156 -194 198l-64 15h-24q-150 0 -203 -97 q-20 -35 -23 -77q0 -100 148 -183l276 -135q168 -92 215 -213q23 -55 23 -123q0 -262 -246 -387q-147 -76 -338 -76q-195 0 -352 66zM258 -323q0 100 86 149q41 25 90 25q84 0 142 -76l22 -43l11 -47v-6q0 -82 -76 -142l-43 -24l-47 -11h-9q-106 0 -155 91q-20 39 -21 84z " />
<glyph unicode="&#x1e63;" horiz-adv-x="860" d="M63 39l50 252h28q68 -203 238 -207q106 0 156 61q20 27 20 62q0 78 -111 127l-190 76q-170 100 -178 264q0 197 178 287q96 47 217 47q117 0 289 -66q-53 -152 -76 -225h-20q-53 180 -215 180q-100 0 -136 -68l-10 -38v-9q0 -72 113 -116l200 -74q141 -63 175 -174 l10 -64v-18q0 -213 -185 -307l-73 -31q-70 -20 -150 -21q-193 0 -330 62zM217 -319q0 100 86 149q41 25 90 25q84 0 142 -76l22 -43l11 -47v-6q0 -82 -76 -142l-43 -24l-47 -11h-9q-106 0 -155 91q-20 39 -21 84z" />
<glyph unicode="&#x1e68;" horiz-adv-x="1093" d="M82 39q16 78 63 332h31q53 -174 146 -226q63 -35 159 -34q117 0 197 79q51 53 51 121q0 119 -149 203l-273 133q-197 109 -217 281q-4 25 -4 51q0 236 219 350q133 70 303 70q186 0 361 -84q-47 -115 -82 -264h-23q-55 156 -194 198l-64 15h-24q-150 0 -203 -97 q-20 -35 -23 -77q0 -100 148 -183l276 -135q168 -92 215 -213q23 -55 23 -123q0 -262 -246 -387q-147 -76 -338 -76q-195 0 -352 66zM258 -323q0 100 86 149q41 25 90 25q84 0 142 -76l22 -43l11 -47v-6q0 -82 -76 -142l-43 -24l-47 -11h-9q-106 0 -155 91q-20 39 -21 84z M432 1696q0 100 86 149q41 25 90 25q84 0 142 -76l22 -43l11 -47v-6q0 -82 -76 -142l-43 -24l-47 -11h-9q-106 0 -155 91q-20 39 -21 84z" />
<glyph unicode="&#x1e69;" horiz-adv-x="860" d="M63 39l50 252h28q68 -203 238 -207q106 0 156 61q20 27 20 62q0 78 -111 127l-190 76q-170 100 -178 264q0 197 178 287q96 47 217 47q117 0 289 -66q-53 -152 -76 -225h-20q-53 180 -215 180q-100 0 -136 -68l-10 -38v-9q0 -72 113 -116l200 -74q141 -63 175 -174 l10 -64v-18q0 -213 -185 -307l-73 -31q-70 -20 -150 -21q-193 0 -330 62zM217 -319q0 100 86 149q41 25 90 25q84 0 142 -76l22 -43l11 -47v-6q0 -82 -76 -142l-43 -24l-47 -11h-9q-106 0 -155 91q-20 39 -21 84zM295 1305q0 100 86 149q41 25 90 25q84 0 142 -76l22 -43 l11 -47v-6q0 -82 -76 -142l-43 -24l-47 -11h-9q-106 0 -155 91q-20 39 -21 84z" />
<glyph unicode="&#x1e6a;" horiz-adv-x="1103" d="M12 1182l6 104l-6 88q420 -14 539 -14t539 14q-6 -47 -7 -90q0 -51 7 -102q-181 24 -363 24q-8 -109 -8 -243q0 -610 22 -963q-123 8 -188 8q-70 0 -193 -8q25 399 25 702q0 172 -8 504q-123 0 -365 -24zM374 1696q0 100 86 149q41 25 90 25q84 0 142 -76l22 -43l11 -47 v-6q0 -82 -76 -142l-43 -24l-47 -11h-9q-106 0 -155 91q-20 39 -21 84z" />
<glyph unicode="&#x1e6b;" horiz-adv-x="681" d="M14 858l2 64v2l-2 63v2q45 -6 138 -6q0 156 -13 231q129 39 301 134h43q-14 -88 -18 -181v-184q115 0 174 6q-4 -41 -4 -61q0 -25 4 -70q-59 2 -178 2l-4 -526q2 -135 22 -176q31 -61 103 -62q49 0 110 10l-8 -92q-115 -41 -252 -41q-291 0 -291 271l11 614v2 q-93 0 -138 -2zM120 1645q0 100 86 149q41 25 90 25q84 0 142 -76l22 -43l11 -47v-6q0 -82 -76 -142l-43 -24l-47 -11h-9q-106 0 -155 91q-20 39 -21 84z" />
<glyph unicode="&#x1e6c;" horiz-adv-x="1103" d="M12 1182l6 104l-6 88q420 -14 539 -14t539 14q-6 -47 -7 -90q0 -51 7 -102q-181 24 -363 24q-8 -109 -8 -243q0 -610 22 -963q-123 8 -188 8q-70 0 -193 -8q25 399 25 702q0 172 -8 504q-123 0 -365 -24zM374 -297q0 100 86 149q41 25 90 25q84 0 142 -76l22 -43l11 -47 v-6q0 -82 -76 -142l-43 -24l-47 -11h-9q-106 0 -155 91q-20 39 -21 84z" />
<glyph unicode="&#x1e6d;" horiz-adv-x="681" d="M14 858l2 64v2l-2 63v2q45 -6 138 -6q0 156 -13 231q129 39 301 134h43q-14 -88 -18 -181v-184q115 0 174 6q-4 -41 -4 -61q0 -25 4 -70q-59 2 -178 2l-4 -526q2 -135 22 -176q31 -61 103 -62q49 0 110 10l-8 -92q-115 -41 -252 -41q-291 0 -291 271l11 614v2 q-93 0 -138 -2zM256 -323q0 100 86 149q41 25 90 25q84 0 142 -76l22 -43l11 -47v-6q0 -82 -76 -142l-43 -24l-47 -11h-9q-106 0 -155 91q-20 39 -21 84z" />
<glyph unicode="&#x1e70;" horiz-adv-x="1103" d="M-18 -131q68 -6 141 -6l351 14q334 0 446 -129l35 -49l24 -61l13 -80q2 -16 2 -35q0 -176 -135 -276q-78 -57 -179 -66q188 -324 443 -686l-158 8q-111 0 -258 -8q-109 233 -379 645v-264q0 -211 17 -381q-147 10 -179 10l-184 -10q29 344 29 588q0 416 -29 786zM12 1182 l6 104l-6 88q420 -14 539 -14t539 14q-6 -47 -7 -90q0 -51 7 -102q-181 24 -363 24q-8 -109 -8 -243q0 -610 22 -963q-123 8 -188 8q-70 0 -193 -8q25 399 25 702q0 172 -8 504q-123 0 -365 -24zM326 -479v-281q330 1 330 271q0 160 -125 215l-60 16q-14 4 -30 4 q-35 2 -109 2q-6 -115 -6 -227z" />
<glyph unicode="&#x1e71;" horiz-adv-x="681" d="M-137 -158q68 -6 141 -6l351 14q334 0 446 -129l35 -49l24 -61l13 -80q2 -16 2 -35q0 -176 -135 -276q-78 -57 -179 -66q188 -324 443 -686l-158 8q-111 0 -258 -8q-109 233 -379 645v-264q0 -211 17 -381q-147 10 -179 10l-184 -10q29 344 29 588q0 416 -29 786zM14 858 l2 64v2l-2 63v2q45 -6 138 -6q0 156 -13 231q129 39 301 134h43q-14 -88 -18 -181v-184q115 0 174 6q-4 -41 -4 -61q0 -25 4 -70q-59 2 -178 2l-4 -526q2 -135 22 -176q31 -61 103 -62q49 0 110 10l-8 -92q-115 -41 -252 -41q-291 0 -291 271l11 614v2q-93 0 -138 -2z M207 -506v-281q330 1 330 271q0 160 -125 215l-60 16q-14 4 -30 4q-35 2 -109 2q-6 -115 -6 -227z" />
<glyph unicode="&#x1e72;" horiz-adv-x="1472" d="M121 1374l190 -8l189 8q-27 -297 -27 -753q0 -303 115 -402q70 -57 180 -57q172 0 279 121q59 68 73 159q16 141 17 365q0 315 -25 567l84 -8h2q61 0 143 8q-20 -260 -20 -467l4 -198q0 -104 -4 -156q0 -520 -485 -569l-107 -7q-442 0 -551 291q-25 70 -31 154 q-10 137 -16 627q-2 192 -10 325zM395 -287q0 84 76 125q31 17 68 17q84 0 122 -78l15 -43l2 -21q0 -84 -72 -125l-39 -14q-12 -2 -24 -2q-86 0 -129 72q-18 33 -19 69zM780 -287q0 86 76 125q31 17 66 17q86 0 122 -74q16 -33 17 -68q0 -84 -72 -125q-29 -16 -63 -16 q-82 0 -125 72q-20 33 -21 69z" />
<glyph unicode="&#x1e73;" d="M98 -287q0 84 76 125q31 17 68 17q84 0 122 -78l15 -43l2 -21q0 -84 -72 -125l-39 -14q-12 -2 -24 -2q-86 0 -129 72q-18 33 -19 69zM111 983q129 -14 163 -14q41 0 170 14q-8 -152 -12 -313q0 -4 -2 -107q0 -76 2 -151q0 -215 115 -242q16 -4 37 -4q121 0 149 172 q2 4 2 8q6 74 6 143q0 244 -12 494q125 -14 176 -14q37 0 162 14q-16 -223 -16 -502q0 -266 16 -479q-102 4 -155.5 4t-155.5 -4v137q-113 -133 -271 -157l-53 -5q-182 0 -266 142q-39 70 -43 160q0 145 2 217q0 258 -14 487zM483 -287q0 86 76 125q31 17 66 17 q86 0 122 -74q16 -33 17 -68q0 -84 -72 -125q-29 -16 -63 -16q-82 0 -125 72q-20 33 -21 69z" />
<glyph unicode="&#x1e74;" horiz-adv-x="1472" d="M121 1374l190 -8l189 8q-27 -297 -27 -753q0 -303 115 -402q70 -57 180 -57q172 0 279 121q59 68 73 159q16 141 17 365q0 315 -25 567l84 -8h2q61 0 143 8q-20 -260 -20 -467l4 -198q0 -104 -4 -156q0 -520 -485 -569l-107 -7q-442 0 -551 291q-25 70 -31 154 q-10 137 -16 627q-2 192 -10 325zM354 -403q29 193 160 244q37 14 82 14q68 0 166 -47t143 -47q61 0 96 67q6 12 13 27h88q-29 -193 -160 -244q-37 -14 -82 -14q-63 0 -188 57l-80 31l-41 6q-61 0 -96 -68l-13 -26h-88z" />
<glyph unicode="&#x1e75;" d="M57 -403q29 193 160 244q37 14 82 14q68 0 166 -47t143 -47q61 0 96 67q6 12 13 27h88q-29 -193 -160 -244q-37 -14 -82 -14q-63 0 -188 57l-80 31l-41 6q-61 0 -96 -68l-13 -26h-88zM111 983q129 -14 163 -14q41 0 170 14q-8 -152 -12 -313q0 -4 -2 -107q0 -76 2 -151 q0 -215 115 -242q16 -4 37 -4q121 0 149 172q2 4 2 8q6 74 6 143q0 244 -12 494q125 -14 176 -14q37 0 162 14q-16 -223 -16 -502q0 -266 16 -479q-102 4 -155.5 4t-155.5 -4v137q-113 -133 -271 -157l-53 -5q-182 0 -266 142q-39 70 -43 160q0 145 2 217q0 258 -14 487z " />
<glyph unicode="&#x1e76;" horiz-adv-x="1472" d="M121 1374l190 -8l189 8q-27 -297 -27 -753q0 -303 115 -402q70 -57 180 -57q172 0 279 121q59 68 73 159q16 141 17 365q0 315 -25 567l84 -8h2q61 0 143 8q-20 -260 -20 -467l4 -198q0 -104 -4 -156q0 -520 -485 -569l-107 -7q-442 0 -551 291q-25 70 -31 154 q-10 137 -16 627q-2 192 -10 325zM158 -154q68 -6 141 -6l351 14q334 0 446 -129l35 -49l24 -61l13 -80q2 -16 2 -35q0 -176 -135 -276q-78 -57 -179 -66q188 -324 443 -686l-158 8q-111 0 -258 -8q-109 233 -379 645v-264q0 -211 17 -381q-147 10 -179 10l-184 -10 q29 344 29 588q0 416 -29 786zM502 -502v-281q330 1 330 271q0 160 -125 215l-60 16q-14 4 -30 4q-35 2 -109 2q-6 -115 -6 -227z" />
<glyph unicode="&#x1e77;" d="M-137 -154q68 -6 141 -6l351 14q334 0 446 -129l35 -49l24 -61l13 -80q2 -16 2 -35q0 -176 -135 -276q-78 -57 -179 -66q188 -324 443 -686l-158 8q-111 0 -258 -8q-109 233 -379 645v-264q0 -211 17 -381q-147 10 -179 10l-184 -10q29 344 29 588q0 416 -29 786z M111 983q129 -14 163 -14q41 0 170 14q-8 -152 -12 -313q0 -4 -2 -107q0 -76 2 -151q0 -215 115 -242q16 -4 37 -4q121 0 149 172q2 4 2 8q6 74 6 143q0 244 -12 494q125 -14 176 -14q37 0 162 14q-16 -223 -16 -502q0 -266 16 -479q-102 4 -155.5 4t-155.5 -4v137 q-113 -133 -271 -157l-53 -5q-182 0 -266 142q-39 70 -43 160q0 145 2 217q0 258 -14 487zM207 -502v-281q330 1 330 271q0 160 -125 215l-60 16q-14 4 -30 4q-35 2 -109 2q-6 -115 -6 -227z" />
<glyph unicode="&#x1e7c;" horiz-adv-x="1206" d="M-29 1374l207 -8q6 0 187 8q35 -135 75 -241l262 -697l252 701q49 135 68 237q39 -4 108 -8l134 8q-84 -166 -154 -332l-274 -700q-68 -160 -115 -342q-92 10 -111 10l-114 -10q-33 107 -119 340zM243 1522q29 193 160 244q37 14 82 14q68 0 166 -47t143 -47q61 0 96 67 q6 12 13 27h88q-29 -193 -160 -244q-37 -14 -82 -14q-63 0 -188 57l-80 31l-41 6q-61 0 -96 -68l-13 -26h-88z" />
<glyph unicode="&#x1e7d;" horiz-adv-x="983" d="M0 983l195 -10q35 0 182 10q45 -168 55 -205l139 -448q127 330 205 653q72 -8 103 -10l108 10q-184 -444 -371 -983q-109 10 -129 10l-127 -10q-172 537 -360 983zM119 1131q29 193 160 244q37 14 82 14q68 0 166 -47t143 -47q61 0 96 67q6 12 13 27h88 q-29 -193 -160 -244q-37 -14 -82 -14q-63 0 -188 57l-80 31l-41 6q-61 0 -96 -68l-13 -26h-88z" />
<glyph unicode="&#x1e7e;" horiz-adv-x="1206" d="M-29 1374l207 -8q6 0 187 8q35 -135 75 -241l262 -697l252 701q49 135 68 237q39 -4 108 -8l134 8q-84 -166 -154 -332l-274 -700q-68 -160 -115 -342q-92 10 -111 10l-114 -10q-33 107 -119 340zM432 -297q0 100 86 149q41 25 90 25q84 0 142 -76l22 -43l11 -47v-6 q0 -82 -76 -142l-43 -24l-47 -11h-9q-106 0 -155 91q-20 39 -21 84z" />
<glyph unicode="&#x1e7f;" horiz-adv-x="983" d="M0 983l195 -10q35 0 182 10q45 -168 55 -205l139 -448q127 330 205 653q72 -8 103 -10l108 10q-184 -444 -371 -983q-109 10 -129 10l-127 -10q-172 537 -360 983zM313 -297q0 100 86 149q41 25 90 25q84 0 142 -76l22 -43l11 -47v-6q0 -82 -76 -142l-43 -24l-47 -11h-9 q-106 0 -155 91q-20 39 -21 84z" />
<glyph unicode="&#x1e80;" horiz-adv-x="1955" d="M-12 1374q127 -8 196 -8l193 8q88 -395 241 -934l316 934q37 -4 115 -8l135 8q90 -338 289 -936q141 453 247 936l121 -8q39 0 113 8l-139 -426l-312 -948q-78 8 -121 8q-39 0 -120 -8q-35 119 -170 537l-129 383q-160 -408 -312 -920l-121 10q-27 0 -129 -10 q-159 608 -413 1374zM608 2038q0 -53 33 -98l301 -418l57 22l-116 471q-37 150 -146 150q-78 0 -114 -68q-14 -29 -15 -59z" />
<glyph unicode="&#x1e81;" horiz-adv-x="1536" d="M10 983l180 -10l177 10q66 -309 163 -633q68 211 119 395l66 238l141 -10l143 10q31 -139 105 -418l61 -215l97 350q33 119 65 283q86 -10 109 -10q18 0 110 10q-68 -170 -135 -360l-213 -623q-82 8 -125 8l-125 -8l-119 424l-59 199q-98 -297 -192 -623q-90 8 -132 8 q-43 0 -129 -8zM415 1647q0 -53 33 -98l301 -418l57 22l-116 471q-37 150 -146 150q-78 0 -114 -68q-14 -29 -15 -59z" />
<glyph unicode="&#x1e82;" horiz-adv-x="1955" d="M-12 1374q127 -8 196 -8l193 8q88 -395 241 -934l316 934q37 -4 115 -8l135 8q90 -338 289 -936q141 453 247 936l121 -8q39 0 113 8l-139 -426l-312 -948q-78 8 -121 8q-39 0 -120 -8q-35 119 -170 537l-129 383q-160 -408 -312 -920l-121 10q-27 0 -129 -10 q-159 608 -413 1374zM940 1546l119 471q16 94 84 133q25 14 53 15q84 0 121 -70q14 -27 15 -59q-4 -53 -33 -94l-299 -420z" />
<glyph unicode="&#x1e83;" horiz-adv-x="1536" d="M10 983l180 -10l177 10q66 -309 163 -633q68 211 119 395l66 238l141 -10l143 10q31 -139 105 -418l61 -215l97 350q33 119 65 283q86 -10 109 -10q18 0 110 10q-68 -170 -135 -360l-213 -623q-82 8 -125 8l-125 -8l-119 424l-59 199q-98 -297 -192 -623q-90 8 -132 8 q-43 0 -129 -8zM747 1155l119 471q16 94 84 133q25 14 53 15q84 0 121 -70q14 -27 15 -59q-4 -53 -33 -94l-299 -420z" />
<glyph unicode="&#x1e84;" horiz-adv-x="1955" d="M-12 1374q127 -8 196 -8l193 8q88 -395 241 -934l316 934q37 -4 115 -8l135 8q90 -338 289 -936q141 453 247 936l121 -8q39 0 113 8l-139 -426l-312 -948q-78 8 -121 8q-39 0 -120 -8q-35 119 -170 537l-129 383q-160 -408 -312 -920l-121 10q-27 0 -129 -10 q-159 608 -413 1374zM637 1663q0 84 76 125q31 17 68 17q84 0 122 -78l15 -43l2 -21q0 -84 -72 -125l-39 -14q-12 -2 -24 -2q-86 0 -129 72q-18 33 -19 69zM1022 1663q0 86 76 125q31 17 66 17q86 0 122 -74q16 -33 17 -68q0 -84 -72 -125q-29 -16 -63 -16q-82 0 -125 72 q-20 33 -21 69z" />
<glyph unicode="&#x1e85;" horiz-adv-x="1536" d="M10 983l180 -10l177 10q66 -309 163 -633q68 211 119 395l66 238l141 -10l143 10q31 -139 105 -418l61 -215l97 350q33 119 65 283q86 -10 109 -10q18 0 110 10q-68 -170 -135 -360l-213 -623q-82 8 -125 8l-125 -8l-119 424l-59 199q-98 -297 -192 -623q-90 8 -132 8 q-43 0 -129 -8zM444 1271q0 84 76 125q31 17 68 17q84 0 122 -78l15 -43l2 -21q0 -84 -72 -125l-39 -14q-12 -2 -24 -2q-86 0 -129 72q-18 33 -19 69zM829 1271q0 86 76 125q31 17 66 17q86 0 122 -74q16 -33 17 -68q0 -84 -72 -125q-29 -16 -63 -16q-82 0 -125 72 q-20 33 -21 69z" />
<glyph unicode="&#x1e86;" horiz-adv-x="1955" d="M-12 1374q127 -8 196 -8l193 8q88 -395 241 -934l316 934q37 -4 115 -8l135 8q90 -338 289 -936q141 453 247 936l121 -8q39 0 113 8l-139 -426l-312 -948q-78 8 -121 8q-39 0 -120 -8q-35 119 -170 537l-129 383q-160 -408 -312 -920l-121 10q-27 0 -129 -10 q-159 608 -413 1374zM794 1696q0 100 86 149q41 25 90 25q84 0 142 -76l22 -43l11 -47v-6q0 -82 -76 -142l-43 -24l-47 -11h-9q-106 0 -155 91q-20 39 -21 84z" />
<glyph unicode="&#x1e87;" horiz-adv-x="1536" d="M10 983l180 -10l177 10q66 -309 163 -633q68 211 119 395l66 238l141 -10l143 10q31 -139 105 -418l61 -215l97 350q33 119 65 283q86 -10 109 -10q18 0 110 10q-68 -170 -135 -360l-213 -623q-82 8 -125 8l-125 -8l-119 424l-59 199q-98 -297 -192 -623q-90 8 -132 8 q-43 0 -129 -8zM602 1305q0 100 86 149q41 25 90 25q84 0 142 -76l22 -43l11 -47v-6q0 -82 -76 -142l-43 -24l-47 -11h-9q-106 0 -155 91q-20 39 -21 84z" />
<glyph unicode="&#x1e88;" horiz-adv-x="1955" d="M-12 1374q127 -8 196 -8l193 8q88 -395 241 -934l316 934q37 -4 115 -8l135 8q90 -338 289 -936q141 453 247 936l121 -8q39 0 113 8l-139 -426l-312 -948q-78 8 -121 8q-39 0 -120 -8q-35 119 -170 537l-129 383q-160 -408 -312 -920l-121 10q-27 0 -129 -10 q-159 608 -413 1374zM776 -297q0 100 86 149q41 25 90 25q84 0 142 -76l22 -43l11 -47v-6q0 -82 -76 -142l-43 -24l-47 -11h-9q-106 0 -155 91q-20 39 -21 84z" />
<glyph unicode="&#x1e89;" horiz-adv-x="1536" d="M10 983l180 -10l177 10q66 -309 163 -633q68 211 119 395l66 238l141 -10l143 10q31 -139 105 -418l61 -215l97 350q33 119 65 283q86 -10 109 -10q18 0 110 10q-68 -170 -135 -360l-213 -623q-82 8 -125 8l-125 -8l-119 424l-59 199q-98 -297 -192 -623q-90 8 -132 8 q-43 0 -129 -8zM581 -297q0 100 86 149q41 25 90 25q84 0 142 -76l22 -43l11 -47v-6q0 -82 -76 -142l-43 -24l-47 -11h-9q-106 0 -155 91q-20 39 -21 84z" />
<glyph unicode="&#x1e8a;" horiz-adv-x="1153" d="M-2 0l252 356l194 287l-421 731q139 -8 206.5 -8t210.5 8q20 -53 88 -190l129 -242q184 295 248 432l125 -8l125 8q-168 -225 -246 -340l-168 -250l441 -784q-152 8 -228 8q-131 -4 -192 -8q-41 100 -68 160l-168 321q-125 -195 -274 -481l-137 10q-20 0 -117 -10z M413 1696q0 100 86 149q41 25 90 25q84 0 142 -76l22 -43l11 -47v-6q0 -82 -76 -142l-43 -24l-47 -11h-9q-106 0 -155 91q-20 39 -21 84z" />
<glyph unicode="&#x1e8b;" horiz-adv-x="950" d="M-8 0q193 244 336 453l-162 282l-156 248q164 -10 197 -10q29 0 192 10l140 -285q74 111 170 285q70 -8 106 -10l123 10q-127 -152 -322 -416l175 -305q76 -131 161 -262l-192 10l-193 -10l-161 322l-179 -322q-35 4 -104 8q-41 0 -131 -8zM299 1305q0 100 86 149 q41 25 90 25q84 0 142 -76l22 -43l11 -47v-6q0 -82 -76 -142l-43 -24l-47 -11h-9q-106 0 -155 91q-20 39 -21 84z" />
<glyph unicode="&#x1e8c;" horiz-adv-x="1153" d="M-2 0l252 356l194 287l-421 731q139 -8 206.5 -8t210.5 8q20 -53 88 -190l129 -242q184 295 248 432l125 -8l125 8q-168 -225 -246 -340l-168 -250l441 -784q-152 8 -228 8q-131 -4 -192 -8q-41 100 -68 160l-168 321q-125 -195 -274 -481l-137 10q-20 0 -117 -10z M256 1663q0 84 76 125q31 17 68 17q84 0 122 -78l15 -43l2 -21q0 -84 -72 -125l-39 -14q-12 -2 -24 -2q-86 0 -129 72q-18 33 -19 69zM641 1663q0 86 76 125q31 17 66 17q86 0 122 -74q16 -33 17 -68q0 -84 -72 -125q-29 -16 -63 -16q-82 0 -125 72q-20 33 -21 69z" />
<glyph unicode="&#x1e8d;" horiz-adv-x="950" d="M-8 0q193 244 336 453l-162 282l-156 248q164 -10 197 -10q29 0 192 10l140 -285q74 111 170 285q70 -8 106 -10l123 10q-127 -152 -322 -416l175 -305q76 -131 161 -262l-192 10l-193 -10l-161 322l-179 -322q-35 4 -104 8q-41 0 -131 -8zM141 1271q0 84 76 125 q31 17 68 17q84 0 122 -78l15 -43l2 -21q0 -84 -72 -125l-39 -14q-12 -2 -24 -2q-86 0 -129 72q-18 33 -19 69zM526 1271q0 86 76 125q31 17 66 17q86 0 122 -74q16 -33 17 -68q0 -84 -72 -125q-29 -16 -63 -16q-82 0 -125 72q-20 33 -21 69z" />
<glyph unicode="&#x1e8e;" horiz-adv-x="1101" d="M-45 1374q53 -4 180 -8q78 0 242 8q141 -311 274 -557q137 223 287 557q37 -4 111 -8l125 8q-223 -328 -441 -753q0 -201 6 -410l9 -211l-136 8h-2q-102 0 -233 -8l18 340v10q0 174 -2 244l-194 364l-191 334q-27 43 -53 82zM389 1696q0 100 86 149q41 25 90 25 q84 0 142 -76l22 -43l11 -47v-6q0 -82 -76 -142l-43 -24l-47 -11h-9q-106 0 -155 91q-20 39 -21 84z" />
<glyph unicode="&#x1e8f;" horiz-adv-x="962" d="M0 983q131 -8 199 -8q61 0 172 8q70 -279 190 -606l107 305q41 121 88 301q31 -4 96 -8l135 8q-377 -821 -627 -1534q-55 8 -116 8q-66 0 -117 -8q94 145 162 291l108 235l-284 734q-76 190 -113 274zM317 1305q0 100 86 149q41 25 90 25q84 0 142 -76l22 -43l11 -47v-6 q0 -82 -76 -142l-43 -24l-47 -11h-9q-106 0 -155 91q-20 39 -21 84z" />
<glyph unicode="&#x1e90;" horiz-adv-x="1224" d="M37 0v80l694 1118h-297q-160 0 -289 -16l11 75q0 61 -11 117q174 -4 510 -8q178 0 547 8v-43l-713 -1157h347q221 0 391 27q-8 -59 -8 -138l2 -63q-381 8 -568 8q-207 0 -616 -8zM358 1522l223 365h180l228 -365h-101l-215 180l-219 -180h-96z" />
<glyph unicode="&#x1e91;" horiz-adv-x="978" d="M29 0v111l501 725l-151 2h-2q-92 0 -281 -25q4 53 4 84q0 29 -4 86q264 -8 402 -10q186 0 428 10v-117q-221 -274 -512 -721l137 -4h2q41 0 391 17q-4 -35 -4 -107l4 -51q-389 10 -452 10q-203 0 -463 -10zM195 1130l223 365h180l228 -365h-101l-215 180l-219 -180h-96z " />
<glyph unicode="&#x1e92;" horiz-adv-x="1224" d="M37 0v80l694 1118h-297q-160 0 -289 -16l11 75q0 61 -11 117q174 -4 510 -8q178 0 547 8v-43l-713 -1157h347q221 0 391 27q-8 -59 -8 -138l2 -63q-381 8 -568 8q-207 0 -616 -8zM452 -297q0 100 86 149q41 25 90 25q84 0 142 -76l22 -43l11 -47v-6q0 -82 -76 -142 l-43 -24l-47 -11h-9q-106 0 -155 91q-20 39 -21 84z" />
<glyph unicode="&#x1e93;" horiz-adv-x="978" d="M29 0v111l501 725l-151 2h-2q-92 0 -281 -25q4 53 4 84q0 29 -4 86q264 -8 402 -10q186 0 428 10v-117q-221 -274 -512 -721l137 -4h2q41 0 391 17q-4 -35 -4 -107l4 -51q-389 10 -452 10q-203 0 -463 -10zM311 -297q0 100 86 149q41 25 90 25q84 0 142 -76l22 -43 l11 -47v-6q0 -82 -76 -142l-43 -24l-47 -11h-9q-106 0 -155 91q-20 39 -21 84z" />
<glyph unicode="&#x1e97;" horiz-adv-x="681" d="M-35 1611q0 84 76 125q31 17 68 17q84 0 122 -78l15 -43l2 -21q0 -84 -72 -125l-39 -14q-12 -2 -24 -2q-86 0 -129 72q-18 33 -19 69zM14 858l2 64v2l-2 63v2q45 -6 138 -6q0 156 -13 231q129 39 301 134h43q-14 -88 -18 -181v-184q115 0 174 6q-4 -41 -4 -61 q0 -25 4 -70q-59 2 -178 2l-4 -526q2 -135 22 -176q31 -61 103 -62q49 0 110 10l-8 -92q-115 -41 -252 -41q-291 0 -291 271l11 614v2q-93 0 -138 -2zM350 1611q0 86 76 125q31 17 66 17q86 0 122 -74q16 -33 17 -68q0 -84 -72 -125q-29 -16 -63 -16q-82 0 -125 72 q-20 33 -21 69z" />
<glyph unicode="&#x1e98;" horiz-adv-x="1536" d="M10 983l180 -10l177 10q66 -309 163 -633q68 211 119 395l66 238l141 -10l143 10q31 -139 105 -418l61 -215l97 350q33 119 65 283q86 -10 109 -10q18 0 110 10q-68 -170 -135 -360l-213 -623q-82 8 -125 8l-125 -8l-119 424l-59 199q-98 -297 -192 -623q-90 8 -132 8 q-43 0 -129 -8zM557 1352q0 119 98 184q55 37 123 37q119 0 184 -98l25 -49l12 -58v-16q0 -119 -100 -184q-55 -37 -121 -37q-117 0 -182 96q-39 55 -39 125zM661 1352q0 -78 68 -106q23 -10 49 -11q76 0 107 70q10 22 10 47q0 76 -70 107q-23 10 -47 10q-78 0 -106 -70 q-10 -23 -11 -47z" />
<glyph unicode="&#x1e99;" horiz-adv-x="962" d="M0 983q131 -8 199 -8q61 0 172 8q70 -279 190 -606l107 305q41 121 88 301q31 -4 96 -8l135 8q-377 -821 -627 -1534q-55 8 -116 8q-66 0 -117 -8q94 145 162 291l108 235l-284 734q-76 190 -113 274zM273 1352q0 119 98 184q55 37 123 37q119 0 184 -98l25 -49l12 -58 v-16q0 -119 -100 -184q-55 -37 -121 -37q-117 0 -182 96q-39 55 -39 125zM377 1352q0 -78 68 -106q23 -10 49 -11q76 0 107 70q10 22 10 47q0 76 -70 107q-23 10 -47 10q-78 0 -106 -70q-10 -23 -11 -47z" />
<glyph unicode="&#x1ea0;" horiz-adv-x="1222" d="M-43 0l205 475q102 240 356 924q51 -6 102.5 -6t102.5 6q313 -881 530 -1399l-196 6l-201 -6l-43 135l-80 248q-96 6 -291 6l-143 -6q-59 -184 -133 -383q-63 6 -133 6l-72 -6h-4zM358 547q106 -4 164 -4q51 0 162 4q-55 182 -160 430q-90 -211 -166 -430zM430 -297 q0 100 86 149q41 25 90 25q84 0 142 -76l22 -43l11 -47v-6q0 -82 -76 -142l-43 -24l-47 -11h-9q-106 0 -155 91q-20 39 -21 84z" />
<glyph unicode="&#x1ea1;" horiz-adv-x="1040" d="M70 250q0 172 141 235q35 14 195 56q129 31 188 82q10 16 10 26q0 145 -117 191q-37 14 -84 14q-129 0 -196 -102h-8l-31 112q154 143 369 144q260 0 333 -195l19 -72l6 -73l-4 -351q0 -94 4 -141q14 -63 74 -63q27 0 67 18l8 -72q-82 -66 -213 -75q-139 0 -202 98l-8 12 q-99 -117 -271 -117q-164 0 -239 123q-41 63 -41 150zM174 -319q0 100 86 149q41 25 90 25q84 0 142 -76l22 -43l11 -47v-6q0 -82 -76 -142l-43 -24l-47 -11h-9q-106 0 -155 91q-20 39 -21 84zM354 293q0 -100 66 -137q25 -12 53 -13q109 0 125 131q2 18 2 39v205 q-246 -45 -246 -225z" />
<glyph unicode="&#x1ea4;" horiz-adv-x="1222" d="M-43 0l205 475q102 240 356 924q51 -6 102.5 -6t102.5 6q313 -881 530 -1399l-196 6l-201 -6l-43 135l-80 248q-96 6 -291 6l-143 -6q-59 -184 -133 -383q-63 6 -133 6l-72 -6h-4zM305 1522l223 365h180l228 -365h-101l-215 180l-219 -180h-96zM358 547q106 -4 164 -4 q51 0 162 4q-55 182 -160 430q-90 -211 -166 -430zM587 2033l119 471q16 94 84 133q25 14 53 15q84 0 121 -70q14 -27 15 -59q-4 -53 -33 -94l-299 -420z" />
<glyph unicode="&#x1ea5;" horiz-adv-x="1040" d="M70 250q0 172 141 235q35 14 195 56q129 31 188 82q10 16 10 26q0 145 -117 191q-37 14 -84 14q-129 0 -196 -102h-8l-31 112q154 143 369 144q260 0 333 -195l19 -72l6 -73l-4 -351q0 -94 4 -141q14 -63 74 -63q27 0 67 18l8 -72q-82 -66 -213 -75q-139 0 -202 98l-8 12 q-99 -117 -271 -117q-164 0 -239 123q-41 63 -41 150zM221 1130l223 365h180l228 -365h-101l-215 180l-219 -180h-96zM354 293q0 -100 66 -137q25 -12 53 -13q109 0 125 131q2 18 2 39v205q-246 -45 -246 -225zM503 1642l119 471q16 94 84 133q25 14 53 15q84 0 121 -70 q14 -27 15 -59q-4 -53 -33 -94l-299 -420z" />
<glyph unicode="&#x1ea6;" horiz-adv-x="1222" d="M-43 0l205 475q102 240 356 924q51 -6 102.5 -6t102.5 6q313 -881 530 -1399l-196 6l-201 -6l-43 135l-80 248q-96 6 -291 6l-143 -6q-59 -184 -133 -383q-63 6 -133 6l-72 -6h-4zM256 2525q0 -53 33 -98l301 -418l57 22l-116 471q-37 150 -146 150q-78 0 -114 -68 q-14 -29 -15 -59zM305 1522l223 365h180l228 -365h-101l-215 180l-219 -180h-96zM358 547q106 -4 164 -4q51 0 162 4q-55 182 -160 430q-90 -211 -166 -430z" />
<glyph unicode="&#x1ea7;" horiz-adv-x="1040" d="M70 250q0 172 141 235q35 14 195 56q129 31 188 82q10 16 10 26q0 145 -117 191q-37 14 -84 14q-129 0 -196 -102h-8l-31 112q154 143 369 144q260 0 333 -195l19 -72l6 -73l-4 -351q0 -94 4 -141q14 -63 74 -63q27 0 67 18l8 -72q-82 -66 -213 -75q-139 0 -202 98l-8 12 q-99 -117 -271 -117q-164 0 -239 123q-41 63 -41 150zM172 2134q0 -53 33 -98l301 -418l57 22l-116 471q-37 150 -146 150q-78 0 -114 -68q-14 -29 -15 -59zM221 1130l223 365h180l228 -365h-101l-215 180l-219 -180h-96zM354 293q0 -100 66 -137q25 -12 53 -13 q109 0 125 131q2 18 2 39v205q-246 -45 -246 -225z" />
<glyph unicode="&#x1eaa;" horiz-adv-x="1222" d="M-43 0l205 475q102 240 356 924q51 -6 102.5 -6t102.5 6q313 -881 530 -1399l-196 6l-201 -6l-43 135l-80 248q-96 6 -291 6l-143 -6q-59 -184 -133 -383q-63 6 -133 6l-72 -6h-4zM243 2009q29 193 160 244q37 14 82 14q68 0 166 -47t143 -47q61 0 96 67q6 12 13 27h88 q-29 -193 -160 -244q-37 -14 -82 -14q-63 0 -188 57l-80 31l-41 6q-61 0 -96 -68l-13 -26h-88zM305 1522l223 365h180l228 -365h-101l-215 180l-219 -180h-96zM358 547q106 -4 164 -4q51 0 162 4q-55 182 -160 430q-90 -211 -166 -430z" />
<glyph unicode="&#x1eab;" horiz-adv-x="1040" d="M70 250q0 172 141 235q35 14 195 56q129 31 188 82q10 16 10 26q0 145 -117 191q-37 14 -84 14q-129 0 -196 -102h-8l-31 112q154 143 369 144q260 0 333 -195l19 -72l6 -73l-4 -351q0 -94 4 -141q14 -63 74 -63q27 0 67 18l8 -72q-82 -66 -213 -75q-139 0 -202 98l-8 12 q-99 -117 -271 -117q-164 0 -239 123q-41 63 -41 150zM160 1618q29 193 160 244q37 14 82 14q68 0 166 -47t143 -47q61 0 96 67q6 12 13 27h88q-29 -193 -160 -244q-37 -14 -82 -14q-63 0 -188 57l-80 31l-41 6q-61 0 -96 -68l-13 -26h-88zM221 1130l223 365h180l228 -365 h-101l-215 180l-219 -180h-96zM354 293q0 -100 66 -137q25 -12 53 -13q109 0 125 131q2 18 2 39v205q-246 -45 -246 -225z" />
<glyph unicode="&#x1eac;" horiz-adv-x="1222" d="M-43 0l205 475q102 240 356 924q51 -6 102.5 -6t102.5 6q313 -881 530 -1399l-196 6l-201 -6l-43 135l-80 248q-96 6 -291 6l-143 -6q-59 -184 -133 -383q-63 6 -133 6l-72 -6h-4zM305 1522l223 365h180l228 -365h-101l-215 180l-219 -180h-96zM358 547q106 -4 164 -4 q51 0 162 4q-55 182 -160 430q-90 -211 -166 -430zM430 -297q0 100 86 149q41 25 90 25q84 0 142 -76l22 -43l11 -47v-6q0 -82 -76 -142l-43 -24l-47 -11h-9q-106 0 -155 91q-20 39 -21 84z" />
<glyph unicode="&#x1ead;" horiz-adv-x="1040" d="M70 250q0 172 141 235q35 14 195 56q129 31 188 82q10 16 10 26q0 145 -117 191q-37 14 -84 14q-129 0 -196 -102h-8l-31 112q154 143 369 144q260 0 333 -195l19 -72l6 -73l-4 -351q0 -94 4 -141q14 -63 74 -63q27 0 67 18l8 -72q-82 -66 -213 -75q-139 0 -202 98l-8 12 q-99 -117 -271 -117q-164 0 -239 123q-41 63 -41 150zM174 -319q0 100 86 149q41 25 90 25q84 0 142 -76l22 -43l11 -47v-6q0 -82 -76 -142l-43 -24l-47 -11h-9q-106 0 -155 91q-20 39 -21 84zM221 1130l223 365h180l228 -365h-101l-215 180l-219 -180h-96zM354 293 q0 -100 66 -137q25 -12 53 -13q109 0 125 131q2 18 2 39v205q-246 -45 -246 -225z" />
<glyph unicode="&#x1eb8;" horiz-adv-x="1036" d="M135 0q25 217 25 328l2 356v2q0 387 -27 688q131 -4 393 -8l424 8q-8 -57 -8 -88t8 -92q-225 16 -338 16l-110 -2h-2q-6 -203 -6 -403q147 4 442 16q-8 -61 -8 -92q0 -49 6 -94q-262 18 -440 18v-217q0 -154 8 -270q221 0 440 24q-6 -49 -6 -96q0 -2 6 -94 q-293 10 -530 10zM364 -297q0 100 86 149q41 25 90 25q84 0 142 -76l22 -43l11 -47v-6q0 -82 -76 -142l-43 -24l-47 -11h-9q-106 0 -155 91q-20 39 -21 84z" />
<glyph unicode="&#x1eb9;" horiz-adv-x="1075" d="M63 496q0 258 181 403q135 109 327 109q317 0 410 -254q31 -88 31 -201q0 -43 -2 -64h-613q0 -188 127 -288q80 -62 191 -62q117 0 235 99l27 -11q-39 -119 -49 -168q-141 -82 -332 -82q-295 0 -438 197q-94 131 -95 322zM395 647l2 -39v-2h312q2 16 2 49q0 256 -152 263 q-129 0 -158 -191q-6 -39 -6 -80zM419 -319q0 100 86 149q41 25 90 25q84 0 142 -76l22 -43l11 -47v-6q0 -82 -76 -142l-43 -24l-47 -11h-9q-106 0 -155 91q-20 39 -21 84z" />
<glyph unicode="&#x1ebc;" horiz-adv-x="1036" d="M135 0q25 217 25 328l2 356v2q0 387 -27 688q131 -4 393 -8l424 8q-8 -57 -8 -88t8 -92q-225 16 -338 16l-110 -2h-2q-6 -203 -6 -403q147 4 442 16q-8 -61 -8 -92q0 -49 6 -94q-262 18 -440 18v-217q0 -154 8 -270q221 0 440 24q-6 -49 -6 -96q0 -2 6 -94 q-293 10 -530 10zM170 1522q29 193 160 244q37 14 82 14q68 0 166 -47t143 -47q61 0 96 67q6 12 13 27h88q-29 -193 -160 -244q-37 -14 -82 -14q-63 0 -188 57l-80 31l-41 6q-61 0 -96 -68l-13 -26h-88z" />
<glyph unicode="&#x1ebd;" horiz-adv-x="1075" d="M63 496q0 258 181 403q135 109 327 109q317 0 410 -254q31 -88 31 -201q0 -43 -2 -64h-613q0 -188 127 -288q80 -62 191 -62q117 0 235 99l27 -11q-39 -119 -49 -168q-141 -82 -332 -82q-295 0 -438 197q-94 131 -95 322zM196 1131q29 193 160 244q37 14 82 14 q68 0 166 -47t143 -47q61 0 96 67q6 12 13 27h88q-29 -193 -160 -244q-37 -14 -82 -14q-63 0 -188 57l-80 31l-41 6q-61 0 -96 -68l-13 -26h-88zM395 647l2 -39v-2h312q2 16 2 49q0 256 -152 263q-129 0 -158 -191q-6 -39 -6 -80z" />
<glyph unicode="&#x1ebe;" horiz-adv-x="1036" d="M135 0q25 217 25 328l2 356v2q0 387 -27 688q131 -4 393 -8l424 8q-8 -57 -8 -88t8 -92q-225 16 -338 16l-110 -2h-2q-6 -203 -6 -403q147 4 442 16q-8 -61 -8 -92q0 -49 6 -94q-262 18 -440 18v-217q0 -154 8 -270q221 0 440 24q-6 -49 -6 -96q0 -2 6 -94 q-293 10 -530 10zM227 1522l223 365h180l228 -365h-101l-215 180l-219 -180h-96zM512 2033l119 471q16 94 84 133q25 14 53 15q84 0 121 -70q14 -27 15 -59q-4 -53 -33 -94l-299 -420z" />
<glyph unicode="&#x1ebf;" horiz-adv-x="1075" d="M63 496q0 258 181 403q135 109 327 109q317 0 410 -254q31 -88 31 -201q0 -43 -2 -64h-613q0 -188 127 -288q80 -62 191 -62q117 0 235 99l27 -11q-39 -119 -49 -168q-141 -82 -332 -82q-295 0 -438 197q-94 131 -95 322zM256 1130l223 365h180l228 -365h-101l-215 180 l-219 -180h-96zM395 647l2 -39v-2h312q2 16 2 49q0 256 -152 263q-129 0 -158 -191q-6 -39 -6 -80zM538 1642l119 471q16 94 84 133q25 14 53 15q84 0 121 -70q14 -27 15 -59q-4 -53 -33 -94l-299 -420z" />
<glyph unicode="&#x1ec0;" horiz-adv-x="1036" d="M135 0q25 217 25 328l2 356v2q0 387 -27 688q131 -4 393 -8l424 8q-8 -57 -8 -88t8 -92q-225 16 -338 16l-110 -2h-2q-6 -203 -6 -403q147 4 442 16q-8 -61 -8 -92q0 -49 6 -94q-262 18 -440 18v-217q0 -154 8 -270q221 0 440 24q-6 -49 -6 -96q0 -2 6 -94 q-293 10 -530 10zM178 2525q0 -53 33 -98l301 -418l57 22l-116 471q-37 150 -146 150q-78 0 -114 -68q-14 -29 -15 -59zM227 1522l223 365h180l228 -365h-101l-215 180l-219 -180h-96z" />
<glyph unicode="&#x1ec1;" horiz-adv-x="1075" d="M63 496q0 258 181 403q135 109 327 109q317 0 410 -254q31 -88 31 -201q0 -43 -2 -64h-613q0 -188 127 -288q80 -62 191 -62q117 0 235 99l27 -11q-39 -119 -49 -168q-141 -82 -332 -82q-295 0 -438 197q-94 131 -95 322zM207 2134q0 -53 33 -98l301 -418l57 22l-116 471 q-37 150 -146 150q-78 0 -114 -68q-14 -29 -15 -59zM256 1130l223 365h180l228 -365h-101l-215 180l-219 -180h-96zM395 647l2 -39v-2h312q2 16 2 49q0 256 -152 263q-129 0 -158 -191q-6 -39 -6 -80z" />
<glyph unicode="&#x1ec4;" horiz-adv-x="1036" d="M135 0q25 217 25 328l2 356v2q0 387 -27 688q131 -4 393 -8l424 8q-8 -57 -8 -88t8 -92q-225 16 -338 16l-110 -2h-2q-6 -203 -6 -403q147 4 442 16q-8 -61 -8 -92q0 -49 6 -94q-262 18 -440 18v-217q0 -154 8 -270q221 0 440 24q-6 -49 -6 -96q0 -2 6 -94 q-293 10 -530 10zM168 2009q29 193 160 244q37 14 82 14q68 0 166 -47t143 -47q61 0 96 67q6 12 13 27h88q-29 -193 -160 -244q-37 -14 -82 -14q-63 0 -188 57l-80 31l-41 6q-61 0 -96 -68l-13 -26h-88zM227 1522l223 365h180l228 -365h-101l-215 180l-219 -180h-96z" />
<glyph unicode="&#x1ec5;" horiz-adv-x="1075" d="M63 496q0 258 181 403q135 109 327 109q317 0 410 -254q31 -88 31 -201q0 -43 -2 -64h-613q0 -188 127 -288q80 -62 191 -62q117 0 235 99l27 -11q-39 -119 -49 -168q-141 -82 -332 -82q-295 0 -438 197q-94 131 -95 322zM194 1618q29 193 160 244q37 14 82 14 q68 0 166 -47t143 -47q61 0 96 67q6 12 13 27h88q-29 -193 -160 -244q-37 -14 -82 -14q-63 0 -188 57l-80 31l-41 6q-61 0 -96 -68l-13 -26h-88zM256 1130l223 365h180l228 -365h-101l-215 180l-219 -180h-96zM395 647l2 -39v-2h312q2 16 2 49q0 256 -152 263 q-129 0 -158 -191q-6 -39 -6 -80z" />
<glyph unicode="&#x1ec6;" horiz-adv-x="1036" d="M135 0q25 217 25 328l2 356v2q0 387 -27 688q131 -4 393 -8l424 8q-8 -57 -8 -88t8 -92q-225 16 -338 16l-110 -2h-2q-6 -203 -6 -403q147 4 442 16q-8 -61 -8 -92q0 -49 6 -94q-262 18 -440 18v-217q0 -154 8 -270q221 0 440 24q-6 -49 -6 -96q0 -2 6 -94 q-293 10 -530 10zM227 1522l223 365h180l228 -365h-101l-215 180l-219 -180h-96zM364 -297q0 100 86 149q41 25 90 25q84 0 142 -76l22 -43l11 -47v-6q0 -82 -76 -142l-43 -24l-47 -11h-9q-106 0 -155 91q-20 39 -21 84z" />
<glyph unicode="&#x1ec7;" horiz-adv-x="1075" d="M63 496q0 258 181 403q135 109 327 109q317 0 410 -254q31 -88 31 -201q0 -43 -2 -64h-613q0 -188 127 -288q80 -62 191 -62q117 0 235 99l27 -11q-39 -119 -49 -168q-141 -82 -332 -82q-295 0 -438 197q-94 131 -95 322zM256 1130l223 365h180l228 -365h-101l-215 180 l-219 -180h-96zM395 647l2 -39v-2h312q2 16 2 49q0 256 -152 263q-129 0 -158 -191q-6 -39 -6 -80zM419 -319q0 100 86 149q41 25 90 25q84 0 142 -76l22 -43l11 -47v-6q0 -82 -76 -142l-43 -24l-47 -11h-9q-106 0 -155 91q-20 39 -21 84z" />
<glyph unicode="&#x1eca;" horiz-adv-x="659" d="M139 0q25 264 25 594q0 494 -25 780q154 -14 187 -14l194 14q-25 -279 -24 -688q0 -412 24 -686q-139 8 -205 8q-119 -4 -176 -8zM153 -297q0 100 86 149q41 25 90 25q84 0 142 -76l22 -43l11 -47v-6q0 -82 -76 -142l-43 -24l-47 -11h-9q-106 0 -155 91q-20 39 -21 84z " />
<glyph unicode="&#x1ecb;" horiz-adv-x="583" d="M116 -297q0 100 86 149q41 25 90 25q84 0 142 -76l22 -43l11 -47v-6q0 -82 -76 -142l-43 -24l-47 -11h-9q-106 0 -155 91q-20 39 -21 84zM119 983q115 -12 172 -12q59 0 174 12q-12 -90 -19 -178l-2 -332v-2q0 -293 19 -471q-172 6 -174 6t-168 -6q14 110 14 188v613 q-4 68 -16 182zM127 1331q0 88 80 139q41 25 84 25q92 0 141 -82q23 -39 23 -82q0 -90 -82 -139q-39 -23 -82 -23q-92 0 -141 80q-23 39 -23 82z" />
<glyph unicode="&#x1ecc;" horiz-adv-x="1665" d="M59 686q14 418 326 600q193 113 467 113q393 0 594 -230q156 -174 156 -452q0 -428 -308 -619l-88 -47q-168 -74 -391 -74q-449 0 -641 283q-115 170 -115 426zM424 686q0 -262 117 -428q108 -152 288 -152q256 0 359 283q51 139 51 307q0 270 -125 432 q-104 139 -278 140q-262 0 -365 -283l-29 -104q-18 -94 -18 -195zM639 -319q0 100 86 149q41 25 90 25q84 0 142 -76l22 -43l11 -47v-6q0 -82 -76 -142l-43 -24l-47 -11h-9q-106 0 -155 91q-20 39 -21 84z" />
<glyph unicode="&#x1ecd;" horiz-adv-x="1140" d="M45 492q0 297 219 434q132 82 320 82q272 0 411 -189q98 -133 99 -321q0 -305 -215 -441q-127 -80 -310 -80q-287 0 -428 195q-96 129 -96 320zM379 492q0 -125 20 -236q14 -127 105 -166q31 -14 67 -14q135 0 172 178q0 -14 7 41q10 102 10 201q0 168 -17 233 q-35 178 -174 178q-102 0 -143 -86q-47 -98 -47 -329zM393 -319q0 100 86 149q41 25 90 25q84 0 142 -76l22 -43l11 -47v-6q0 -82 -76 -142l-43 -24l-47 -11h-9q-106 0 -155 91q-20 39 -21 84z" />
<glyph unicode="&#x1ed0;" horiz-adv-x="1665" d="M59 686q14 418 326 600q193 113 467 113q393 0 594 -230q156 -174 156 -452q0 -428 -308 -619l-88 -47q-168 -74 -391 -74q-449 0 -641 283q-115 170 -115 426zM424 686q0 -262 117 -428q108 -152 288 -152q256 0 359 283q51 139 51 307q0 270 -125 432 q-104 139 -278 140q-262 0 -365 -283l-29 -104q-18 -94 -18 -195zM537 1522l223 365h180l228 -365h-101l-215 180l-219 -180h-96zM819 2033l119 471q16 94 84 133q25 14 53 15q84 0 121 -70q14 -27 15 -59q-4 -53 -33 -94l-299 -420z" />
<glyph unicode="&#x1ed1;" horiz-adv-x="1140" d="M45 492q0 297 219 434q132 82 320 82q272 0 411 -189q98 -133 99 -321q0 -305 -215 -441q-127 -80 -310 -80q-287 0 -428 195q-96 129 -96 320zM268 1130l223 365h180l228 -365h-101l-215 180l-219 -180h-96zM379 492q0 -125 20 -236q14 -127 105 -166q31 -14 67 -14 q135 0 172 178q0 -14 7 41q10 102 10 201q0 168 -17 233q-35 178 -174 178q-102 0 -143 -86q-47 -98 -47 -329zM550 1642l119 471q16 94 84 133q25 14 53 15q84 0 121 -70q14 -27 15 -59q-4 -53 -33 -94l-299 -420z" />
<glyph unicode="&#x1ed2;" horiz-adv-x="1665" d="M59 686q14 418 326 600q193 113 467 113q393 0 594 -230q156 -174 156 -452q0 -428 -308 -619l-88 -47q-168 -74 -391 -74q-449 0 -641 283q-115 170 -115 426zM424 686q0 -262 117 -428q108 -152 288 -152q256 0 359 283q51 139 51 307q0 270 -125 432 q-104 139 -278 140q-262 0 -365 -283l-29 -104q-18 -94 -18 -195zM487 2525q0 -53 33 -98l301 -418l57 22l-116 471q-37 150 -146 150q-78 0 -114 -68q-14 -29 -15 -59zM537 1522l223 365h180l228 -365h-101l-215 180l-219 -180h-96z" />
<glyph unicode="&#x1ed3;" horiz-adv-x="1140" d="M45 492q0 297 219 434q132 82 320 82q272 0 411 -189q98 -133 99 -321q0 -305 -215 -441q-127 -80 -310 -80q-287 0 -428 195q-96 129 -96 320zM219 2134q0 -53 33 -98l301 -418l57 22l-116 471q-37 150 -146 150q-78 0 -114 -68q-14 -29 -15 -59zM268 1130l223 365h180 l228 -365h-101l-215 180l-219 -180h-96zM379 492q0 -125 20 -236q14 -127 105 -166q31 -14 67 -14q135 0 172 178q0 -14 7 41q10 102 10 201q0 168 -17 233q-35 178 -174 178q-102 0 -143 -86q-47 -98 -47 -329z" />
<glyph unicode="&#x1ed6;" horiz-adv-x="1665" d="M59 686q14 418 326 600q193 113 467 113q393 0 594 -230q156 -174 156 -452q0 -428 -308 -619l-88 -47q-168 -74 -391 -74q-449 0 -641 283q-115 170 -115 426zM424 686q0 -262 117 -428q108 -152 288 -152q256 0 359 283q51 139 51 307q0 270 -125 432 q-104 139 -278 140q-262 0 -365 -283l-29 -104q-18 -94 -18 -195zM475 2009q29 193 160 244q37 14 82 14q68 0 166 -47t143 -47q61 0 96 67q6 12 13 27h88q-29 -193 -160 -244q-37 -14 -82 -14q-63 0 -188 57l-80 31l-41 6q-61 0 -96 -68l-13 -26h-88zM537 1522l223 365h180 l228 -365h-101l-215 180l-219 -180h-96z" />
<glyph unicode="&#x1ed7;" horiz-adv-x="1140" d="M45 492q0 297 219 434q132 82 320 82q272 0 411 -189q98 -133 99 -321q0 -305 -215 -441q-127 -80 -310 -80q-287 0 -428 195q-96 129 -96 320zM207 1618q29 193 160 244q37 14 82 14q68 0 166 -47t143 -47q61 0 96 67q6 12 13 27h88q-29 -193 -160 -244q-37 -14 -82 -14 q-63 0 -188 57l-80 31l-41 6q-61 0 -96 -68l-13 -26h-88zM268 1130l223 365h180l228 -365h-101l-215 180l-219 -180h-96zM379 492q0 -125 20 -236q14 -127 105 -166q31 -14 67 -14q135 0 172 178q0 -14 7 41q10 102 10 201q0 168 -17 233q-35 178 -174 178q-102 0 -143 -86 q-47 -98 -47 -329z" />
<glyph unicode="&#x1ed8;" horiz-adv-x="1665" d="M59 686q14 418 326 600q193 113 467 113q393 0 594 -230q156 -174 156 -452q0 -428 -308 -619l-88 -47q-168 -74 -391 -74q-449 0 -641 283q-115 170 -115 426zM424 686q0 -262 117 -428q108 -152 288 -152q256 0 359 283q51 139 51 307q0 270 -125 432 q-104 139 -278 140q-262 0 -365 -283l-29 -104q-18 -94 -18 -195zM537 1522l223 365h180l228 -365h-101l-215 180l-219 -180h-96zM639 -319q0 100 86 149q41 25 90 25q84 0 142 -76l22 -43l11 -47v-6q0 -82 -76 -142l-43 -24l-47 -11h-9q-106 0 -155 91q-20 39 -21 84z" />
<glyph unicode="&#x1ed9;" horiz-adv-x="1140" d="M45 492q0 297 219 434q132 82 320 82q272 0 411 -189q98 -133 99 -321q0 -305 -215 -441q-127 -80 -310 -80q-287 0 -428 195q-96 129 -96 320zM268 1130l223 365h180l228 -365h-101l-215 180l-219 -180h-96zM379 492q0 -125 20 -236q14 -127 105 -166q31 -14 67 -14 q135 0 172 178q0 -14 7 41q10 102 10 201q0 168 -17 233q-35 178 -174 178q-102 0 -143 -86q-47 -98 -47 -329zM393 -319q0 100 86 149q41 25 90 25q84 0 142 -76l22 -43l11 -47v-6q0 -82 -76 -142l-43 -24l-47 -11h-9q-106 0 -155 91q-20 39 -21 84z" />
<glyph unicode="&#x1ee4;" horiz-adv-x="1472" d="M121 1374l190 -8l189 8q-27 -297 -27 -753q0 -303 115 -402q70 -57 180 -57q172 0 279 121q59 68 73 159q16 141 17 365q0 315 -25 567l84 -8h2q61 0 143 8q-20 -260 -20 -467l4 -198q0 -104 -4 -156q0 -520 -485 -569l-107 -7q-442 0 -551 291q-25 70 -31 154 q-10 137 -16 627q-2 192 -10 325zM553 -319q0 100 86 149q41 25 90 25q84 0 142 -76l22 -43l11 -47v-6q0 -82 -76 -142l-43 -24l-47 -11h-9q-106 0 -155 91q-20 39 -21 84z" />
<glyph unicode="&#x1ee5;" d="M111 983q129 -14 163 -14q41 0 170 14q-8 -152 -12 -313q0 -4 -2 -107q0 -76 2 -151q0 -215 115 -242q16 -4 37 -4q121 0 149 172q2 4 2 8q6 74 6 143q0 244 -12 494q125 -14 176 -14q37 0 162 14q-16 -223 -16 -502q0 -266 16 -479q-102 4 -155.5 4t-155.5 -4v137 q-113 -133 -271 -157l-53 -5q-182 0 -266 142q-39 70 -43 160q0 145 2 217q0 258 -14 487zM256 -319q0 100 86 149q41 25 90 25q84 0 142 -76l22 -43l11 -47v-6q0 -82 -76 -142l-43 -24l-47 -11h-9q-106 0 -155 91q-20 39 -21 84z" />
<glyph unicode="&#x1ef2;" horiz-adv-x="1101" d="M-45 1374q53 -4 180 -8q78 0 242 8q141 -311 274 -557q137 223 287 557q37 -4 111 -8l125 8q-223 -328 -441 -753q0 -201 6 -410l9 -211l-136 8h-2q-102 0 -233 -8l18 340v10q0 174 -2 244l-194 364l-191 334q-27 43 -53 82zM200 2038q0 -53 33 -98l301 -418l57 22 l-116 471q-37 150 -146 150q-78 0 -114 -68q-14 -29 -15 -59z" />
<glyph unicode="&#x1ef3;" horiz-adv-x="962" d="M0 983q131 -8 199 -8q61 0 172 8q70 -279 190 -606l107 305q41 121 88 301q31 -4 96 -8l135 8q-377 -821 -627 -1534q-55 8 -116 8q-66 0 -117 -8q94 145 162 291l108 235l-284 734q-76 190 -113 274zM131 1647q0 -53 33 -98l301 -418l57 22l-116 471q-37 150 -146 150 q-78 0 -114 -68q-14 -29 -15 -59z" />
<glyph unicode="&#x1ef4;" horiz-adv-x="1101" d="M-45 1374q53 -4 180 -8q78 0 242 8q141 -311 274 -557q137 223 287 557q37 -4 111 -8l125 8q-223 -328 -441 -753q0 -201 6 -410l9 -211l-136 8h-2q-102 0 -233 -8l18 340v10q0 174 -2 244l-194 364l-191 334q-27 43 -53 82zM387 -297q0 100 86 149q41 25 90 25 q84 0 142 -76l22 -43l11 -47v-6q0 -82 -76 -142l-43 -24l-47 -11h-9q-106 0 -155 91q-20 39 -21 84z" />
<glyph unicode="&#x1ef5;" horiz-adv-x="962" d="M0 983q131 -8 199 -8q61 0 172 8q70 -279 190 -606l107 305q41 121 88 301q31 -4 96 -8l135 8q-377 -821 -627 -1534q-55 8 -116 8q-66 0 -117 -8q94 145 162 291l108 235l-284 734q-76 190 -113 274zM69 -847q0 100 86 149q41 25 90 25q84 0 142 -76l22 -43l11 -47v-6 q0 -82 -76 -142l-43 -24l-47 -11h-9q-106 0 -155 91q-20 39 -21 84z" />
<glyph unicode="&#x1ef8;" horiz-adv-x="1101" d="M-45 1374q53 -4 180 -8q78 0 242 8q141 -311 274 -557q137 223 287 557q37 -4 111 -8l125 8q-223 -328 -441 -753q0 -201 6 -410l9 -211l-136 8h-2q-102 0 -233 -8l18 340v10q0 174 -2 244l-194 364l-191 334q-27 43 -53 82zM190 1522q29 193 160 244q37 14 82 14 q68 0 166 -47t143 -47q61 0 96 67q6 12 13 27h88q-29 -193 -160 -244q-37 -14 -82 -14q-63 0 -188 57l-80 31l-41 6q-61 0 -96 -68l-13 -26h-88z" />
<glyph unicode="&#x1ef9;" horiz-adv-x="962" d="M0 983q131 -8 199 -8q61 0 172 8q70 -279 190 -606l107 305q41 121 88 301q31 -4 96 -8l135 8q-377 -821 -627 -1534q-55 8 -116 8q-66 0 -117 -8q94 145 162 291l108 235l-284 734q-76 190 -113 274zM119 1131q29 193 160 244q37 14 82 14q68 0 166 -47t143 -47 q61 0 96 67q6 12 13 27h88q-29 -193 -160 -244q-37 -14 -82 -14q-63 0 -188 57l-80 31l-41 6q-61 0 -96 -68l-13 -26h-88z" />
<glyph unicode="&#x2000;" horiz-adv-x="1326" />
<glyph unicode="&#x2001;" horiz-adv-x="2652" />
<glyph unicode="&#x2002;" horiz-adv-x="1326" />
<glyph unicode="&#x2003;" horiz-adv-x="2652" />
<glyph unicode="&#x2004;" horiz-adv-x="884" />
<glyph unicode="&#x2005;" horiz-adv-x="663" />
<glyph unicode="&#x2006;" horiz-adv-x="442" />
<glyph unicode="&#x2007;" horiz-adv-x="442" />
<glyph unicode="&#x2008;" horiz-adv-x="331" />
<glyph unicode="&#x2009;" horiz-adv-x="530" />
<glyph unicode="&#x200a;" horiz-adv-x="147" />
<glyph unicode="&#x2010;" horiz-adv-x="659" d="M88 365l10 129l-10 129h483q-8 -92 -10 -131q2 -39 10 -127h-483z" />
<glyph unicode="&#x2011;" horiz-adv-x="659" d="M88 365l10 129l-10 129h483q-8 -92 -10 -131q2 -39 10 -127h-483z" />
<glyph unicode="&#x2012;" horiz-adv-x="659" d="M88 365l10 129l-10 129h483q-8 -92 -10 -131q2 -39 10 -127h-483z" />
<glyph unicode="&#x2013;" horiz-adv-x="1007" d="M0 410v211h1008v-211h-1008z" />
<glyph unicode="&#x2014;" horiz-adv-x="2013" d="M334 410v211h1345v-211h-1345z" />
<glyph unicode="&#x2018;" horiz-adv-x="550" d="M100 885q0 37 33 94l299 420l57 -21l-118 -473q-43 -141 -148 -149q-72 0 -106 65q-16 31 -17 64z" />
<glyph unicode="&#x2019;" horiz-adv-x="550" d="M104 780l119 471q16 90 82 131q27 16 55 17q86 0 123 -70q14 -27 15 -57q-2 -49 -31 -96l-303 -420z" />
<glyph unicode="&#x201a;" horiz-adv-x="552" d="M37 -352l125 530q27 125 108 162q25 10 52 10q88 0 131 -78l16 -43l2 -28q0 -47 -37 -107l-342 -469z" />
<glyph unicode="&#x201c;" horiz-adv-x="964" d="M96 887q4 53 33 94l301 418l59 -23l-118 -471q-23 -115 -103 -143q-20 -6 -41 -6q-84 0 -118 73q-12 27 -13 58zM510 883q0 51 31 98l301 418l57 -23l-117 -471q-14 -98 -86 -135l-39 -12q-10 -2 -18 -2q-82 0 -117 69q-12 27 -12 58z" />
<glyph unicode="&#x201d;" horiz-adv-x="964" d="M106 780l119 471q20 119 103 144q16 4 34 4q96 0 127 -78q8 -25 9 -51q-4 -53 -33 -94l-299 -420zM518 780l117 471q16 94 84 133q27 14 55 15q84 0 119 -68q14 -27 14 -57q0 -47 -30 -98l-299 -420z" />
<glyph unicode="&#x201e;" horiz-adv-x="552" d="M37 -352l125 530q27 125 108 162q25 10 52 10q88 0 131 -78l16 -43l2 -28q0 -47 -37 -107l-342 -469z" />
<glyph unicode="&#x2022;" horiz-adv-x="1509" d="M317 745q0 178 129 308q132 131 310 131q176 0 305 -131q127 -129 127 -308q0 -174 -127 -303t-305 -129q-184 0 -311.5 127t-127.5 305z" />
<glyph unicode="&#x202f;" horiz-adv-x="530" />
<glyph unicode="&#x2030;" horiz-adv-x="2428" d="M41 987q0 201 145 297q88 57 205 57q190 0 287 -143q59 -88 59 -207q0 -221 -164 -311l-65 -27q-59 -18 -127 -18q-193 0 -287 149q-53 88 -53 203zM272 -186l953 1683h127l-951 -1683h-129zM276 987q1 -80 13 -160q4 -82 57 -112q18 -10 39 -10q57 0 84 51q2 6 4 10 q27 70 27 221q0 94 -11 158q-12 104 -79 123l-21 2q-61 0 -88 -60q-25 -86 -25 -223zM903 328q0 223 164 311q80 43 186 43q211 0 299 -154q47 -80 47 -188q0 -233 -167 -322l-66 -26q-55 -14 -119 -15q-193 0 -289 148q-55 86 -55 203zM1139 328q0 -74 10 -162 q6 -82 63 -113q16 -8 37 -8q55 0 88 74q12 27 15 49q8 72 8 160q0 90 -8 157q-25 115 -101 125q-63 0 -84 -57q-29 -72 -28 -225zM1688 328q0 197 145 295q88 59 207 59q213 0 301 -158q45 -80 45 -186q0 -238 -174 -324q-76 -37 -178 -37q-190 0 -287 146q-59 88 -59 205z M1927 328q0 -99 12 -162q6 -92 68 -115q14 -6 31 -6q57 0 86 61q27 66 26 222q0 90 -8 157q-18 125 -102 125q-63 0 -86 -57q-27 -88 -27 -225z" />
<glyph unicode="&#x2039;" horiz-adv-x="1677" d="M258 502v194l1157 478v-216l-878 -358l878 -358v-215z" />
<glyph unicode="&#x203a;" horiz-adv-x="1677" d="M258 27v215l881 358l-881 358v216l1159 -478v-194z" />
<glyph unicode="&#x205f;" horiz-adv-x="663" />
<glyph unicode="&#x20ac;" horiz-adv-x="1138" d="M25 489q29 63 34 152q35 -6 107 -10v82q0 31 2 47q-78 0 -137 -6q35 78 35 147q33 -6 120 -6h2q86 424 504 477q55 6 115 6q162 0 326 -84q-53 -137 -66 -209h-18q-49 123 -158 158l-60 10h-12q-225 0 -301 -221q-18 -61 -31 -139h306q133 0 237 8q-35 -84 -41 -153 q-84 10 -258 12h-254q-2 -27 -2 -82v-47h236q119 0 241 10q-37 -94 -39 -156q-84 10 -235 13h-193q49 -399 330 -400q152 0 234 150l28 -4q-27 -123 -28 -197q-104 -72 -250 -74q-403 0 -555 303q-47 96 -66 220q-102 0 -153 -7z" />
<glyph unicode="&#x2126;" horiz-adv-x="1785" d="M53 0q4 78 4 119l-4 71q145 -20 336 -24q-242 141 -262 467q-2 25 -2 51q0 379 281 571q209 143 512 144q375 0 579 -215q170 -176 170 -459q0 -328 -231 -512q-31 -25 -66 -47q179 -1 361 24q-4 -29 -5 -86q0 -70 7 -104l-326 6q-180 0 -352 -6v152q207 123 239 389 q8 68 9 157q0 264 -123 426q-35 47 -78 78q-88 66 -207 66q-268 0 -367 -301q-41 -131 -41 -293q0 -385 244 -522v-152q-350 6 -352 6z" />
<glyph unicode="&#x2206;" horiz-adv-x="1433" d="M16 0q383 745 596 1374q78 -8 111 -8q39 0 113 8q295 -834 577 -1374q-350 12 -702 12q-344 0 -695 -12zM319 188q143 -14 308 -14q131 0 311 14q-45 131 -143 390l-156 374l-176 -401q-76 -168 -144 -363z" />
<glyph unicode="&#x2248;" horiz-adv-x="1679" d="M174 209v215q223 143 397 143q90 0 301 -71q168 -57 250 -62q156 0 381 152v-215q-209 -137 -373 -138q-100 0 -296 68q-182 61 -283 61q-150 -2 -352 -137zM174 614v215q221 141 404 142q86 0 284 -70q174 -59 260 -59q154 0 373 141q4 4 8 6v-213q-205 -137 -373 -137 q-100 0 -296 68q-182 63 -283 63q-139 -4 -326 -123z" />
<glyph unicode="&#x2264;" horiz-adv-x="1679" d="M252 0v195h1171v-195h-1171zM256 672v172l1165 379v-207l-817 -258l817 -258v-205z" />
<glyph unicode="&#x2265;" horiz-adv-x="1679" d="M252 0v195h1171v-195h-1171zM256 295v205l819 258l-819 258v207l1167 -379v-172z" />
<glyph unicode="&#x25fc;" horiz-adv-x="983" d="M0 0v983h983v-983h-983z" />
<glyph unicode="&#xf6be;" horiz-adv-x="583" d="M-92 -451q213 0 227 295v35q4 332 4 498q0 403 -16 606q53 -6 166 -10q113 4 164 10q-2 -86 -2 -260l10 -768v-2q-18 -408 -389 -473l-111 -12h-35z" />
</font>
</defs>
</svg>
